<?xml version="1.0" encoding="utf-8"?>
<!-- Generator: Adobe Illustrator 24.1.3, SVG Export Plug-In . SVG Version: 6.00 Build 0)  -->
<svg version="1.1" id="Layer_12" xmlns="http://www.w3.org/2000/svg" xmlns:xlink="http://www.w3.org/1999/xlink" x="0px" y="0px"
	 viewBox="0 0 37 37" style="enable-background:new 0 0 37 37;" xml:space="preserve">
<style type="text/css">
	
		.st0{fill-rule:evenodd;clip-rule:evenodd;fill:none;stroke:#1475A2;stroke-width:2;stroke-linecap:round;stroke-linejoin:round;stroke-miterlimit:3;}
	.st1{fill:none;stroke:#1475A2;stroke-width:2;stroke-miterlimit:10;}
</style>
<g>
	<path class="st0" d="M18.5,8.5c0.3,0,0.5,0.1,0.7,0.3c0.2,0.2,0.3,0.4,0.3,0.7c0,0.3-0.1,0.5-0.3,0.7c-0.2,0.2-0.4,0.3-0.7,0.3
		c-0.3,0-0.5-0.1-0.7-0.3c-0.2-0.2-0.3-0.4-0.3-0.7c0-0.3,0.1-0.5,0.3-0.7C18,8.6,18.2,8.5,18.5,8.5z"/>
	<line class="st0" x1="18.5" y1="14.8" x2="18.5" y2="28.5"/>
</g>
<path class="st1" d="M36,18.5C36,28.2,28.2,36,18.5,36C8.8,36,1,28.2,1,18.5C1,8.8,8.8,1,18.5,1C28.2,1,36,8.8,36,18.5z"/>
</svg>
