<?xml version="1.0" encoding="utf-8"?>
<!-- Generator: Adobe Illustrator 24.1.3, SVG Export Plug-In . SVG Version: 6.00 Build 0)  -->
<svg version="1.1" id="Layer_1" xmlns="http://www.w3.org/2000/svg" xmlns:xlink="http://www.w3.org/1999/xlink" x="0px" y="0px"
	 viewBox="0 0 1489.2 1888" style="enable-background:new 0 0 1489.2 1888;" xml:space="preserve">
<style type="text/css">
	.st0{fill:#D0905C;}
	.st1{fill:#FFFFFF;}
	.st2{fill:#3D4856;}
</style>
<g>
	<path class="st0" d="M1386.1,1000.2c64.3-104.8,103.1-227.4,103.1-359.5c0-374.4-303.5-640.7-678-640.7
		c-266.7,0-503,135.1-616.9,348.1c-46,86.1-81.1,250-72.1,292.6c5.8,27.8,35.4,69.2,26.9,95.6C111.6,853.1,0,928,0,972.1
		c0,75.9,88.3,40.1,88.3,98.1s-46.9,74.5,34.5,115.2c0,0-29.7,22.4-20.4,51.4c9.3,29,32.6,31.5,36.2,46.6
		c8.3,34.5-48.1,102,22.8,172.9s236,12.8,309.2,85.9C543.8,1615.3,556,1888,556,1888h847.3C1223.1,1550.4,1212,1283.8,1386.1,1000.2
		z"/>
	<path class="st1" d="M320.9,484.7c0-219,258.8-356.4,512-356.4c322.2,0,527.3,223,527.3,505.7c0,252.8-240.2,299.3-361.7,262.7
		c-169.2-51-124.1-131.3-349-181.1C493.9,681.2,320.9,653.9,320.9,484.7z"/>
	<g>
		<g>
			<path class="st2" d="M906.1,480.3l57.8-15.4L954.7,358l-60.3-5.4c-9.9-21.8-23.8-41.8-41.2-58.9l15.8-58.6l-97.2-45.5l-34.9,49.7
				c-24.3-2.5-48.6-0.3-71.6,6l-42.7-42.9l-88,61.4l25.2,54.2c-7.3,10-13.7,20.8-19.2,32.4c-5.2,11-9.2,22.3-12.2,33.7L471,399.5
				l9.2,106.9l58.5,5.2c10,22.7,24.3,43.6,42.5,61.2l-15.2,56.4l97.2,45.5l33.6-47.8c25.2,2.6,50.4,0.3,74.2-6.6l41.4,41.6l88-61.4
				l-25-53.8c6.8-9.6,12.9-19.9,18.1-30.9C898.9,504.2,903.1,492.3,906.1,480.3z M796.5,469.2c-20.4,43.6-72.3,62.4-116,42
				c-43.6-20.4-62.4-72.3-42-116c20.4-43.6,72.3-62.4,116-42C798.1,373.7,816.9,425.6,796.5,469.2z"/>
			<path class="st2" d="M1258.7,529.7c-2-9-4.8-17.9-8.6-26.7c-3.9-9.2-8.7-17.9-14.1-25.9l21.2-41.7l-67.1-50.4l-34.6,32.3
				c-17.8-5.6-36.7-8-55.8-6.7l-25.9-39.8l-77.2,32.9l10.7,46.2c-14.1,12.8-25.5,28.1-33.8,44.8l-47.2,2.5l-10.1,83.3l44.7,13.6
				c2,9.5,5,18.9,8.9,28.1c3.7,8.8,8.2,17,13.3,24.7l-21,41.4l67.1,50.4l33.5-31.3c18.4,6,38,8.6,57.8,7.2l24.9,38.3l77.2-32.9
				l-10.3-44.5c14.7-13.3,26.4-29.2,34.9-46.7l45.8-2.5l10.1-83.3L1258.7,529.7z M1136.4,624.6c-34.6,14.8-74.7-1.4-89.4-36
				c-14.8-34.6,1.4-74.7,36-89.4c34.6-14.8,74.7,1.4,89.4,36C1187.2,569.8,1171,609.9,1136.4,624.6z"/>
		</g>
	</g>
</g>
</svg>
