<?xml version="1.0" encoding="utf-8"?>
<!-- Generator: Adobe Illustrator 24.1.3, SVG Export Plug-In . SVG Version: 6.00 Build 0)  -->
<svg version="1.1" id="Layer_1" xmlns="http://www.w3.org/2000/svg" xmlns:xlink="http://www.w3.org/1999/xlink" x="0px" y="0px"
	 viewBox="0 0 605.9 410.1" style="enable-background:new 0 0 605.9 410.1;" xml:space="preserve">
<style type="text/css">
	.st0{fill:#D0905C;}
	.st1{fill:#505A67;}
	.st2{fill:#FFFFFF;}
	.st3{fill:#08213D;}
</style>
<g>
	<path class="st0" d="M604.4,351.2c0,3.6-2.9,6.5-6.5,6.5H582c-3.6,0-6.5-2.9-6.5-6.5V265c0-3.6,2.9-6.5,6.5-6.5h15.9
		c3.6,0,6.5,2.9,6.5,6.5V351.2z"/>
	<path class="st1" d="M605.5,99.2c-2.5-16.8-16.7-29.8-34.2-30.9c0,0-2.8-0.1-3.3-0.1h-24.1L526,169.3L508.1,68.2h-21.7
		c-0.5,0-3.3,0.1-3.3,0.1c-17.5,1.1-31.7,14.1-34.2,30.9c-0.3,1.2-0.4,2.4-0.4,3.7v73.7v48.2c0,8.7,6.6,15.8,14.7,15.8
		c8.1,0,14.7-7.1,14.7-15.8V206v-91.7h6.9h0v96.3v38.9v140c0,11.4,8.5,20.6,19.1,20.6c10.5,0,19.1-9.2,19.1-20.6v-140h5v-0.1h3.8
		l0,140.1c0,11.4,8.5,20.6,19.1,20.6c10.5,0,19.1-9.2,19.1-20.6V246.1v-15c0-0.1,0-0.3,0-0.4V114.2h-0.1v0h7v110.5
		c0,8.7,6.6,15.8,14.7,15.8c8.1,0,14.7-7.1,14.7-15.8V102.9C605.9,101.6,605.8,100.3,605.5,99.2z"/>
	<g>
		<g>
			<polygon class="st1" points="538.7,68.9 528.8,74.7 538.7,80.5 			"/>
			<polygon class="st1" points="514.1,68.9 524,74.7 514.1,80.5 			"/>
			<path class="st1" d="M528.7,74.7c0,1.2-1,2.2-2.2,2.2c-1.2,0-2.2-1-2.2-2.2c0-1.2,1-2.2,2.2-2.2
				C527.7,72.5,528.7,73.5,528.7,74.7z"/>
		</g>
	</g>
	<path class="st0" d="M594.3,253.9v-5.5c0-1.4-1.1-2.5-2.5-2.5h-3.6c-1.4,0-2.5,1.1-2.5,2.5v5.5H594.3z"/>
	<path class="st1" d="M527.2,57.5c16.2,0,29.3-12.9,29.3-28.8c0-15.9-13.1-28.7-29.3-28.7c-16.2,0-29.3,12.9-29.3,28.7
		C497.9,44.6,511,57.5,527.2,57.5z"/>
</g>
<g>
	<path class="st1" d="M157,99.2c-2.5-16.8-16.7-29.8-34.2-30.9c0,0-2.8-0.1-3.3-0.1H98.2L78.7,99.8L59.2,68.2H37.9c-0.5,0-1,0-1.5,0
		v0l-1.8,0C17.1,69.4,2.9,82.4,0.4,99.2c-0.3,1.2-0.4,2.4-0.4,3.7v73.7v48.2c0,8.7,6.6,15.8,14.7,15.8c8.1,0,14.7-7.1,14.7-15.8V206
		v-91.7h6.9h0v96.3v38.9v140c0,11.4,8.5,20.6,19.1,20.6c10.5,0,19.1-9.2,19.1-20.6v-140h5v-0.1h3.8l0,140.1
		c0,11.4,8.5,20.6,19.1,20.6c10.5,0,19.1-9.2,19.1-20.6V246.1v-15c0-0.1,0-0.3,0-0.4V114.2h-0.1v0h7v110.5c0,8.7,6.6,15.8,14.7,15.8
		c8.1,0,14.7-7.1,14.7-15.8V102.9C157.4,101.6,157.3,100.3,157,99.2z"/>
	<path class="st1" d="M78.7,57.5c16.2,0,29.3-12.9,29.3-28.8C108,12.9,94.9,0,78.7,0C62.5,0,49.4,12.9,49.4,28.7
		C49.4,44.6,62.5,57.5,78.7,57.5z"/>
	<g>
		<g>
			<path class="st0" d="M151.4,276.3h-5.6H140h-5.6c-0.9,0-1.7,0.7-1.7,1.7v36.8c0,0.9,0.7,1.7,1.7,1.7h5.6h5.8h5.6
				c0.9,0,1.7-0.7,1.7-1.7V278C153,277,152.3,276.3,151.4,276.3z"/>
			<path class="st0" d="M145.9,270c0,1.4-1.1,2.5-2.5,2.5h-1c-1.4,0-2.5-1.1-2.5-2.5v-22.8c0-1.4,1.1-2.5,2.5-2.5h1
				c1.4,0,2.5,1.1,2.5,2.5V270z"/>
		</g>
	</g>
</g>
<g>
	<path class="st1" d="M296.4,57.5c16.2,0,29.3-12.9,29.3-28.8c0-15.9-13.1-28.7-29.3-28.7c-16.2,0-29.3,12.9-29.3,28.7
		C267.1,44.6,280.2,57.5,296.4,57.5z"/>
	<path class="st1" d="M374.7,99.2c-2.5-16.8-16.7-29.8-34.2-30.9c0,0-2.8-0.1-3.3-0.1l-81.6,0.1c-0.5,0-3.3,0.1-3.3,0.1
		c-17.5,1.1-31.7,14.1-34.2,30.9c-0.3,1.2-0.4,2.4-0.4,3.7v73.7v48.2c0,8.7,6.6,15.8,14.7,15.8c8.1,0,14.7-7.1,14.7-15.8V206v-91.7
		h6.9h0v96.3v38.9v140c0,11.4,8.5,20.6,19.1,20.6c10.5,0,19.1-9.2,19.1-20.6v-140h5v-0.1h3.8l0,140.1c0,11.4,8.5,20.6,19.1,20.6
		c10.5,0,19.1-9.2,19.1-20.6V246.1v-15c0-0.1,0-0.3,0-0.4V114.2h-0.1v0h7v110.5c0,8.7,6.6,15.8,14.7,15.8c8.1,0,14.7-7.1,14.7-15.8
		V102.9C375.1,101.6,375,100.3,374.7,99.2z"/>
	<polygon class="st2" points="297.6,86.3 295.2,86.3 287.7,152.6 287.7,152.6 287.7,152.6 296.4,162.2 305.1,152.6 305.1,152.6 
		305.1,152.6 	"/>
	<path class="st2" d="M302,76.8c0,3.1-2.5,5.6-5.6,5.6c-3.1,0-5.6-2.5-5.6-5.6c0-3.1,2.5-5.6,5.6-5.6C299.5,71.2,302,73.7,302,76.8z
		"/>
	<path class="st0" d="M364.7,253.9v-5.5c0-1.4-1.1-2.5-2.5-2.5h-3.6c-1.4,0-2.5,1.1-2.5,2.5v5.5H364.7z"/>
	<path class="st3" d="M350.9,263.2L350.9,263.2C350.9,263.3,350.9,263.3,350.9,263.2L350.9,263.2z"/>
	<path class="st0" d="M370.5,267.1L370.5,267.1c-0.5-4.8-4.5-8.5-9.4-8.5c-4.9,0-8.9,3.7-9.4,8.4c0,0,0,0,0,0.1v83.5h2.7l5.4-2.1
		l5.4,2.1h2.7l5.4-2.1l5.4,2.1h2.3L370.5,267.1z"/>
</g>
</svg>
