<?xml version="1.0" encoding="utf-8"?>
<!-- Generator: Adobe Illustrator 24.1.3, SVG Export Plug-In . SVG Version: 6.00 Build 0)  -->
<svg version="1.1" id="Layer_16" xmlns="http://www.w3.org/2000/svg" xmlns:xlink="http://www.w3.org/1999/xlink" x="0px" y="0px"
	 viewBox="0 0 406.1 215.4" style="enable-background:new 0 0 406.1 215.4;" xml:space="preserve">
<style type="text/css">
	.st0{fill-rule:evenodd;clip-rule:evenodd;fill:#1475A2;}
	.st1{fill:none;stroke:#FFFFFF;stroke-width:1.5;stroke-linejoin:round;stroke-miterlimit:10;}
	.st2{fill-rule:evenodd;clip-rule:evenodd;fill:#B9FDEB;}
	.st3{fill-rule:evenodd;clip-rule:evenodd;fill:#39250F;}
	.st4{fill-rule:evenodd;clip-rule:evenodd;fill:#3D4856;}
	.st5{fill-rule:evenodd;clip-rule:evenodd;fill:#D0905C;}
	.st6{fill:#595959;}
	.st7{fill-rule:evenodd;clip-rule:evenodd;fill:#FFFFFF;stroke:#D6D6D6;stroke-width:0.5;stroke-miterlimit:10;}
</style>
<g>
	<g>
		<path class="st0" d="M98.3,19.5c53.9,0,97.6,43.7,97.6,97.6c0,53.9-43.7,97.6-97.6,97.6c-8.6,0-17.2-1.1-25.4-3.4l25.4-94.2V19.5
			L98.3,19.5z"/>
		<path class="st1" d="M98.3,19.5c53.9,0,97.6,43.7,97.6,97.6c0,53.9-43.7,97.6-97.6,97.6c-8.6,0-17.2-1.1-25.4-3.4l25.4-94.2V19.5
			L98.3,19.5z"/>
		<path class="st2" d="M72.9,211.3c-7.8-2.1-15.4-5.2-22.5-9.2l47.9-85L72.9,211.3L72.9,211.3z"/>
		<path class="st1" d="M72.9,211.3c-7.8-2.1-15.4-5.2-22.5-9.2l47.9-85L72.9,211.3L72.9,211.3z"/>
		<path class="st3" d="M50.4,202.1c-14.2-8-26.2-19.5-34.8-33.3l82.8-51.7L50.4,202.1L50.4,202.1z"/>
		<path class="st1" d="M50.4,202.1c-14.2-8-26.2-19.5-34.8-33.3l82.8-51.7L50.4,202.1L50.4,202.1z"/>
		<path class="st4" d="M15.6,168.8C-10.1,127.7-1.7,73.9,35.3,42.6l63,74.5L15.6,168.8L15.6,168.8z"/>
		<path class="st1" d="M15.6,168.8C-10.1,127.7-1.7,73.9,35.3,42.6l63,74.5L15.6,168.8L15.6,168.8z"/>
		<path class="st5" d="M35.3,42.6c17.6-14.9,40-23.1,63-23.1v97.6L35.3,42.6L35.3,42.6z"/>
		<path class="st1" d="M35.3,42.6c17.6-14.9,40-23.1,63-23.1v97.6L35.3,42.6L35.3,42.6z"/>
	</g>
	<g>
		<path class="st6" d="M11.9,12l4.7-11.7h0L21.3,12h-0.4L16.5,0.8l0.2,0L12.3,12H11.9z M13.9,7.5h5.5l0,0.3h-5.6L13.9,7.5z"/>
		<path class="st6" d="M25.7,12.3L22.9,6h0.4l2.7,6h-0.2l2.7-6h0.3L25.7,12.3L25.7,12.3z"/>
		<path class="st6" d="M33.2,12.1c-0.6,0-1.1-0.1-1.6-0.4s-0.9-0.7-1.1-1.1c-0.3-0.5-0.4-1-0.4-1.6c0-0.6,0.1-1.1,0.4-1.6
			c0.3-0.5,0.7-0.9,1.1-1.1c0.5-0.3,1-0.4,1.6-0.4c0.7,0,1.2,0.2,1.7,0.6c0.5,0.4,0.8,0.9,1,1.5l-5.5,2.2l-0.1-0.3l5.3-2.1l-0.1,0.2
			c-0.2-0.5-0.5-0.9-1-1.2c-0.4-0.3-0.9-0.5-1.5-0.5c-0.5,0-1,0.1-1.4,0.4c-0.4,0.3-0.8,0.6-1,1C30.5,8,30.4,8.5,30.4,9
			c0,0.5,0.1,1,0.4,1.4c0.2,0.4,0.6,0.8,1,1.1s0.9,0.4,1.5,0.4c0.4,0,0.7-0.1,1.1-0.2s0.6-0.3,0.9-0.6l0.2,0.2
			c-0.3,0.2-0.6,0.4-1,0.6C34,12.1,33.6,12.1,33.2,12.1z"/>
		<path class="st6" d="M38.5,6l0,1.9l0-0.2c0.1-0.4,0.3-0.7,0.6-1c0.3-0.3,0.6-0.5,1-0.6c0.4-0.1,0.7-0.2,1.1-0.2l0,0.3
			c-0.5,0-0.9,0.1-1.3,0.3c-0.4,0.2-0.7,0.5-0.9,0.8c-0.2,0.4-0.4,0.8-0.4,1.2V12h-0.3V6H38.5z"/>
		<path class="st6" d="M45.8,12.1c-0.6,0-1.1-0.1-1.6-0.4c-0.5-0.3-0.8-0.7-1.1-1.1c-0.3-0.5-0.4-1-0.4-1.6c0-0.7,0.1-1.2,0.4-1.7
			s0.7-0.8,1.1-1.1c0.5-0.2,1-0.4,1.6-0.4c0.6,0,1.2,0.2,1.7,0.5c0.5,0.4,0.9,0.8,1.1,1.4l0,0.2l0.1-2H49v6h-0.3V10l0,0.2
			c-0.1,0.3-0.3,0.5-0.4,0.8c-0.2,0.2-0.4,0.4-0.7,0.6c-0.3,0.2-0.5,0.3-0.8,0.4C46.5,12.1,46.2,12.1,45.8,12.1z M45.8,11.9
			c0.5,0,1-0.1,1.4-0.4c0.4-0.2,0.8-0.6,1-1c0.3-0.4,0.4-0.9,0.4-1.4V8.5c-0.1-0.4-0.3-0.8-0.5-1.2s-0.6-0.6-1-0.8
			c-0.4-0.2-0.8-0.3-1.3-0.3c-0.5,0-1,0.1-1.4,0.4c-0.4,0.2-0.8,0.6-1,1C43.1,7.9,43,8.4,43,9c0,0.5,0.1,1,0.4,1.4
			c0.3,0.4,0.6,0.8,1,1S45.3,11.9,45.8,11.9z"/>
		<path class="st6" d="M54.5,14.9c-0.3,0-0.5,0-0.8-0.1s-0.6-0.2-0.9-0.4c-0.3-0.2-0.6-0.4-1-0.8l0.2-0.2c0.5,0.5,1,0.8,1.4,1
			s0.8,0.2,1.1,0.2c0.7,0,1.3-0.1,1.7-0.3c0.4-0.2,0.7-0.5,0.9-0.9c0.2-0.4,0.3-0.8,0.3-1.3l0-2.2l0.1,0.1c-0.2,0.6-0.6,1.1-1.2,1.5
			s-1.2,0.6-1.8,0.6c-0.6,0-1.1-0.1-1.6-0.4c-0.5-0.3-0.8-0.7-1.1-1.1c-0.3-0.5-0.4-1-0.4-1.6c0-0.6,0.1-1.2,0.4-1.6
			c0.3-0.5,0.7-0.8,1.1-1.1c0.5-0.3,1-0.4,1.6-0.4c0.6,0,1.2,0.2,1.7,0.5c0.5,0.4,0.9,0.8,1.1,1.4l0,0.2l0.1-2h0.2v6.2
			c0,0.5-0.1,0.9-0.3,1.3c-0.2,0.4-0.5,0.8-1,1C56,14.8,55.4,14.9,54.5,14.9z M51.7,9c0,0.5,0.1,1,0.4,1.4c0.3,0.4,0.6,0.8,1,1
			s0.9,0.4,1.4,0.4c0.5,0,1-0.1,1.4-0.4c0.4-0.3,0.8-0.6,1-1c0.3-0.4,0.4-0.8,0.4-1.3V8.5c-0.1-0.4-0.3-0.9-0.5-1.2
			c-0.3-0.4-0.6-0.6-1-0.8S55,6.1,54.5,6.1c-0.5,0-1,0.1-1.4,0.4c-0.4,0.2-0.8,0.6-1,1C51.8,7.9,51.7,8.4,51.7,9z"/>
		<path class="st6" d="M63.2,12.1c-0.6,0-1.1-0.1-1.6-0.4s-0.9-0.7-1.1-1.1C60.2,10.1,60,9.6,60,9c0-0.6,0.1-1.1,0.4-1.6
			c0.3-0.5,0.7-0.9,1.1-1.1c0.5-0.3,1-0.4,1.6-0.4c0.7,0,1.2,0.2,1.7,0.6c0.5,0.4,0.8,0.9,1,1.5l-5.5,2.2l-0.1-0.3l5.3-2.1l-0.1,0.2
			c-0.2-0.5-0.5-0.9-1-1.2c-0.4-0.3-0.9-0.5-1.5-0.5c-0.5,0-1,0.1-1.4,0.4c-0.4,0.3-0.8,0.6-1,1C60.5,8,60.3,8.5,60.3,9
			c0,0.5,0.1,1,0.4,1.4c0.2,0.4,0.6,0.8,1,1.1s0.9,0.4,1.5,0.4c0.4,0,0.7-0.1,1.1-0.2s0.6-0.3,0.9-0.6l0.2,0.2
			c-0.3,0.2-0.6,0.4-1,0.6C64,12.1,63.6,12.1,63.2,12.1z"/>
		<path class="st6" d="M75.5,12.1c-0.6,0-1.1-0.1-1.6-0.4c-0.5-0.3-0.9-0.7-1.1-1.1c-0.3-0.5-0.4-1-0.4-1.6c0-0.6,0.1-1.2,0.4-1.6
			c0.3-0.5,0.7-0.8,1.1-1.1c0.5-0.3,1-0.4,1.6-0.4c0.6,0,1.2,0.2,1.8,0.6s0.9,0.9,1.2,1.4L78.4,8V0h0.3v12h-0.3V10l0,0.3
			c-0.2,0.6-0.6,1-1.1,1.4S76.2,12.1,75.5,12.1z M75.6,11.9c0.5,0,1-0.1,1.4-0.4c0.4-0.2,0.8-0.6,1-1s0.4-0.9,0.4-1.4V8.6
			c-0.1-0.4-0.2-0.9-0.5-1.2c-0.3-0.4-0.6-0.7-1-0.9c-0.4-0.2-0.8-0.3-1.3-0.3c-0.5,0-1,0.1-1.4,0.4c-0.4,0.2-0.8,0.6-1,1
			c-0.3,0.4-0.4,0.9-0.4,1.5c0,0.5,0.1,1,0.4,1.4c0.3,0.4,0.6,0.8,1,1S75,11.9,75.6,11.9z"/>
		<path class="st6" d="M84.2,12.1c-0.6,0-1.1-0.1-1.6-0.4s-0.9-0.7-1.1-1.1c-0.3-0.5-0.4-1-0.4-1.6c0-0.6,0.1-1.1,0.4-1.6
			c0.3-0.5,0.7-0.9,1.1-1.1c0.5-0.3,1-0.4,1.6-0.4c0.7,0,1.2,0.2,1.7,0.6c0.5,0.4,0.8,0.9,1,1.5l-5.5,2.2l-0.1-0.3l5.3-2.1l-0.1,0.2
			c-0.2-0.5-0.5-0.9-1-1.2c-0.4-0.3-0.9-0.5-1.5-0.5c-0.5,0-1,0.1-1.4,0.4c-0.4,0.3-0.8,0.6-1,1C81.5,8,81.4,8.5,81.4,9
			c0,0.5,0.1,1,0.4,1.4c0.2,0.4,0.6,0.8,1,1.1s0.9,0.4,1.5,0.4c0.4,0,0.7-0.1,1.1-0.2s0.6-0.3,0.9-0.6l0.2,0.2
			c-0.3,0.2-0.6,0.4-1,0.6C85,12.1,84.6,12.1,84.2,12.1z"/>
		<path class="st6" d="M89.2,0h0.3v12h-0.3V0z"/>
		<path class="st6" d="M95.1,12.1c-0.6,0-1.1-0.1-1.6-0.4c-0.5-0.3-0.8-0.7-1.1-1.1C92.1,10.1,92,9.6,92,9c0-0.7,0.1-1.2,0.4-1.7
			s0.7-0.8,1.1-1.1c0.5-0.2,1-0.4,1.6-0.4c0.6,0,1.2,0.2,1.7,0.5c0.5,0.4,0.9,0.8,1.1,1.4L98,8l0.1-2h0.2v6H98V10l0,0.2
			c-0.1,0.3-0.3,0.5-0.4,0.8c-0.2,0.2-0.4,0.4-0.7,0.6c-0.3,0.2-0.5,0.3-0.8,0.4C95.8,12.1,95.5,12.1,95.1,12.1z M95.2,11.9
			c0.5,0,1-0.1,1.4-0.4c0.4-0.2,0.8-0.6,1-1c0.3-0.4,0.4-0.9,0.4-1.4V8.5c-0.1-0.4-0.3-0.8-0.5-1.2s-0.6-0.6-1-0.8
			c-0.4-0.2-0.8-0.3-1.3-0.3c-0.5,0-1,0.1-1.4,0.4c-0.4,0.2-0.8,0.6-1,1c-0.3,0.4-0.4,0.9-0.4,1.5c0,0.5,0.1,1,0.4,1.4
			c0.3,0.4,0.6,0.8,1,1S94.6,11.9,95.2,11.9z"/>
		<path class="st6" d="M103.2,12.1L100.4,6h0.3l2.7,5.9L103.2,12.1z M101.9,14.9l3.9-8.9h0.4l-3.9,8.9H101.9z"/>
		<path class="st6" d="M117.4,11.4c-0.3,0.2-0.6,0.4-0.9,0.5s-0.7,0.2-1.1,0.2c-0.6,0-1.1-0.1-1.6-0.4s-0.9-0.7-1.1-1.1
			c-0.3-0.5-0.4-1-0.4-1.6c0-0.6,0.1-1.1,0.4-1.6c0.3-0.5,0.7-0.9,1.1-1.1s1-0.4,1.6-0.4c0.4,0,0.7,0.1,1.1,0.2
			c0.3,0.1,0.6,0.3,0.9,0.5l-0.2,0.2c-0.2-0.2-0.5-0.3-0.8-0.5c-0.3-0.1-0.6-0.2-1-0.2c-0.5,0-1,0.1-1.4,0.4c-0.4,0.3-0.8,0.6-1,1
			c-0.3,0.4-0.4,0.9-0.4,1.4c0,0.5,0.1,1,0.4,1.4c0.3,0.4,0.6,0.8,1,1s0.9,0.4,1.4,0.4c0.3,0,0.7-0.1,1-0.2c0.3-0.1,0.6-0.3,0.8-0.5
			L117.4,11.4z"/>
		<path class="st6" d="M118.9,9c0-0.6,0.1-1.1,0.4-1.6c0.3-0.5,0.7-0.9,1.1-1.1c0.5-0.3,1-0.4,1.6-0.4c0.6,0,1.1,0.1,1.6,0.4
			c0.5,0.3,0.9,0.7,1.1,1.1s0.4,1,0.4,1.6c0,0.6-0.1,1.1-0.4,1.6c-0.3,0.5-0.7,0.9-1.1,1.1s-1,0.4-1.6,0.4c-0.6,0-1.1-0.1-1.6-0.4
			s-0.9-0.6-1.1-1.1C119.1,10.1,118.9,9.6,118.9,9z M119.3,9c0,0.5,0.1,1,0.4,1.4c0.3,0.4,0.6,0.8,1,1s0.9,0.4,1.4,0.4
			c0.5,0,1-0.1,1.4-0.4s0.8-0.6,1-1c0.3-0.4,0.4-0.9,0.4-1.4c0-0.5-0.1-1-0.4-1.4c-0.3-0.4-0.6-0.8-1-1c-0.4-0.3-0.9-0.4-1.4-0.4
			c-0.5,0-1,0.1-1.5,0.4c-0.4,0.3-0.8,0.6-1,1.1C119.4,8.1,119.3,8.5,119.3,9z"/>
		<path class="st6" d="M127.9,6l0,1.9l-0.1-0.2c0.2-0.6,0.5-1,1-1.3c0.5-0.3,1-0.5,1.6-0.5c0.3,0,0.6,0.1,0.9,0.2s0.5,0.3,0.7,0.6
			c0.2,0.2,0.3,0.5,0.3,0.8l-0.1,0.1c0.2-0.6,0.5-1,1-1.3s1-0.4,1.6-0.4c0.6,0,1,0.2,1.4,0.5c0.3,0.3,0.5,0.7,0.5,1.2V12h-0.3V7.6
			c0-0.4-0.1-0.7-0.4-1s-0.7-0.4-1.2-0.5c-0.4,0-0.8,0.1-1.2,0.3c-0.4,0.2-0.7,0.5-0.9,0.8s-0.4,0.7-0.4,1.2V12h-0.3V7.6
			c0-0.4-0.2-0.7-0.4-1c-0.3-0.3-0.7-0.4-1.2-0.5c-0.4,0-0.9,0.1-1.3,0.3c-0.4,0.2-0.7,0.5-0.9,0.8c-0.2,0.4-0.4,0.8-0.4,1.2V12
			h-0.3V6H127.9z"/>
		<path class="st6" d="M143.1,12.1c-0.7,0-1.3-0.2-1.8-0.5c-0.5-0.4-0.9-0.8-1.1-1.4l0-0.4v5.1h-0.3V6h0.3l0,2.3l0-0.5
			c0.2-0.6,0.6-1,1.1-1.4c0.5-0.4,1.1-0.5,1.8-0.5c0.6,0,1.1,0.1,1.6,0.4s0.8,0.7,1.1,1.1s0.4,1,0.4,1.6c0,0.6-0.1,1.1-0.4,1.6
			c-0.3,0.5-0.7,0.8-1.1,1.1C144.2,12,143.7,12.1,143.1,12.1z M143.1,11.9c0.5,0,1-0.1,1.4-0.4c0.4-0.3,0.8-0.6,1-1
			c0.3-0.4,0.4-0.9,0.4-1.4c0-0.5-0.1-1-0.4-1.5c-0.3-0.4-0.6-0.8-1-1c-0.4-0.3-0.9-0.4-1.4-0.4s-1,0.1-1.4,0.4
			c-0.4,0.3-0.8,0.6-1,1c-0.3,0.4-0.4,0.9-0.4,1.4v0.2c0,0.5,0.1,1,0.4,1.4s0.6,0.7,1,1C142.1,11.7,142.6,11.9,143.1,11.9z"/>
		<path class="st6" d="M151.1,12.1c-0.6,0-1.1-0.1-1.6-0.4c-0.5-0.3-0.8-0.7-1.1-1.1c-0.3-0.5-0.4-1-0.4-1.6c0-0.7,0.1-1.2,0.4-1.7
			s0.7-0.8,1.1-1.1c0.5-0.2,1-0.4,1.6-0.4c0.6,0,1.2,0.2,1.7,0.5c0.5,0.4,0.9,0.8,1.1,1.4l0,0.2l0.1-2h0.2v6H154V10l0,0.2
			c-0.1,0.3-0.3,0.5-0.4,0.8c-0.2,0.2-0.4,0.4-0.7,0.6c-0.3,0.2-0.5,0.3-0.8,0.4C151.8,12.1,151.4,12.1,151.1,12.1z M151.1,11.9
			c0.5,0,1-0.1,1.4-0.4c0.4-0.2,0.8-0.6,1-1c0.3-0.4,0.4-0.9,0.4-1.4V8.5c-0.1-0.4-0.3-0.8-0.5-1.2s-0.6-0.6-1-0.8
			c-0.4-0.2-0.8-0.3-1.3-0.3c-0.5,0-1,0.1-1.4,0.4c-0.4,0.2-0.8,0.6-1,1c-0.3,0.4-0.4,0.9-0.4,1.5c0,0.5,0.1,1,0.4,1.4
			c0.3,0.4,0.6,0.8,1,1S150.6,11.9,151.1,11.9z"/>
		<path class="st6" d="M157.5,6l0,1.9l0-0.2c0.1-0.4,0.3-0.7,0.6-1c0.3-0.3,0.6-0.5,1-0.6c0.4-0.1,0.7-0.2,1.1-0.2l0,0.3
			c-0.5,0-0.9,0.1-1.3,0.3c-0.4,0.2-0.7,0.5-0.9,0.8c-0.2,0.4-0.4,0.8-0.4,1.2V12h-0.3V6H157.5z"/>
		<path class="st6" d="M162.2,4.1c0-0.1,0-0.2,0.1-0.2c0.1-0.1,0.2-0.1,0.3-0.1c0.1,0,0.2,0,0.2,0.1c0.1,0.1,0.1,0.2,0.1,0.2
			c0,0.1,0,0.2-0.1,0.2c-0.1,0.1-0.2,0.1-0.2,0.1c-0.1,0-0.2,0-0.3-0.1C162.3,4.3,162.2,4.2,162.2,4.1z M162.4,6h0.3v6h-0.3V6z"/>
		<path class="st6" d="M167.1,12.2c-0.3,0-0.6-0.1-1-0.2c-0.4-0.1-0.7-0.3-0.9-0.6l0.2-0.2c0.2,0.2,0.4,0.4,0.7,0.5
			c0.3,0.1,0.6,0.2,1,0.2c0.3,0,0.5,0,0.7-0.1c0.2-0.1,0.4-0.2,0.6-0.4s0.2-0.5,0.2-0.8c0-0.3-0.1-0.6-0.3-0.8
			c-0.2-0.2-0.4-0.3-0.6-0.4c-0.3-0.1-0.5-0.2-0.8-0.3c-0.4-0.1-0.7-0.3-1-0.5c-0.3-0.2-0.4-0.6-0.4-1c0-0.3,0.1-0.6,0.2-0.8
			s0.4-0.4,0.6-0.5c0.3-0.1,0.5-0.2,0.8-0.2c0.2,0,0.5,0.1,0.8,0.2c0.3,0.1,0.6,0.3,0.8,0.5l-0.2,0.2c-0.2-0.2-0.4-0.4-0.7-0.5
			c-0.3-0.1-0.5-0.1-0.8-0.1c-0.2,0-0.4,0-0.6,0.1c-0.2,0.1-0.4,0.2-0.5,0.4c-0.1,0.2-0.2,0.4-0.2,0.7c0,0.3,0.1,0.5,0.2,0.6
			c0.1,0.2,0.3,0.3,0.5,0.4c0.2,0.1,0.4,0.2,0.7,0.3c0.3,0.1,0.6,0.2,0.9,0.3c0.3,0.1,0.5,0.3,0.7,0.5c0.2,0.2,0.3,0.5,0.3,0.9
			c0,0.4-0.1,0.7-0.2,0.9c-0.1,0.3-0.4,0.5-0.6,0.6C167.8,12.1,167.5,12.2,167.1,12.2z"/>
		<path class="st6" d="M170.7,9c0-0.6,0.1-1.1,0.4-1.6c0.3-0.5,0.7-0.9,1.1-1.1c0.5-0.3,1-0.4,1.6-0.4c0.6,0,1.1,0.1,1.6,0.4
			c0.5,0.3,0.9,0.7,1.1,1.1c0.3,0.5,0.4,1,0.4,1.6c0,0.6-0.1,1.1-0.4,1.6c-0.3,0.5-0.7,0.9-1.1,1.1c-0.5,0.3-1,0.4-1.6,0.4
			c-0.6,0-1.1-0.1-1.6-0.4s-0.9-0.6-1.1-1.1C170.9,10.1,170.7,9.6,170.7,9z M171,9c0,0.5,0.1,1,0.4,1.4c0.3,0.4,0.6,0.8,1,1
			s0.9,0.4,1.4,0.4s1-0.1,1.4-0.4c0.4-0.3,0.8-0.6,1-1c0.3-0.4,0.4-0.9,0.4-1.4c0-0.5-0.1-1-0.4-1.4c-0.3-0.4-0.6-0.8-1-1
			c-0.4-0.3-0.9-0.4-1.4-0.4c-0.5,0-1,0.1-1.5,0.4s-0.8,0.6-1,1.1C171.2,8.1,171,8.5,171,9z"/>
		<path class="st6" d="M179.7,6l0.1,2l0-0.2c0.2-0.6,0.5-1,1-1.4s1-0.5,1.7-0.5c0.6,0,1,0.2,1.4,0.5c0.3,0.3,0.5,0.8,0.5,1.3V12
			h-0.3V7.7c0-0.4-0.2-0.8-0.4-1.1c-0.3-0.3-0.7-0.5-1.2-0.5c-0.4,0-0.9,0.1-1.3,0.3s-0.7,0.5-0.9,0.8c-0.2,0.4-0.4,0.8-0.4,1.3V12
			h-0.3V6H179.7z"/>
	</g>
</g>
<g>
	<rect x="225.6" y="54" class="st7" width="180.3" height="105"/>
	<g>
		<polygon class="st2" points="240.7,102.8 247.2,102.8 247.2,109.3 240.7,109.3 240.7,102.8 		"/>
		<g>
			<path class="st6" d="M259.7,100.6c0.3,0,0.6,0,0.9,0.1c0.3,0.1,0.6,0.2,0.9,0.4c0.3,0.2,0.5,0.5,0.7,0.8c0.2,0.3,0.3,0.7,0.3,1.2
				c0,0.4-0.1,0.7-0.2,1c-0.1,0.3-0.3,0.6-0.5,0.9c-0.2,0.3-0.5,0.5-0.9,0.6c-0.4,0.2-0.9,0.2-1.4,0.2H258v4.4h-0.3v-9.8H259.7z
				 M259.5,105.7c0.6,0,1-0.1,1.4-0.2s0.6-0.3,0.8-0.6c0.2-0.2,0.4-0.5,0.4-0.8c0.1-0.3,0.1-0.6,0.1-0.9c0-0.3-0.1-0.7-0.2-1
				c-0.1-0.3-0.3-0.5-0.6-0.8s-0.5-0.4-0.8-0.5c-0.3-0.1-0.6-0.2-1-0.2H258v4.9H259.5z M260.8,105.7l2.8,4.7h-0.3l-2.8-4.7H260.8z"
				/>
			<path class="st6" d="M265.4,107.7c0-0.5,0.1-1,0.4-1.4c0.2-0.4,0.6-0.8,1-1c0.4-0.2,0.9-0.4,1.4-0.4c0.5,0,1,0.1,1.4,0.4
				s0.8,0.6,1,1c0.2,0.4,0.4,0.9,0.4,1.4c0,0.5-0.1,1-0.4,1.4c-0.2,0.4-0.6,0.7-1,1c-0.4,0.2-0.9,0.4-1.4,0.4c-0.5,0-1-0.1-1.4-0.4
				c-0.4-0.2-0.7-0.6-1-1C265.5,108.7,265.4,108.3,265.4,107.7z M265.7,107.7c0,0.5,0.1,0.9,0.3,1.3c0.2,0.4,0.5,0.7,0.9,0.9
				c0.4,0.2,0.8,0.3,1.3,0.3c0.5,0,0.9-0.1,1.2-0.3c0.4-0.2,0.7-0.5,0.9-0.9c0.2-0.4,0.3-0.8,0.3-1.3c0-0.5-0.1-0.9-0.3-1.3
				c-0.2-0.4-0.5-0.7-0.9-0.9c-0.4-0.2-0.8-0.3-1.2-0.3c-0.5,0-0.9,0.1-1.3,0.4c-0.4,0.2-0.7,0.6-0.9,0.9S265.7,107.3,265.7,107.7z"
				/>
			<path class="st6" d="M275.2,110.5c-0.5,0-1-0.1-1.4-0.4c-0.4-0.2-0.7-0.6-1-1c-0.2-0.4-0.4-0.9-0.4-1.4c0-0.6,0.1-1.1,0.4-1.5
				c0.3-0.4,0.6-0.7,1-0.9c0.4-0.2,0.9-0.3,1.4-0.3c0.6,0,1.1,0.2,1.5,0.5c0.5,0.3,0.8,0.7,1,1.2l0,0.2l0.1-1.8h0.2v5.3h-0.3v-1.8
				l0,0.2c-0.1,0.2-0.2,0.5-0.4,0.7c-0.2,0.2-0.4,0.4-0.6,0.5c-0.2,0.2-0.5,0.3-0.7,0.4S275.5,110.5,275.2,110.5z M275.2,110.2
				c0.5,0,0.9-0.1,1.2-0.3c0.4-0.2,0.7-0.5,0.9-0.8c0.2-0.4,0.3-0.8,0.4-1.2v-0.6c-0.1-0.4-0.2-0.7-0.5-1c-0.2-0.3-0.5-0.6-0.9-0.7
				c-0.3-0.2-0.7-0.3-1.1-0.3c-0.5,0-0.9,0.1-1.3,0.3c-0.4,0.2-0.7,0.5-0.9,0.9c-0.2,0.4-0.3,0.8-0.3,1.3c0,0.5,0.1,0.9,0.3,1.3
				c0.2,0.4,0.5,0.7,0.9,0.9C274.3,110.1,274.8,110.2,275.2,110.2z"/>
			<path class="st6" d="M282.8,110.5c-0.5,0-1-0.1-1.4-0.4c-0.4-0.2-0.7-0.6-1-1c-0.2-0.4-0.4-0.9-0.4-1.4c0-0.6,0.1-1,0.4-1.4
				c0.2-0.4,0.6-0.7,1-1c0.4-0.2,0.9-0.3,1.4-0.3c0.6,0,1.1,0.2,1.5,0.5c0.5,0.3,0.8,0.7,1,1.2l-0.1,0.2v-7h0.3v10.5h-0.3v-1.8
				l0,0.2c-0.2,0.5-0.5,0.9-1,1.2S283.4,110.5,282.8,110.5z M282.8,110.2c0.5,0,0.9-0.1,1.3-0.3s0.7-0.5,0.9-0.9
				c0.2-0.4,0.3-0.8,0.3-1.2v-0.5c-0.1-0.4-0.2-0.7-0.5-1.1c-0.2-0.3-0.5-0.6-0.9-0.8c-0.4-0.2-0.7-0.3-1.1-0.3
				c-0.5,0-0.9,0.1-1.3,0.3c-0.4,0.2-0.7,0.5-0.9,0.9c-0.2,0.4-0.3,0.8-0.3,1.3c0,0.5,0.1,0.9,0.3,1.3c0.2,0.4,0.5,0.7,0.9,0.9
				C281.9,110.1,282.4,110.2,282.8,110.2z"/>
			<path class="st6" d="M296.4,109.9c-0.2,0.2-0.5,0.3-0.8,0.4s-0.6,0.2-0.9,0.2c-0.5,0-1-0.1-1.4-0.4c-0.4-0.2-0.7-0.6-1-1
				c-0.2-0.4-0.4-0.9-0.4-1.4c0-0.5,0.1-1,0.4-1.4c0.2-0.4,0.6-0.7,1-1c0.4-0.2,0.9-0.4,1.4-0.4c0.3,0,0.7,0.1,1,0.2
				c0.3,0.1,0.6,0.3,0.8,0.5l-0.2,0.2c-0.2-0.2-0.5-0.3-0.7-0.4c-0.3-0.1-0.6-0.2-0.9-0.2c-0.5,0-0.9,0.1-1.3,0.3
				c-0.4,0.2-0.7,0.5-0.9,0.9c-0.2,0.4-0.3,0.8-0.3,1.3c0,0.5,0.1,0.9,0.3,1.3c0.2,0.4,0.5,0.7,0.9,0.9c0.4,0.2,0.8,0.3,1.3,0.3
				c0.3,0,0.6,0,0.8-0.1c0.3-0.1,0.5-0.2,0.7-0.4L296.4,109.9z"/>
			<path class="st6" d="M297.8,107.7c0-0.5,0.1-1,0.4-1.4c0.2-0.4,0.6-0.8,1-1c0.4-0.2,0.9-0.4,1.4-0.4c0.5,0,1,0.1,1.4,0.4
				s0.8,0.6,1,1c0.2,0.4,0.4,0.9,0.4,1.4c0,0.5-0.1,1-0.4,1.4c-0.2,0.4-0.6,0.7-1,1c-0.4,0.2-0.9,0.4-1.4,0.4c-0.5,0-1-0.1-1.4-0.4
				c-0.4-0.2-0.7-0.6-1-1C297.9,108.7,297.8,108.3,297.8,107.7z M298,107.7c0,0.5,0.1,0.9,0.3,1.3c0.2,0.4,0.5,0.7,0.9,0.9
				c0.4,0.2,0.8,0.3,1.3,0.3c0.5,0,0.9-0.1,1.2-0.3c0.4-0.2,0.7-0.5,0.9-0.9c0.2-0.4,0.3-0.8,0.3-1.3c0-0.5-0.1-0.9-0.3-1.3
				c-0.2-0.4-0.5-0.7-0.9-0.9c-0.4-0.2-0.8-0.3-1.2-0.3c-0.5,0-0.9,0.1-1.3,0.4c-0.4,0.2-0.7,0.6-0.9,0.9S298,107.3,298,107.7z"/>
			<path class="st6" d="M305.6,105.1l0.1,1.7l0-0.2c0.1-0.5,0.4-0.9,0.9-1.2c0.4-0.3,0.9-0.4,1.4-0.4c0.5,0,0.9,0.1,1.2,0.4
				s0.4,0.7,0.5,1.1v3.8h-0.3v-3.8c0-0.4-0.1-0.7-0.4-0.9c-0.2-0.3-0.6-0.4-1-0.4c-0.4,0-0.8,0.1-1.1,0.3c-0.3,0.2-0.6,0.4-0.8,0.7
				s-0.3,0.7-0.3,1.1v3.1h-0.3v-5.3H305.6z"/>
			<path class="st6" d="M314.3,110.5c-0.5,0-1-0.1-1.4-0.4c-0.4-0.2-0.7-0.6-1-1c-0.2-0.4-0.4-0.9-0.4-1.4c0-0.6,0.1-1,0.4-1.4
				c0.2-0.4,0.6-0.7,1-1c0.4-0.2,0.9-0.3,1.4-0.3c0.6,0,1.1,0.2,1.5,0.5c0.5,0.3,0.8,0.7,1,1.2l-0.1,0.2v-7h0.3v10.5h-0.3v-1.8
				l0,0.2c-0.2,0.5-0.5,0.9-1,1.2S314.9,110.5,314.3,110.5z M314.4,110.2c0.5,0,0.9-0.1,1.3-0.3s0.7-0.5,0.9-0.9
				c0.2-0.4,0.3-0.8,0.3-1.2v-0.5c-0.1-0.4-0.2-0.7-0.5-1.1c-0.2-0.3-0.5-0.6-0.9-0.8s-0.7-0.3-1.1-0.3c-0.5,0-0.9,0.1-1.3,0.3
				s-0.7,0.5-0.9,0.9c-0.2,0.4-0.3,0.8-0.3,1.3c0,0.5,0.1,0.9,0.3,1.3c0.2,0.4,0.5,0.7,0.9,0.9C313.5,110.1,313.9,110.2,314.4,110.2
				z"/>
			<path class="st6" d="M319.7,103.4c0-0.1,0-0.2,0.1-0.2c0.1-0.1,0.1-0.1,0.2-0.1c0.1,0,0.2,0,0.2,0.1c0.1,0.1,0.1,0.1,0.1,0.2
				s0,0.2-0.1,0.2c-0.1,0.1-0.1,0.1-0.2,0.1c-0.1,0-0.2,0-0.2-0.1C319.7,103.6,319.7,103.5,319.7,103.4z M319.9,105.1h0.3v5.3h-0.3
				V105.1z"/>
			<path class="st6" d="M323.3,102.8h0.3v2.4h1.8v0.2h-1.8v4.9h-0.3v-4.9h-1.2v-0.2h1.2V102.8z"/>
			<path class="st6" d="M326.9,103.4c0-0.1,0-0.2,0.1-0.2c0.1-0.1,0.1-0.1,0.2-0.1c0.1,0,0.2,0,0.2,0.1c0.1,0.1,0.1,0.1,0.1,0.2
				s0,0.2-0.1,0.2c-0.1,0.1-0.1,0.1-0.2,0.1c-0.1,0-0.2,0-0.2-0.1C326.9,103.6,326.9,103.5,326.9,103.4z M327.1,105.1h0.3v5.3h-0.3
				V105.1z"/>
			<path class="st6" d="M329.4,107.7c0-0.5,0.1-1,0.4-1.4s0.6-0.8,1-1s0.9-0.4,1.4-0.4c0.5,0,1,0.1,1.4,0.4s0.8,0.6,1,1
				s0.4,0.9,0.4,1.4c0,0.5-0.1,1-0.4,1.4c-0.2,0.4-0.6,0.7-1,1c-0.4,0.2-0.9,0.4-1.4,0.4c-0.5,0-1-0.1-1.4-0.4c-0.4-0.2-0.7-0.6-1-1
				C329.5,108.7,329.4,108.3,329.4,107.7z M329.6,107.7c0,0.5,0.1,0.9,0.3,1.3c0.2,0.4,0.5,0.7,0.9,0.9c0.4,0.2,0.8,0.3,1.3,0.3
				s0.9-0.1,1.2-0.3c0.4-0.2,0.7-0.5,0.9-0.9c0.2-0.4,0.3-0.8,0.3-1.3c0-0.5-0.1-0.9-0.3-1.3c-0.2-0.4-0.5-0.7-0.9-0.9
				c-0.4-0.2-0.8-0.3-1.2-0.3c-0.5,0-0.9,0.1-1.3,0.4c-0.4,0.2-0.7,0.6-0.9,0.9C329.8,106.9,329.6,107.3,329.6,107.7z"/>
			<path class="st6" d="M337.2,105.1l0.1,1.7l0-0.2c0.1-0.5,0.4-0.9,0.9-1.2s0.9-0.4,1.4-0.4c0.5,0,0.9,0.1,1.2,0.4s0.4,0.7,0.5,1.1
				v3.8h-0.3v-3.8c0-0.4-0.1-0.7-0.4-0.9c-0.2-0.3-0.6-0.4-1-0.4c-0.4,0-0.8,0.1-1.1,0.3c-0.3,0.2-0.6,0.4-0.8,0.7s-0.3,0.7-0.3,1.1
				v3.1H337v-5.3H337.2z"/>
			<path class="st6" d="M344.9,110.5c-0.3,0-0.5,0-0.9-0.1c-0.3-0.1-0.6-0.3-0.8-0.5l0.2-0.2c0.1,0.2,0.3,0.3,0.6,0.4
				c0.3,0.1,0.5,0.2,0.9,0.2c0.2,0,0.4,0,0.7-0.1c0.2-0.1,0.4-0.2,0.5-0.4c0.1-0.2,0.2-0.4,0.2-0.7c0-0.3-0.1-0.5-0.2-0.7
				c-0.1-0.2-0.3-0.3-0.6-0.4c-0.2-0.1-0.5-0.2-0.7-0.3c-0.3-0.1-0.6-0.3-0.9-0.5c-0.3-0.2-0.4-0.5-0.4-0.9c0-0.3,0.1-0.5,0.2-0.7
				c0.1-0.2,0.3-0.3,0.5-0.4s0.5-0.2,0.7-0.2c0.2,0,0.5,0,0.7,0.1c0.3,0.1,0.5,0.3,0.7,0.5l-0.2,0.2c-0.2-0.2-0.4-0.3-0.6-0.4
				s-0.5-0.1-0.7-0.1c-0.2,0-0.3,0-0.5,0.1c-0.2,0.1-0.3,0.2-0.5,0.3c-0.1,0.2-0.2,0.4-0.2,0.6c0,0.2,0.1,0.4,0.2,0.6
				c0.1,0.1,0.3,0.3,0.4,0.4c0.2,0.1,0.4,0.2,0.6,0.2c0.3,0.1,0.5,0.2,0.8,0.3c0.3,0.1,0.5,0.2,0.6,0.4c0.2,0.2,0.2,0.4,0.2,0.7
				c0,0.3-0.1,0.6-0.2,0.8s-0.3,0.4-0.6,0.5C345.5,110.4,345.2,110.5,344.9,110.5z"/>
		</g>
	</g>
	<g>
		<polygon class="st3" points="240.7,141.8 247.2,141.8 247.2,148.3 240.7,148.3 240.7,141.8 		"/>
		<g>
			<path class="st6" d="M256.9,149.4l4.1-10.3h0l4.1,10.3h-0.3l-3.9-9.8l0.2,0l-3.9,9.9H256.9z M258.6,145.5h4.8l0,0.3h-4.9
				L258.6,145.5z"/>
			<path class="st6" d="M267.5,144.1l0,1.7l-0.1-0.1c0.2-0.5,0.5-0.9,0.9-1.2s0.9-0.4,1.4-0.4c0.3,0,0.6,0.1,0.8,0.2
				c0.2,0.1,0.5,0.3,0.6,0.5c0.2,0.2,0.2,0.4,0.3,0.7l-0.1,0.1c0.2-0.5,0.5-0.9,0.9-1.1c0.4-0.3,0.9-0.4,1.4-0.4
				c0.5,0,0.9,0.1,1.2,0.4c0.3,0.3,0.5,0.6,0.5,1v3.9h-0.3v-3.9c0-0.3-0.1-0.6-0.4-0.9c-0.2-0.2-0.6-0.4-1-0.4
				c-0.4,0-0.7,0.1-1.1,0.3c-0.3,0.2-0.6,0.4-0.8,0.7c-0.2,0.3-0.3,0.6-0.3,1v3.2h-0.3v-3.9c0-0.3-0.1-0.6-0.4-0.9
				c-0.2-0.2-0.6-0.4-1-0.4c-0.4,0-0.8,0.1-1.1,0.3c-0.3,0.2-0.6,0.4-0.8,0.7s-0.3,0.7-0.3,1.1v3.1h-0.3v-5.3H267.5z"/>
			<path class="st6" d="M280.7,149.5c-0.6,0-1.1-0.2-1.6-0.5s-0.8-0.8-1-1.2l0.1-0.3v2H278v-10.5h0.3v7l0-0.2c0.2-0.5,0.5-0.9,1-1.2
				c0.5-0.3,1-0.5,1.5-0.5c0.5,0,1,0.1,1.4,0.4c0.4,0.2,0.7,0.6,1,1c0.2,0.4,0.4,0.9,0.4,1.4c0,0.6-0.1,1.1-0.4,1.5
				c-0.3,0.4-0.6,0.7-1,0.9S281.2,149.5,280.7,149.5z M280.7,149.2c0.5,0,1-0.1,1.3-0.3s0.7-0.5,0.9-0.9c0.2-0.4,0.3-0.8,0.3-1.3
				c0-0.4-0.1-0.9-0.3-1.2s-0.5-0.7-0.9-0.9c-0.4-0.2-0.8-0.3-1.3-0.3c-0.4,0-0.8,0.1-1.2,0.3c-0.4,0.2-0.6,0.4-0.9,0.7
				c-0.2,0.3-0.4,0.7-0.4,1.1v0.7c0,0.4,0.1,0.8,0.3,1.1c0.2,0.3,0.5,0.6,0.9,0.8C279.9,149.1,280.3,149.2,280.7,149.2z"/>
			<path class="st6" d="M287.3,149.5c-0.5,0-0.9-0.1-1.2-0.4c-0.3-0.3-0.4-0.7-0.5-1.1v-3.8h0.3v3.8c0,0.4,0.1,0.7,0.4,1
				s0.6,0.4,1,0.4c0.4,0,0.7-0.1,1.1-0.3s0.6-0.4,0.8-0.7s0.3-0.7,0.3-1.1v-3.1h0.3v5.3h-0.2l0-1.6l0,0.1c-0.1,0.3-0.2,0.6-0.5,0.8
				c-0.2,0.2-0.5,0.4-0.8,0.6C288,149.4,287.7,149.5,287.3,149.5z"/>
			<path class="st6" d="M292.4,138.9h0.3v10.5h-0.3V138.9z"/>
			<path class="st6" d="M297.5,149.5c-0.5,0-1-0.1-1.4-0.4c-0.4-0.2-0.7-0.6-1-1c-0.2-0.4-0.4-0.9-0.4-1.4c0-0.6,0.1-1.1,0.4-1.5
				c0.3-0.4,0.6-0.7,1-0.9s0.9-0.3,1.4-0.3c0.5,0,1.1,0.2,1.5,0.5c0.5,0.3,0.8,0.7,1,1.2l0,0.2l0.1-1.8h0.2v5.3H300v-1.8l0,0.2
				c-0.1,0.2-0.2,0.5-0.4,0.7c-0.2,0.2-0.4,0.4-0.6,0.5c-0.2,0.2-0.5,0.3-0.7,0.4S297.8,149.5,297.5,149.5z M297.6,149.2
				c0.5,0,0.9-0.1,1.2-0.3s0.7-0.5,0.9-0.8c0.2-0.4,0.3-0.8,0.3-1.2v-0.6c-0.1-0.4-0.2-0.7-0.5-1c-0.2-0.3-0.5-0.6-0.9-0.7
				c-0.4-0.2-0.7-0.3-1.1-0.3c-0.5,0-0.9,0.1-1.3,0.3c-0.4,0.2-0.7,0.5-0.9,0.9c-0.2,0.4-0.3,0.8-0.3,1.3c0,0.5,0.1,0.9,0.3,1.3
				c0.2,0.4,0.5,0.7,0.9,0.9C296.7,149.1,297.1,149.2,297.6,149.2z"/>
			<path class="st6" d="M303.2,144.1l0.1,1.7l0-0.2c0.1-0.5,0.4-0.9,0.9-1.2s0.9-0.4,1.4-0.4c0.5,0,0.9,0.1,1.2,0.4s0.4,0.7,0.5,1.1
				v3.8h-0.3v-3.8c0-0.4-0.1-0.7-0.4-0.9c-0.2-0.3-0.6-0.4-1-0.4c-0.4,0-0.8,0.1-1.1,0.3c-0.3,0.2-0.6,0.4-0.8,0.7s-0.3,0.7-0.3,1.1
				v3.1H303v-5.3H303.2z"/>
			<path class="st6" d="M313.7,148.9c-0.2,0.2-0.5,0.3-0.8,0.4s-0.6,0.2-0.9,0.2c-0.5,0-1-0.1-1.4-0.4c-0.4-0.2-0.7-0.6-1-1
				c-0.2-0.4-0.4-0.9-0.4-1.4c0-0.5,0.1-1,0.4-1.4s0.6-0.7,1-1c0.4-0.2,0.9-0.4,1.4-0.4c0.3,0,0.7,0.1,1,0.2s0.6,0.3,0.8,0.5
				l-0.2,0.2c-0.2-0.2-0.5-0.3-0.7-0.4s-0.6-0.2-0.9-0.2c-0.5,0-0.9,0.1-1.3,0.3c-0.4,0.2-0.7,0.5-0.9,0.9c-0.2,0.4-0.3,0.8-0.3,1.3
				c0,0.5,0.1,0.9,0.3,1.3c0.2,0.4,0.5,0.7,0.9,0.9c0.4,0.2,0.8,0.3,1.3,0.3c0.3,0,0.6,0,0.8-0.1c0.3-0.1,0.5-0.2,0.7-0.4
				L313.7,148.9z"/>
			<path class="st6" d="M317.8,149.5c-0.5,0-1-0.1-1.4-0.4c-0.4-0.2-0.7-0.6-1-1c-0.2-0.4-0.4-0.9-0.4-1.4c0-0.5,0.1-1,0.4-1.4
				s0.6-0.8,1-1s0.9-0.4,1.4-0.4c0.6,0,1.1,0.2,1.5,0.5s0.7,0.8,0.9,1.3l-4.8,1.9l-0.1-0.2l4.6-1.9l-0.1,0.1
				c-0.2-0.4-0.5-0.8-0.8-1.1s-0.8-0.4-1.3-0.4c-0.5,0-0.9,0.1-1.2,0.3s-0.7,0.5-0.9,0.9c-0.2,0.4-0.3,0.8-0.3,1.3
				c0,0.4,0.1,0.8,0.3,1.2c0.2,0.4,0.5,0.7,0.9,0.9c0.4,0.2,0.8,0.4,1.3,0.4c0.3,0,0.6-0.1,0.9-0.2s0.6-0.3,0.8-0.5l0.2,0.2
				c-0.3,0.2-0.5,0.4-0.9,0.5C318.5,149.4,318.2,149.5,317.8,149.5z"/>
			<path class="st6" d="M328.6,149.5c-0.5,0-1-0.1-1.4-0.4c-0.4-0.2-0.7-0.6-1-1c-0.2-0.4-0.4-0.9-0.4-1.4c0-0.6,0.1-1,0.4-1.4
				c0.2-0.4,0.6-0.7,1-1c0.4-0.2,0.9-0.3,1.4-0.3c0.6,0,1.1,0.2,1.5,0.5c0.5,0.3,0.8,0.7,1,1.2l-0.1,0.2v-7h0.3v10.5h-0.3v-1.8
				l0,0.2c-0.2,0.5-0.5,0.9-1,1.2S329.2,149.5,328.6,149.5z M328.6,149.2c0.5,0,0.9-0.1,1.3-0.3s0.7-0.5,0.9-0.9
				c0.2-0.4,0.3-0.8,0.3-1.2v-0.5c-0.1-0.4-0.2-0.7-0.5-1.1c-0.2-0.3-0.5-0.6-0.9-0.8s-0.7-0.3-1.1-0.3c-0.5,0-0.9,0.1-1.3,0.3
				s-0.7,0.5-0.9,0.9c-0.2,0.4-0.3,0.8-0.3,1.3c0,0.5,0.1,0.9,0.3,1.3c0.2,0.4,0.5,0.7,0.9,0.9C327.8,149.1,328.2,149.2,328.6,149.2
				z"/>
			<path class="st6" d="M334.2,144.1l0,1.7l0-0.2c0.1-0.3,0.3-0.6,0.5-0.9c0.2-0.2,0.5-0.4,0.8-0.5c0.3-0.1,0.6-0.2,1-0.2l0,0.3
				c-0.4,0-0.8,0.1-1.1,0.3c-0.3,0.2-0.6,0.4-0.8,0.7c-0.2,0.3-0.3,0.7-0.3,1.1v3.1H334v-5.3H334.2z"/>
			<path class="st6" d="M338.4,142.4c0-0.1,0-0.2,0.1-0.2c0.1-0.1,0.1-0.1,0.2-0.1c0.1,0,0.2,0,0.2,0.1c0.1,0.1,0.1,0.1,0.1,0.2
				s0,0.2-0.1,0.2c-0.1,0.1-0.1,0.1-0.2,0.1c-0.1,0-0.2,0-0.2-0.1C338.4,142.6,338.4,142.5,338.4,142.4z M338.5,144.1h0.3v5.3h-0.3
				V144.1z"/>
			<path class="st6" d="M343.2,149.6l-2.5-5.5h0.3l2.3,5.2h-0.2l2.3-5.2h0.3L343.2,149.6L343.2,149.6z"/>
			<path class="st6" d="M349.7,149.5c-0.5,0-1-0.1-1.4-0.4c-0.4-0.2-0.7-0.6-1-1c-0.2-0.4-0.4-0.9-0.4-1.4c0-0.5,0.1-1,0.4-1.4
				s0.6-0.8,1-1s0.9-0.4,1.4-0.4c0.6,0,1.1,0.2,1.5,0.5s0.7,0.8,0.9,1.3l-4.8,1.9l-0.1-0.2l4.6-1.9l-0.1,0.1
				c-0.2-0.4-0.5-0.8-0.8-1.1s-0.8-0.4-1.3-0.4c-0.5,0-0.9,0.1-1.2,0.3s-0.7,0.5-0.9,0.9c-0.2,0.4-0.3,0.8-0.3,1.3
				c0,0.4,0.1,0.8,0.3,1.2c0.2,0.4,0.5,0.7,0.9,0.9c0.4,0.2,0.8,0.4,1.3,0.4c0.3,0,0.6-0.1,0.9-0.2s0.6-0.3,0.8-0.5l0.2,0.2
				c-0.3,0.2-0.5,0.4-0.9,0.5C350.4,149.4,350.1,149.5,349.7,149.5z"/>
			<path class="st6" d="M354.3,144.1l0,1.7l0-0.2c0.1-0.3,0.3-0.6,0.5-0.9c0.2-0.2,0.5-0.4,0.8-0.5c0.3-0.1,0.6-0.2,1-0.2l0,0.3
				c-0.4,0-0.8,0.1-1.1,0.3c-0.3,0.2-0.6,0.4-0.8,0.7c-0.2,0.3-0.3,0.7-0.3,1.1v3.1h-0.3v-5.3H354.3z"/>
			<path class="st6" d="M363.9,149.5c-0.3,0-0.5,0-0.9-0.1c-0.3-0.1-0.6-0.3-0.8-0.5l0.2-0.2c0.1,0.2,0.3,0.3,0.6,0.4
				c0.3,0.1,0.5,0.2,0.9,0.2c0.2,0,0.4,0,0.7-0.1c0.2-0.1,0.4-0.2,0.5-0.4c0.1-0.2,0.2-0.4,0.2-0.7c0-0.3-0.1-0.5-0.2-0.7
				c-0.1-0.2-0.3-0.3-0.6-0.4c-0.2-0.1-0.5-0.2-0.7-0.3c-0.3-0.1-0.6-0.3-0.9-0.5c-0.3-0.2-0.4-0.5-0.4-0.9c0-0.3,0.1-0.5,0.2-0.7
				c0.1-0.2,0.3-0.3,0.5-0.4s0.5-0.2,0.7-0.2c0.2,0,0.5,0,0.7,0.1c0.3,0.1,0.5,0.3,0.7,0.5l-0.2,0.2c-0.2-0.2-0.4-0.3-0.6-0.4
				s-0.5-0.1-0.7-0.1c-0.2,0-0.3,0-0.5,0.1c-0.2,0.1-0.3,0.2-0.5,0.3c-0.1,0.2-0.2,0.4-0.2,0.6c0,0.2,0.1,0.4,0.2,0.6
				c0.1,0.1,0.3,0.3,0.4,0.4c0.2,0.1,0.4,0.2,0.6,0.2c0.3,0.1,0.5,0.2,0.8,0.3c0.3,0.1,0.5,0.2,0.6,0.4c0.2,0.2,0.2,0.4,0.2,0.7
				c0,0.3-0.1,0.6-0.2,0.8s-0.3,0.4-0.6,0.5C364.6,149.4,364.3,149.5,363.9,149.5z"/>
			<path class="st6" d="M367.7,149.4v-10.5h0.3v10.5H367.7z M367.8,147.3l0-0.3l3.2-3l0.2,0.2L367.8,147.3z M369.1,146l2.5,3.4h-0.3
				l-2.4-3.2L369.1,146z"/>
			<path class="st6" d="M373.4,142.4c0-0.1,0-0.2,0.1-0.2c0.1-0.1,0.1-0.1,0.2-0.1c0.1,0,0.2,0,0.2,0.1c0.1,0.1,0.1,0.1,0.1,0.2
				s0,0.2-0.1,0.2c-0.1,0.1-0.1,0.1-0.2,0.1c-0.1,0-0.2,0-0.2-0.1C373.4,142.6,373.4,142.5,373.4,142.4z M373.6,144.1h0.3v5.3h-0.3
				V144.1z"/>
			<path class="st6" d="M376.4,138.9h0.3v10.5h-0.3V138.9z"/>
			<path class="st6" d="M379.4,138.9h0.3v10.5h-0.3V138.9z"/>
		</g>
	</g>
	<g>
		<polygon class="st4" points="240.7,83.1 247.2,83.1 247.2,89.6 240.7,89.6 240.7,83.1 		"/>
		<g>
			<path class="st6" d="M257.1,80.9l3.9,9.9h-0.1l3.8-9.9h0.3l-4.1,10.3l-4.1-10.3H257.1z"/>
			<path class="st6" d="M269.2,90.8c-0.5,0-1-0.1-1.4-0.4c-0.4-0.2-0.7-0.6-1-1c-0.2-0.4-0.4-0.9-0.4-1.4c0-0.5,0.1-1,0.4-1.4
				c0.2-0.4,0.6-0.8,1-1c0.4-0.2,0.9-0.4,1.4-0.4c0.6,0,1.1,0.2,1.5,0.5c0.4,0.3,0.7,0.8,0.9,1.3l-4.8,1.9l-0.1-0.2l4.6-1.9
				l-0.1,0.1c-0.2-0.4-0.5-0.8-0.8-1.1s-0.8-0.4-1.3-0.4c-0.5,0-0.9,0.1-1.2,0.3c-0.4,0.2-0.7,0.5-0.9,0.9c-0.2,0.4-0.3,0.8-0.3,1.3
				c0,0.4,0.1,0.8,0.3,1.2c0.2,0.4,0.5,0.7,0.9,0.9c0.4,0.2,0.8,0.4,1.3,0.4c0.3,0,0.6-0.1,0.9-0.2s0.6-0.3,0.8-0.5l0.2,0.2
				c-0.3,0.2-0.5,0.4-0.9,0.5C269.9,90.7,269.6,90.8,269.2,90.8z"/>
			<path class="st6" d="M273.6,90.7V80.2h0.3v6.7l0-0.2c0.2-0.4,0.5-0.7,0.9-1c0.4-0.3,0.9-0.4,1.4-0.4c0.5,0,0.9,0.1,1.2,0.4
				s0.4,0.7,0.5,1.1v3.8h-0.3v-3.8c0-0.4-0.1-0.7-0.4-0.9c-0.2-0.3-0.6-0.4-1-0.4c-0.4,0-0.8,0.1-1.1,0.3s-0.6,0.4-0.8,0.7
				s-0.3,0.7-0.3,1.1v3.1H273.6z"/>
			<path class="st6" d="M280.2,83.7c0-0.1,0-0.2,0.1-0.2c0.1-0.1,0.1-0.1,0.2-0.1c0.1,0,0.2,0,0.2,0.1c0.1,0.1,0.1,0.1,0.1,0.2
				s0,0.2-0.1,0.2c-0.1,0.1-0.1,0.1-0.2,0.1c-0.1,0-0.2,0-0.2-0.1C280.3,83.9,280.2,83.8,280.2,83.7z M280.4,85.4h0.3v5.3h-0.3V85.4
				z"/>
			<path class="st6" d="M287.3,90.2c-0.2,0.2-0.5,0.3-0.8,0.4s-0.6,0.2-0.9,0.2c-0.5,0-1-0.1-1.4-0.4c-0.4-0.2-0.7-0.6-1-1
				c-0.2-0.4-0.4-0.9-0.4-1.4c0-0.5,0.1-1,0.4-1.4c0.2-0.4,0.6-0.7,1-1c0.4-0.2,0.9-0.4,1.4-0.4c0.3,0,0.7,0.1,1,0.2
				c0.3,0.1,0.6,0.3,0.8,0.5l-0.2,0.2c-0.2-0.2-0.5-0.3-0.7-0.4c-0.3-0.1-0.6-0.2-0.9-0.2c-0.5,0-0.9,0.1-1.3,0.3
				c-0.4,0.2-0.7,0.5-0.9,0.9c-0.2,0.4-0.3,0.8-0.3,1.3c0,0.5,0.1,0.9,0.3,1.3c0.2,0.4,0.5,0.7,0.9,0.9c0.4,0.2,0.8,0.3,1.3,0.3
				c0.3,0,0.6,0,0.8-0.1c0.3-0.1,0.5-0.2,0.7-0.4L287.3,90.2z"/>
			<path class="st6" d="M289.2,80.2h0.3v10.5h-0.3V80.2z"/>
			<path class="st6" d="M294.3,90.8c-0.5,0-1-0.1-1.4-0.4c-0.4-0.2-0.7-0.6-1-1c-0.2-0.4-0.4-0.9-0.4-1.4c0-0.5,0.1-1,0.4-1.4
				c0.2-0.4,0.6-0.8,1-1c0.4-0.2,0.9-0.4,1.4-0.4c0.6,0,1.1,0.2,1.5,0.5c0.4,0.3,0.7,0.8,0.9,1.3l-4.8,1.9l-0.1-0.2l4.6-1.9
				l-0.1,0.1c-0.2-0.4-0.5-0.8-0.8-1.1s-0.8-0.4-1.3-0.4c-0.5,0-0.9,0.1-1.2,0.3c-0.4,0.2-0.7,0.5-0.9,0.9c-0.2,0.4-0.3,0.8-0.3,1.3
				c0,0.4,0.1,0.8,0.3,1.2c0.2,0.4,0.5,0.7,0.9,0.9c0.4,0.2,0.8,0.4,1.3,0.4c0.3,0,0.6-0.1,0.9-0.2s0.6-0.3,0.8-0.5l0.2,0.2
				c-0.3,0.2-0.5,0.4-0.9,0.5C295,90.7,294.7,90.8,294.3,90.8z"/>
			<path class="st6" d="M305.1,90.8c-0.5,0-1-0.1-1.4-0.4c-0.4-0.2-0.7-0.6-1-1c-0.2-0.4-0.4-0.9-0.4-1.4c0-0.6,0.1-1,0.4-1.4
				c0.2-0.4,0.6-0.7,1-1c0.4-0.2,0.9-0.3,1.4-0.3c0.6,0,1.1,0.2,1.5,0.5c0.5,0.3,0.8,0.7,1,1.2l-0.1,0.2v-7h0.3v10.5h-0.3v-1.8
				l0,0.2c-0.2,0.5-0.5,0.9-1,1.2S305.7,90.8,305.1,90.8z M305.1,90.5c0.5,0,0.9-0.1,1.3-0.3s0.7-0.5,0.9-0.9
				c0.2-0.4,0.3-0.8,0.3-1.2v-0.5c-0.1-0.4-0.2-0.7-0.5-1.1c-0.2-0.3-0.5-0.6-0.9-0.8c-0.4-0.2-0.7-0.3-1.1-0.3
				c-0.5,0-0.9,0.1-1.3,0.3c-0.4,0.2-0.7,0.5-0.9,0.9c-0.2,0.4-0.3,0.8-0.3,1.3c0,0.5,0.1,0.9,0.3,1.3c0.2,0.4,0.5,0.7,0.9,0.9
				C304.3,90.4,304.7,90.5,305.1,90.5z"/>
			<path class="st6" d="M312.7,90.8c-0.5,0-1-0.1-1.4-0.4c-0.4-0.2-0.7-0.6-1-1c-0.2-0.4-0.4-0.9-0.4-1.4c0-0.5,0.1-1,0.4-1.4
				c0.2-0.4,0.6-0.8,1-1c0.4-0.2,0.9-0.4,1.4-0.4c0.6,0,1.1,0.2,1.5,0.5c0.4,0.3,0.7,0.8,0.9,1.3l-4.8,1.9l-0.1-0.2l4.6-1.9
				l-0.1,0.1c-0.2-0.4-0.5-0.8-0.8-1.1s-0.8-0.4-1.3-0.4c-0.5,0-0.9,0.1-1.2,0.3c-0.4,0.2-0.7,0.5-0.9,0.9c-0.2,0.4-0.3,0.8-0.3,1.3
				c0,0.4,0.1,0.8,0.3,1.2c0.2,0.4,0.5,0.7,0.9,0.9c0.4,0.2,0.8,0.4,1.3,0.4c0.3,0,0.6-0.1,0.9-0.2s0.6-0.3,0.8-0.5l0.2,0.2
				c-0.3,0.2-0.5,0.4-0.9,0.5C313.4,90.7,313.1,90.8,312.7,90.8z"/>
			<path class="st6" d="M317.3,85.4l0.1,1.7l0-0.2c0.1-0.5,0.4-0.9,0.9-1.2s0.9-0.4,1.4-0.4c0.5,0,0.9,0.1,1.2,0.4s0.4,0.7,0.5,1.1
				v3.8H321v-3.8c0-0.4-0.1-0.7-0.4-0.9c-0.2-0.3-0.6-0.4-1-0.4c-0.4,0-0.8,0.1-1.1,0.3s-0.6,0.4-0.8,0.7s-0.3,0.7-0.3,1.1v3.1h-0.3
				v-5.3H317.3z"/>
			<path class="st6" d="M325,90.8c-0.3,0-0.5,0-0.9-0.1c-0.3-0.1-0.6-0.3-0.8-0.5l0.2-0.2c0.1,0.2,0.3,0.3,0.6,0.4s0.6,0.2,0.9,0.2
				c0.2,0,0.4,0,0.7-0.1c0.2-0.1,0.4-0.2,0.5-0.4c0.1-0.2,0.2-0.4,0.2-0.7c0-0.3-0.1-0.5-0.2-0.7c-0.1-0.2-0.3-0.3-0.6-0.4
				c-0.2-0.1-0.5-0.2-0.7-0.3c-0.3-0.1-0.6-0.3-0.9-0.5s-0.4-0.5-0.4-0.9c0-0.3,0.1-0.5,0.2-0.7c0.1-0.2,0.3-0.3,0.5-0.4
				s0.5-0.2,0.7-0.2c0.2,0,0.5,0,0.7,0.1c0.3,0.1,0.5,0.3,0.7,0.5l-0.2,0.2c-0.2-0.2-0.4-0.3-0.6-0.4s-0.5-0.1-0.7-0.1
				c-0.2,0-0.3,0-0.5,0.1s-0.3,0.2-0.5,0.3c-0.1,0.2-0.2,0.4-0.2,0.6c0,0.2,0.1,0.4,0.2,0.6c0.1,0.1,0.3,0.3,0.4,0.4
				c0.2,0.1,0.4,0.2,0.6,0.2c0.3,0.1,0.5,0.2,0.8,0.3c0.3,0.1,0.5,0.2,0.6,0.4c0.2,0.2,0.2,0.4,0.2,0.7c0,0.3-0.1,0.6-0.2,0.8
				s-0.3,0.4-0.6,0.5C325.6,90.7,325.3,90.8,325,90.8z"/>
			<path class="st6" d="M328.6,83.7c0-0.1,0-0.2,0.1-0.2c0.1-0.1,0.1-0.1,0.2-0.1c0.1,0,0.2,0,0.2,0.1c0.1,0.1,0.1,0.1,0.1,0.2
				s0,0.2-0.1,0.2c-0.1,0.1-0.1,0.1-0.2,0.1c-0.1,0-0.2,0-0.2-0.1C328.6,83.9,328.6,83.8,328.6,83.7z M328.7,85.4h0.3v5.3h-0.3V85.4
				z"/>
			<path class="st6" d="M332.1,83.1h0.3v2.4h1.8v0.2h-1.8v4.9h-0.3v-4.9h-1.2v-0.2h1.2V83.1z"/>
			<path class="st6" d="M337.6,90.8l-2.5-5.4h0.3l2.4,5.2L337.6,90.8z M336.4,93.2l3.4-7.8h0.3l-3.4,7.8H336.4z"/>
		</g>
	</g>
	<g>
		<polygon class="st5" points="240.7,122.7 247.2,122.7 247.2,129.2 240.7,129.2 240.7,122.7 		"/>
		<g>
			<path class="st6" d="M257.7,120.4h0.3v9.6h5.6v0.3h-5.9V120.4z"/>
			<path class="st6" d="M265,127.6c0-0.5,0.1-1,0.4-1.4c0.2-0.4,0.6-0.8,1-1c0.4-0.2,0.9-0.4,1.4-0.4c0.5,0,1,0.1,1.4,0.4
				s0.8,0.6,1,1c0.2,0.4,0.4,0.9,0.4,1.4c0,0.5-0.1,1-0.4,1.4c-0.2,0.4-0.6,0.7-1,1c-0.4,0.2-0.9,0.4-1.4,0.4c-0.5,0-1-0.1-1.4-0.4
				c-0.4-0.2-0.7-0.6-1-1C265.2,128.6,265,128.1,265,127.6z M265.3,127.6c0,0.5,0.1,0.9,0.3,1.3c0.2,0.4,0.5,0.7,0.9,0.9
				c0.4,0.2,0.8,0.3,1.3,0.3c0.5,0,0.9-0.1,1.2-0.3c0.4-0.2,0.7-0.5,0.9-0.9c0.2-0.4,0.3-0.8,0.3-1.3c0-0.5-0.1-0.9-0.3-1.3
				c-0.2-0.4-0.5-0.7-0.9-0.9c-0.4-0.2-0.8-0.3-1.2-0.3c-0.5,0-0.9,0.1-1.3,0.4c-0.4,0.2-0.7,0.6-0.9,0.9S265.3,127.2,265.3,127.6z"
				/>
			<path class="st6" d="M276.6,129.7c-0.2,0.2-0.5,0.3-0.8,0.4s-0.6,0.2-0.9,0.2c-0.5,0-1-0.1-1.4-0.4c-0.4-0.2-0.7-0.6-1-1
				c-0.2-0.4-0.4-0.9-0.4-1.4c0-0.5,0.1-1,0.4-1.4c0.2-0.4,0.6-0.7,1-1c0.4-0.2,0.9-0.4,1.4-0.4c0.3,0,0.7,0.1,1,0.2
				c0.3,0.1,0.6,0.3,0.8,0.5l-0.2,0.2c-0.2-0.2-0.5-0.3-0.7-0.4c-0.3-0.1-0.6-0.2-0.9-0.2c-0.5,0-0.9,0.1-1.3,0.3
				c-0.4,0.2-0.7,0.5-0.9,0.9c-0.2,0.4-0.3,0.8-0.3,1.3c0,0.5,0.1,0.9,0.3,1.3c0.2,0.4,0.5,0.7,0.9,0.9c0.4,0.2,0.8,0.3,1.3,0.3
				c0.3,0,0.6,0,0.8-0.1c0.3-0.1,0.5-0.2,0.7-0.4L276.6,129.7z"/>
			<path class="st6" d="M280.8,130.3c-0.5,0-1-0.1-1.4-0.4c-0.4-0.2-0.7-0.6-1-1c-0.2-0.4-0.4-0.9-0.4-1.4c0-0.6,0.1-1.1,0.4-1.5
				c0.3-0.4,0.6-0.7,1-0.9c0.4-0.2,0.9-0.3,1.4-0.3c0.6,0,1.1,0.2,1.5,0.5c0.5,0.3,0.8,0.7,1,1.2l0,0.2l0.1-1.8h0.2v5.3h-0.3v-1.8
				l0,0.2c-0.1,0.2-0.2,0.5-0.4,0.7c-0.2,0.2-0.4,0.4-0.6,0.5c-0.2,0.2-0.5,0.3-0.7,0.4S281.1,130.3,280.8,130.3z M280.8,130.1
				c0.5,0,0.9-0.1,1.2-0.3c0.4-0.2,0.7-0.5,0.9-0.8c0.2-0.4,0.3-0.8,0.4-1.2v-0.6c-0.1-0.4-0.2-0.7-0.5-1c-0.2-0.3-0.5-0.6-0.9-0.7
				c-0.3-0.2-0.7-0.3-1.1-0.3c-0.5,0-0.9,0.1-1.3,0.3c-0.4,0.2-0.7,0.5-0.9,0.9c-0.2,0.4-0.3,0.8-0.3,1.3c0,0.5,0.1,0.9,0.3,1.3
				c0.2,0.4,0.5,0.7,0.9,0.9C280,130,280.4,130.1,280.8,130.1z"/>
			<path class="st6" d="M286.6,122.7h0.3v2.4h1.8v0.2h-1.8v4.9h-0.3v-4.9h-1.2v-0.2h1.2V122.7z"/>
			<path class="st6" d="M290.3,123.3c0-0.1,0-0.2,0.1-0.2c0.1-0.1,0.1-0.1,0.2-0.1c0.1,0,0.2,0,0.2,0.1c0.1,0.1,0.1,0.1,0.1,0.2
				s0,0.2-0.1,0.2c-0.1,0.1-0.1,0.1-0.2,0.1c-0.1,0-0.2,0-0.2-0.1C290.3,123.5,290.3,123.4,290.3,123.3z M290.4,125h0.3v5.3h-0.3
				V125z"/>
			<path class="st6" d="M292.7,127.6c0-0.5,0.1-1,0.4-1.4c0.2-0.4,0.6-0.8,1-1c0.4-0.2,0.9-0.4,1.4-0.4c0.5,0,1,0.1,1.4,0.4
				s0.8,0.6,1,1c0.2,0.4,0.4,0.9,0.4,1.4c0,0.5-0.1,1-0.4,1.4c-0.2,0.4-0.6,0.7-1,1c-0.4,0.2-0.9,0.4-1.4,0.4c-0.5,0-1-0.1-1.4-0.4
				c-0.4-0.2-0.7-0.6-1-1C292.8,128.6,292.7,128.1,292.7,127.6z M293,127.6c0,0.5,0.1,0.9,0.3,1.3c0.2,0.4,0.5,0.7,0.9,0.9
				c0.4,0.2,0.8,0.3,1.3,0.3c0.5,0,0.9-0.1,1.2-0.3c0.4-0.2,0.7-0.5,0.9-0.9c0.2-0.4,0.3-0.8,0.3-1.3c0-0.5-0.1-0.9-0.3-1.3
				c-0.2-0.4-0.5-0.7-0.9-0.9c-0.4-0.2-0.8-0.3-1.2-0.3c-0.5,0-0.9,0.1-1.3,0.4c-0.4,0.2-0.7,0.6-0.9,0.9S293,127.2,293,127.6z"/>
			<path class="st6" d="M300.6,125l0.1,1.7l0-0.2c0.1-0.5,0.4-0.9,0.9-1.2s0.9-0.4,1.4-0.4c0.5,0,0.9,0.1,1.2,0.4s0.4,0.7,0.5,1.1
				v3.8h-0.3v-3.8c0-0.4-0.1-0.7-0.4-0.9c-0.2-0.3-0.6-0.4-1-0.4c-0.4,0-0.8,0.1-1.1,0.3s-0.6,0.4-0.8,0.7s-0.3,0.7-0.3,1.1v3.1
				h-0.3V125H300.6z"/>
			<path class="st6" d="M310.8,127.6c0-0.5,0.1-1,0.4-1.4s0.6-0.8,1-1s0.9-0.4,1.4-0.4c0.5,0,1,0.1,1.4,0.4s0.8,0.6,1,1
				s0.4,0.9,0.4,1.4c0,0.5-0.1,1-0.4,1.4c-0.2,0.4-0.6,0.7-1,1c-0.4,0.2-0.9,0.4-1.4,0.4c-0.5,0-1-0.1-1.4-0.4c-0.4-0.2-0.7-0.6-1-1
				C311,128.6,310.8,128.1,310.8,127.6z M311.1,127.6c0,0.5,0.1,0.9,0.3,1.3c0.2,0.4,0.5,0.7,0.9,0.9c0.4,0.2,0.8,0.3,1.3,0.3
				s0.9-0.1,1.2-0.3c0.4-0.2,0.7-0.5,0.9-0.9c0.2-0.4,0.3-0.8,0.3-1.3c0-0.5-0.1-0.9-0.3-1.3c-0.2-0.4-0.5-0.7-0.9-0.9
				c-0.4-0.2-0.8-0.3-1.2-0.3c-0.5,0-0.9,0.1-1.3,0.4c-0.4,0.2-0.7,0.6-0.9,0.9C311.2,126.8,311.1,127.2,311.1,127.6z"/>
			<path class="st6" d="M318.8,130.3v-5h-0.9V125h0.9v-2.9c0-0.9,0.1-1.5,0.4-1.9c0.3-0.3,0.6-0.5,1.2-0.5c0.1,0,0.2,0,0.3,0
				c0.1,0,0.2,0,0.3,0.1l-0.1,0.2c0,0-0.1-0.1-0.2-0.1c-0.1,0-0.2,0-0.2,0c-0.4,0-0.8,0.2-1,0.5c-0.2,0.3-0.3,0.9-0.3,1.7v3h1.8v0.3
				H319v5H318.8z"/>
			<path class="st6" d="M326.7,130.3v-10.5h0.3v6.7l0-0.2c0.2-0.4,0.5-0.7,0.9-1c0.4-0.3,0.9-0.4,1.4-0.4c0.5,0,0.9,0.1,1.2,0.4
				s0.4,0.7,0.5,1.1v3.8h-0.3v-3.8c0-0.4-0.1-0.7-0.4-0.9c-0.2-0.3-0.6-0.4-1-0.4c-0.4,0-0.8,0.1-1.1,0.3c-0.3,0.2-0.6,0.4-0.8,0.7
				s-0.3,0.7-0.3,1.1v3.1H326.7z"/>
			<path class="st6" d="M333.1,127.6c0-0.5,0.1-1,0.4-1.4s0.6-0.8,1-1s0.9-0.4,1.4-0.4c0.5,0,1,0.1,1.4,0.4s0.8,0.6,1,1
				s0.4,0.9,0.4,1.4c0,0.5-0.1,1-0.4,1.4c-0.2,0.4-0.6,0.7-1,1c-0.4,0.2-0.9,0.4-1.4,0.4c-0.5,0-1-0.1-1.4-0.4c-0.4-0.2-0.7-0.6-1-1
				C333.2,128.6,333.1,128.1,333.1,127.6z M333.4,127.6c0,0.5,0.1,0.9,0.3,1.3c0.2,0.4,0.5,0.7,0.9,0.9c0.4,0.2,0.8,0.3,1.3,0.3
				s0.9-0.1,1.2-0.3c0.4-0.2,0.7-0.5,0.9-0.9c0.2-0.4,0.3-0.8,0.3-1.3c0-0.5-0.1-0.9-0.3-1.3c-0.2-0.4-0.5-0.7-0.9-0.9
				c-0.4-0.2-0.8-0.3-1.2-0.3c-0.5,0-0.9,0.1-1.3,0.4c-0.4,0.2-0.7,0.6-0.9,0.9C333.5,126.8,333.4,127.2,333.4,127.6z"/>
			<path class="st6" d="M341.7,130.4c-0.3,0-0.5,0-0.9-0.1c-0.3-0.1-0.6-0.3-0.8-0.5l0.2-0.2c0.1,0.2,0.3,0.3,0.6,0.4
				c0.3,0.1,0.5,0.2,0.9,0.2c0.2,0,0.4,0,0.7-0.1c0.2-0.1,0.4-0.2,0.5-0.4c0.1-0.2,0.2-0.4,0.2-0.7c0-0.3-0.1-0.5-0.2-0.7
				c-0.1-0.2-0.3-0.3-0.6-0.4c-0.2-0.1-0.5-0.2-0.7-0.3c-0.3-0.1-0.6-0.3-0.9-0.5c-0.3-0.2-0.4-0.5-0.4-0.9c0-0.3,0.1-0.5,0.2-0.7
				c0.1-0.2,0.3-0.3,0.5-0.4s0.5-0.2,0.7-0.2c0.2,0,0.5,0,0.7,0.1c0.3,0.1,0.5,0.3,0.7,0.5l-0.2,0.2c-0.2-0.2-0.4-0.3-0.6-0.4
				s-0.5-0.1-0.7-0.1c-0.2,0-0.3,0-0.5,0.1c-0.2,0.1-0.3,0.2-0.5,0.3c-0.1,0.2-0.2,0.4-0.2,0.6c0,0.2,0.1,0.4,0.2,0.6
				c0.1,0.1,0.3,0.3,0.4,0.4c0.2,0.1,0.4,0.2,0.6,0.2c0.3,0.1,0.5,0.2,0.8,0.3c0.3,0.1,0.5,0.2,0.6,0.4c0.2,0.2,0.2,0.4,0.2,0.7
				c0,0.3-0.1,0.6-0.2,0.8s-0.3,0.4-0.6,0.5C342.4,130.3,342,130.4,341.7,130.4z"/>
			<path class="st6" d="M348.2,130.3c-0.6,0-1.1-0.2-1.6-0.5s-0.8-0.7-1-1.2l0-0.3v4.5h-0.3V125h0.3l0,2l0-0.4
				c0.2-0.5,0.5-0.9,1-1.2c0.5-0.3,1-0.5,1.5-0.5c0.5,0,1,0.1,1.4,0.4c0.4,0.2,0.7,0.6,1,1c0.2,0.4,0.4,0.9,0.4,1.4
				c0,0.5-0.1,1-0.4,1.4c-0.2,0.4-0.6,0.7-1,1C349.2,130.2,348.7,130.3,348.2,130.3z M348.2,130.1c0.5,0,0.9-0.1,1.3-0.3
				c0.4-0.2,0.7-0.5,0.9-0.9c0.2-0.4,0.3-0.8,0.3-1.3c0-0.5-0.1-0.9-0.3-1.3c-0.2-0.4-0.5-0.7-0.9-0.9s-0.8-0.3-1.2-0.3
				s-0.9,0.1-1.3,0.3s-0.7,0.5-0.9,0.9c-0.2,0.4-0.3,0.8-0.3,1.2v0.1c0,0.4,0.1,0.8,0.4,1.2c0.2,0.4,0.5,0.7,0.9,0.9
				C347.4,130,347.8,130.1,348.2,130.1z"/>
			<path class="st6" d="M352.9,123.3c0-0.1,0-0.2,0.1-0.2c0.1-0.1,0.1-0.1,0.2-0.1c0.1,0,0.2,0,0.2,0.1c0.1,0.1,0.1,0.1,0.1,0.2
				s0,0.2-0.1,0.2c-0.1,0.1-0.1,0.1-0.2,0.1c-0.1,0-0.2,0-0.2-0.1C352.9,123.5,352.9,123.4,352.9,123.3z M353,125h0.3v5.3H353V125z"
				/>
			<path class="st6" d="M356.6,122.7h0.3v2.4h1.8v0.2h-1.8v4.9h-0.3v-4.9h-1.2v-0.2h1.2V122.7z"/>
			<path class="st6" d="M362.4,130.3c-0.5,0-1-0.1-1.4-0.4c-0.4-0.2-0.7-0.6-1-1c-0.2-0.4-0.4-0.9-0.4-1.4c0-0.6,0.1-1.1,0.4-1.5
				c0.3-0.4,0.6-0.7,1-0.9s0.9-0.3,1.4-0.3c0.5,0,1.1,0.2,1.5,0.5c0.5,0.3,0.8,0.7,1,1.2l0,0.2l0.1-1.8h0.2v5.3h-0.3v-1.8l0,0.2
				c-0.1,0.2-0.2,0.5-0.4,0.7c-0.2,0.2-0.4,0.4-0.6,0.5c-0.2,0.2-0.5,0.3-0.7,0.4S362.7,130.3,362.4,130.3z M362.4,130.1
				c0.5,0,0.9-0.1,1.2-0.3s0.7-0.5,0.9-0.8c0.2-0.4,0.3-0.8,0.3-1.2v-0.6c-0.1-0.4-0.2-0.7-0.5-1c-0.2-0.3-0.5-0.6-0.9-0.7
				c-0.4-0.2-0.7-0.3-1.1-0.3c-0.5,0-0.9,0.1-1.3,0.3c-0.4,0.2-0.7,0.5-0.9,0.9c-0.2,0.4-0.3,0.8-0.3,1.3c0,0.5,0.1,0.9,0.3,1.3
				c0.2,0.4,0.5,0.7,0.9,0.9C361.5,130,362,130.1,362.4,130.1z"/>
			<path class="st6" d="M367.8,119.7h0.3v10.5h-0.3V119.7z"/>
		</g>
	</g>
	<g>
		<g>
			<path class="st6" d="M256.9,61h6.4v0.3h-3.1v9.6h-0.3v-9.6h-3.1V61z"/>
			<path class="st6" d="M265.6,65.5l0,1.7l0-0.2c0.1-0.3,0.3-0.6,0.5-0.9c0.2-0.2,0.5-0.4,0.8-0.5c0.3-0.1,0.6-0.2,1-0.2l0,0.3
				c-0.4,0-0.8,0.1-1.1,0.3c-0.3,0.2-0.6,0.4-0.8,0.7c-0.2,0.3-0.3,0.7-0.3,1.1v3.1h-0.3v-5.3H265.6z"/>
			<path class="st6" d="M272.1,70.9c-0.5,0-1-0.1-1.4-0.4c-0.4-0.2-0.7-0.6-1-1c-0.2-0.4-0.4-0.9-0.4-1.4c0-0.6,0.1-1.1,0.4-1.5
				c0.3-0.4,0.6-0.7,1-0.9c0.4-0.2,0.9-0.3,1.4-0.3c0.6,0,1.1,0.2,1.5,0.5c0.5,0.3,0.8,0.7,1,1.2l0,0.2l0.1-1.8h0.2v5.3h-0.3V69
				l0,0.2c-0.1,0.2-0.2,0.5-0.4,0.7c-0.2,0.2-0.4,0.4-0.6,0.5c-0.2,0.2-0.5,0.3-0.7,0.4S272.4,70.9,272.1,70.9z M272.1,70.7
				c0.5,0,0.9-0.1,1.2-0.3c0.4-0.2,0.7-0.5,0.9-0.8c0.2-0.4,0.3-0.8,0.4-1.2v-0.6c-0.1-0.4-0.2-0.7-0.5-1c-0.2-0.3-0.5-0.6-0.9-0.7
				c-0.3-0.2-0.7-0.3-1.1-0.3c-0.5,0-0.9,0.1-1.3,0.3c-0.4,0.2-0.7,0.5-0.9,0.9c-0.2,0.4-0.3,0.8-0.3,1.3c0,0.5,0.1,0.9,0.3,1.3
				c0.2,0.4,0.5,0.7,0.9,0.9C271.2,70.6,271.7,70.7,272.1,70.7z"/>
			<path class="st6" d="M277.8,70.8v-5h-0.9v-0.3h0.9v-2.9c0-0.9,0.1-1.5,0.4-1.9c0.3-0.3,0.6-0.5,1.2-0.5c0.1,0,0.2,0,0.3,0
				c0.1,0,0.2,0,0.3,0.1l-0.1,0.2c0,0-0.1-0.1-0.2-0.1c-0.1,0-0.2,0-0.2,0c-0.4,0-0.8,0.2-1,0.5c-0.2,0.3-0.3,0.9-0.3,1.7v3h1.8v0.3
				h-1.8v5H277.8z M281.7,70.8v-5h-0.9v-0.3h0.9v-2.9c0-0.9,0.1-1.5,0.4-1.9c0.3-0.3,0.6-0.5,1.2-0.5c0.1,0,0.2,0,0.3,0
				c0.1,0,0.2,0,0.3,0.1l-0.1,0.2c0,0-0.1-0.1-0.2-0.1c-0.1,0-0.2,0-0.2,0c-0.4,0-0.8,0.2-1,0.5c-0.2,0.3-0.3,0.9-0.3,1.7v3h1.8v0.3
				H282v5H281.7z M285.3,63.9c0-0.1,0-0.2,0.1-0.2s0.1-0.1,0.2-0.1c0.1,0,0.2,0,0.2,0.1c0.1,0.1,0.1,0.1,0.1,0.2s0,0.2-0.1,0.2
				c-0.1,0.1-0.1,0.1-0.2,0.1c-0.1,0-0.2,0-0.2-0.1S285.3,63.9,285.3,63.9z M285.5,65.5h0.3v5.3h-0.3V65.5z"/>
			<path class="st6" d="M292.3,70.3c-0.2,0.2-0.5,0.3-0.8,0.4s-0.6,0.2-0.9,0.2c-0.5,0-1-0.1-1.4-0.4c-0.4-0.2-0.7-0.6-1-1
				c-0.2-0.4-0.4-0.9-0.4-1.4c0-0.5,0.1-1,0.4-1.4c0.2-0.4,0.6-0.7,1-1c0.4-0.2,0.9-0.4,1.4-0.4c0.3,0,0.7,0.1,1,0.2
				c0.3,0.1,0.6,0.3,0.8,0.5l-0.2,0.2c-0.2-0.2-0.5-0.3-0.7-0.4c-0.3-0.1-0.6-0.2-0.9-0.2c-0.5,0-0.9,0.1-1.3,0.3
				c-0.4,0.2-0.7,0.5-0.9,0.9c-0.2,0.4-0.3,0.8-0.3,1.3c0,0.5,0.1,0.9,0.3,1.3c0.2,0.4,0.5,0.7,0.9,0.9c0.4,0.2,0.8,0.3,1.3,0.3
				c0.3,0,0.6,0,0.8-0.1c0.3-0.1,0.5-0.2,0.7-0.4L292.3,70.3z"/>
			<path class="st6" d="M299.6,70.9c-0.3,0-0.5,0-0.9-0.1c-0.3-0.1-0.6-0.3-0.8-0.5l0.2-0.2c0.1,0.2,0.3,0.3,0.6,0.4
				s0.6,0.2,0.9,0.2c0.2,0,0.4,0,0.7-0.1c0.2-0.1,0.4-0.2,0.5-0.4c0.1-0.2,0.2-0.4,0.2-0.7c0-0.3-0.1-0.5-0.2-0.7
				c-0.1-0.2-0.3-0.3-0.6-0.4c-0.2-0.1-0.5-0.2-0.7-0.3c-0.3-0.1-0.6-0.3-0.9-0.5s-0.4-0.5-0.4-0.9c0-0.3,0.1-0.5,0.2-0.7
				c0.1-0.2,0.3-0.3,0.5-0.4s0.5-0.2,0.7-0.2c0.2,0,0.5,0,0.7,0.1c0.3,0.1,0.5,0.3,0.7,0.5l-0.2,0.2c-0.2-0.2-0.4-0.3-0.6-0.4
				s-0.5-0.1-0.7-0.1c-0.2,0-0.3,0-0.5,0.1s-0.3,0.2-0.5,0.3c-0.1,0.2-0.2,0.4-0.2,0.6c0,0.2,0.1,0.4,0.2,0.6
				c0.1,0.1,0.3,0.3,0.4,0.4c0.2,0.1,0.4,0.2,0.6,0.2c0.3,0.1,0.5,0.2,0.8,0.3c0.3,0.1,0.5,0.2,0.6,0.4c0.2,0.2,0.2,0.4,0.2,0.7
				c0,0.3-0.1,0.6-0.2,0.8s-0.3,0.4-0.6,0.5C300.2,70.9,299.9,70.9,299.6,70.9z"/>
			<path class="st6" d="M303.2,63.9c0-0.1,0-0.2,0.1-0.2c0.1-0.1,0.1-0.1,0.2-0.1c0.1,0,0.2,0,0.2,0.1c0.1,0.1,0.1,0.1,0.1,0.2
				s0,0.2-0.1,0.2c-0.1,0.1-0.1,0.1-0.2,0.1c-0.1,0-0.2,0-0.2-0.1C303.2,64,303.2,63.9,303.2,63.9z M303.3,65.5h0.3v5.3h-0.3V65.5z"
				/>
			<path class="st6" d="M308.4,73.4c-0.2,0-0.5,0-0.7-0.1c-0.2-0.1-0.5-0.2-0.8-0.3c-0.3-0.2-0.6-0.4-0.9-0.7l0.2-0.2
				c0.5,0.4,0.9,0.7,1.2,0.8c0.4,0.1,0.7,0.2,1,0.2c0.6,0,1.1-0.1,1.5-0.3c0.4-0.2,0.6-0.5,0.7-0.8c0.1-0.3,0.2-0.7,0.2-1.1l0-1.9
				l0.1,0.1c-0.2,0.5-0.5,1-1,1.3c-0.5,0.3-1,0.5-1.6,0.5c-0.5,0-1-0.1-1.4-0.4c-0.4-0.2-0.7-0.6-1-1c-0.2-0.4-0.4-0.9-0.4-1.4
				c0-0.5,0.1-1,0.4-1.4c0.3-0.4,0.6-0.7,1-1c0.4-0.2,0.9-0.3,1.4-0.3c0.6,0,1.1,0.2,1.5,0.5c0.5,0.3,0.8,0.7,1,1.2l0,0.2l0.1-1.7
				h0.2v5.4c0,0.4-0.1,0.8-0.2,1.2c-0.2,0.4-0.4,0.7-0.8,0.9C309.7,73.2,309.1,73.4,308.4,73.4z M305.9,68.2c0,0.5,0.1,0.9,0.3,1.3
				c0.2,0.4,0.5,0.7,0.9,0.9c0.4,0.2,0.8,0.3,1.3,0.3c0.5,0,0.9-0.1,1.3-0.3c0.4-0.2,0.7-0.5,0.9-0.9s0.3-0.7,0.4-1.1v-0.6
				c-0.1-0.4-0.2-0.7-0.5-1.1c-0.2-0.3-0.5-0.6-0.9-0.7c-0.4-0.2-0.7-0.3-1.2-0.3c-0.5,0-0.9,0.1-1.3,0.3c-0.4,0.2-0.7,0.5-0.9,0.9
				C306,67.2,305.9,67.7,305.9,68.2z"/>
			<path class="st6" d="M314.1,65.5l0.1,1.7l0-0.2c0.1-0.5,0.4-0.9,0.9-1.2s0.9-0.4,1.4-0.4c0.5,0,0.9,0.1,1.2,0.4s0.4,0.7,0.5,1.1
				v3.8h-0.3V67c0-0.4-0.1-0.7-0.4-0.9c-0.2-0.3-0.6-0.4-1-0.4c-0.4,0-0.8,0.1-1.1,0.3s-0.6,0.4-0.8,0.7s-0.3,0.7-0.3,1.1v3.1h-0.3
				v-5.3H314.1z"/>
			<path class="st6" d="M322.8,70.9c-0.5,0-1-0.1-1.4-0.4c-0.4-0.2-0.7-0.6-1-1c-0.2-0.4-0.4-0.9-0.4-1.4c0-0.6,0.1-1.1,0.4-1.5
				c0.3-0.4,0.6-0.7,1-0.9c0.4-0.2,0.9-0.3,1.4-0.3c0.6,0,1.1,0.2,1.5,0.5c0.5,0.3,0.8,0.7,1,1.2l0,0.2l0.1-1.8h0.2v5.3h-0.3V69
				l0,0.2c-0.1,0.2-0.2,0.5-0.4,0.7c-0.2,0.2-0.4,0.4-0.6,0.5c-0.2,0.2-0.5,0.3-0.7,0.4S323.1,70.9,322.8,70.9z M322.9,70.7
				c0.5,0,0.9-0.1,1.2-0.3c0.4-0.2,0.7-0.5,0.9-0.8c0.2-0.4,0.3-0.8,0.4-1.2v-0.6c-0.1-0.4-0.2-0.7-0.5-1c-0.2-0.3-0.5-0.6-0.9-0.7
				c-0.3-0.2-0.7-0.3-1.1-0.3c-0.5,0-0.9,0.1-1.3,0.3c-0.4,0.2-0.7,0.5-0.9,0.9c-0.2,0.4-0.3,0.8-0.3,1.3c0,0.5,0.1,0.9,0.3,1.3
				c0.2,0.4,0.5,0.7,0.9,0.9C322,70.6,322.4,70.7,322.9,70.7z"/>
			<path class="st6" d="M328.3,60.3h0.3v10.5h-0.3V60.3z"/>
			<path class="st6" d="M332.3,70.9c-0.3,0-0.5,0-0.9-0.1c-0.3-0.1-0.6-0.3-0.8-0.5l0.2-0.2c0.1,0.2,0.3,0.3,0.6,0.4
				s0.6,0.2,0.9,0.2c0.2,0,0.4,0,0.7-0.1c0.2-0.1,0.4-0.2,0.5-0.4c0.1-0.2,0.2-0.4,0.2-0.7c0-0.3-0.1-0.5-0.2-0.7
				c-0.1-0.2-0.3-0.3-0.6-0.4c-0.2-0.1-0.5-0.2-0.7-0.3c-0.3-0.1-0.6-0.3-0.9-0.5s-0.4-0.5-0.4-0.9c0-0.3,0.1-0.5,0.2-0.7
				c0.1-0.2,0.3-0.3,0.5-0.4s0.5-0.2,0.7-0.2c0.2,0,0.5,0,0.7,0.1c0.3,0.1,0.5,0.3,0.7,0.5l-0.2,0.2c-0.2-0.2-0.4-0.3-0.6-0.4
				s-0.5-0.1-0.7-0.1c-0.2,0-0.3,0-0.5,0.1s-0.3,0.2-0.5,0.3c-0.1,0.2-0.2,0.4-0.2,0.6c0,0.2,0.1,0.4,0.2,0.6
				c0.1,0.1,0.3,0.3,0.4,0.4c0.2,0.1,0.4,0.2,0.6,0.2c0.3,0.1,0.5,0.2,0.8,0.3c0.3,0.1,0.5,0.2,0.6,0.4c0.2,0.2,0.2,0.4,0.2,0.7
				c0,0.3-0.1,0.6-0.2,0.8s-0.3,0.4-0.6,0.5C333,70.9,332.7,70.9,332.3,70.9z"/>
		</g>
		<polygon class="st0" points="240.7,63.3 247.2,63.3 247.2,69.7 240.7,69.7 240.7,63.3 		"/>
	</g>
</g>
</svg>
