<?xml version="1.0" encoding="utf-8"?>
<!-- Generator: Adobe Illustrator 24.1.3, SVG Export Plug-In . SVG Version: 6.00 Build 0)  -->
<svg version="1.1" id="Layer_12" xmlns="http://www.w3.org/2000/svg" xmlns:xlink="http://www.w3.org/1999/xlink" x="0px" y="0px"
	 viewBox="0 0 37 37" style="enable-background:new 0 0 37 37;" xml:space="preserve">
<style type="text/css">
	.st0{fill:none;stroke:#1475A2;stroke-width:2;stroke-miterlimit:10;}
	
		.st1{fill-rule:evenodd;clip-rule:evenodd;fill:none;stroke:#1475A2;stroke-width:2;stroke-linecap:round;stroke-linejoin:round;stroke-miterlimit:3;}
</style>
<path class="st0" d="M36,18.5C36,28.2,28.2,36,18.5,36C8.8,36,1,28.2,1,18.5C1,8.8,8.8,1,18.5,1C28.2,1,36,8.8,36,18.5z"/>
<g>
	<path class="st1" d="M11.1,28.5l1.7-5.7l-3.7,0 M27.9,14.3l-3.7,0l-2.6,8.6l5.1,0 M24.2,14.2l-8.9-0.1l-2.6,8.6l8.9,0.1L20,28.5
		 M15.3,14.2l-5.1,0 M17,8.5l-1.7,5.7 M25.9,8.5l-1.7,5.7"/>
</g>
</svg>
