<?xml version="1.0" encoding="utf-8"?>
<!-- Generator: Adobe Illustrator 24.1.3, SVG Export Plug-In . SVG Version: 6.00 Build 0)  -->
<svg version="1.1" xmlns="http://www.w3.org/2000/svg" xmlns:xlink="http://www.w3.org/1999/xlink" x="0px" y="0px"
	 viewBox="0 0 646.2 576.5" style="enable-background:new 0 0 646.2 576.5;" xml:space="preserve">
<style type="text/css">
	
		.st0{fill-rule:evenodd;clip-rule:evenodd;fill:none;stroke:#0075A0;stroke-width:2;stroke-linecap:round;stroke-linejoin:round;stroke-miterlimit:3;}
	.st1{fill:none;stroke:#0075A0;stroke-width:2;stroke-linecap:round;stroke-linejoin:round;stroke-miterlimit:3;}
	
		.st2{fill-rule:evenodd;clip-rule:evenodd;fill:none;stroke:#DBAA32;stroke-width:2;stroke-linecap:round;stroke-linejoin:round;stroke-miterlimit:3;}
</style>
<g id="Layer_1">
	<g>
		<polygon class="st0" points="23,335.5 13.8,424 89.3,500.7 19.5,381.7 89.3,212 27.9,288.4 		"/>
		<polygon class="st0" points="89.3,393.4 89.3,366 57.9,338.5 57.9,366 		"/>
		<polyline class="st0" points="57.9,393.4 89.3,420.9 89.3,393.4 		"/>
		<polyline class="st0" points="89.3,323.3 89.3,366 120.8,338.5 120.8,366 89.3,393.4 117.5,418.1 		"/>
		<polyline class="st0" points="89.3,212 151,288.4 165.3,424 89.3,500.7 89.3,575.5 159.2,575.5 		"/>
		<line class="st0" x1="19.5" y1="575.5" x2="89.3" y2="575.5"/>
		<polyline class="st0" points="89.3,420.9 89.3,500.7 159.2,381.7 89.3,212 		"/>
	</g>
	<g>
		<polygon class="st0" points="558.9,430 553.4,483.7 599.1,530.1 556.8,458 599.1,355.1 561.9,401.4 		"/>
		<polygon class="st0" points="599.1,465.1 599.1,448.5 580.1,431.8 580.1,448.5 		"/>
		<polyline class="st0" points="580.1,465.1 599.1,481.8 599.1,465.1 		"/>
		<polyline class="st0" points="599.1,422.6 599.1,448.5 618.2,431.8 618.2,448.5 599.1,465.1 616.2,480.1 		"/>
		<polyline class="st0" points="599.1,355.1 636.6,401.4 645.2,483.7 599.1,530.1 599.1,575.5 641.5,575.5 		"/>
		<line class="st0" x1="556.8" y1="575.5" x2="599.1" y2="575.5"/>
		<polyline class="st0" points="599.1,481.8 599.1,530.1 641.5,458 599.1,355.1 		"/>
	</g>
	<g>
		<polygon class="st0" points="203,335.5 193.8,424 269.3,500.7 199.5,381.7 269.3,212 207.8,288.4 		"/>
		<polygon class="st0" points="269.3,393.4 269.3,366 237.9,338.5 237.9,366 		"/>
		<polyline class="st0" points="237.9,393.4 269.3,420.9 269.3,393.4 		"/>
		<polyline class="st0" points="269.3,323.3 269.3,366 300.7,338.5 300.7,366 269.3,393.4 297.5,418.1 		"/>
		<polyline class="st0" points="269.3,212 331,288.4 345.2,424 269.3,500.7 269.3,575.5 339.2,575.5 		"/>
		<line class="st0" x1="199.5" y1="575.5" x2="269.3" y2="575.5"/>
		<polyline class="st0" points="269.3,420.9 269.3,500.7 339.2,381.7 269.3,212 		"/>
	</g>
	<g>
		<polygon class="st0" points="382.9,335.5 373.7,424 449.3,500.7 379.5,381.7 449.3,212 387.8,288.4 		"/>
		<polygon class="st0" points="449.3,393.4 449.3,366 417.8,338.5 417.8,366 		"/>
		<polyline class="st0" points="417.8,393.4 449.3,420.9 449.3,393.4 		"/>
		<polyline class="st0" points="449.3,323.3 449.3,366 480.7,338.5 480.7,366 449.3,393.4 477.5,418.1 		"/>
		<polyline class="st0" points="449.3,212 511,288.4 525.2,424 449.3,500.7 449.3,575.5 519.1,575.5 		"/>
		<line class="st0" x1="379.5" y1="575.5" x2="449.3" y2="575.5"/>
		<polyline class="st0" points="449.3,420.9 449.3,500.7 519.1,381.7 449.3,212 		"/>
	</g>
	<line class="st1" x1="232" y1="41.2" x2="332" y2="41.2"/>
	<line class="st1" x1="262" y1="61.2" x2="482" y2="61.2"/>
	<line class="st1" x1="212" y1="41.2" x2="220.2" y2="41.2"/>
	<line class="st1" x1="232.4" y1="61.2" x2="250.5" y2="61.2"/>
</g>
<g id="Layer_4">
	<g>
		<polyline class="st2" points="113.2,132.8 146.1,75.9 114.5,21.2 		"/>
		<polyline class="st2" points="149.2,63.5 118.4,10 55.2,10 		"/>
		<polyline class="st2" points="1,70.4 31.9,123.8 95.1,123.8 		"/>
		<polyline class="st2" points="35,4.5 4.2,58 35.8,112.7 		"/>
		<polyline class="st2" points="102.8,1 47.4,1 15.8,55.7 		"/>
		<polyline class="st2" points="41.1,132.9 102.8,132.9 134.4,78.1 		"/>
	</g>
</g>
</svg>
