<?xml version="1.0" encoding="utf-8"?>
<!-- Generator: Adobe Illustrator 24.1.3, SVG Export Plug-In . SVG Version: 6.00 Build 0)  -->
<svg version="1.1" id="Layer_10" xmlns="http://www.w3.org/2000/svg" xmlns:xlink="http://www.w3.org/1999/xlink" x="0px" y="0px"
	 viewBox="0 0 47 47" style="enable-background:new 0 0 47 47;" xml:space="preserve">
<style type="text/css">
	.st0{fill:url(#SVGID_1_);}
	.st1{fill:url(#SVGID_2_);}
	.st2{fill:url(#SVGID_3_);}
	.st3{fill:none;stroke:url(#SVGID_4_);stroke-miterlimit:10;}
</style>
<g>
	
		<linearGradient id="SVGID_1_" gradientUnits="userSpaceOnUse" x1="-1846.0897" y1="316.4807" x2="-1814.3347" y2="340.7061" gradientTransform="matrix(1 0 0 -1 1857.5524 347.7308)">
		<stop  offset="0" style="stop-color:#FFD500"/>
		<stop  offset="0.226" style="stop-color:#F15A24"/>
		<stop  offset="0.4624" style="stop-color:#ED1E79"/>
		<stop  offset="0.6956" style="stop-color:#662D91"/>
		<stop  offset="1" style="stop-color:#1B1464"/>
	</linearGradient>
	<path class="st0" d="M29.6,18.1c0,0.5-0.4,0.9-0.9,0.9s-0.9-0.4-0.9-0.9s0.4-0.9,0.9-0.9C29.2,17.2,29.6,17.6,29.6,18.1z"/>
	<g>
		<g>
			
				<linearGradient id="SVGID_2_" gradientUnits="userSpaceOnUse" x1="-1845.3837" y1="315.5744" x2="-1813.6458" y2="339.7868" gradientTransform="matrix(1 0 0 -1 1857.5524 347.7308)">
				<stop  offset="0" style="stop-color:#FFD500"/>
				<stop  offset="0.226" style="stop-color:#F15A24"/>
				<stop  offset="0.4624" style="stop-color:#ED1E79"/>
				<stop  offset="0.6956" style="stop-color:#662D91"/>
				<stop  offset="1" style="stop-color:#1B1464"/>
			</linearGradient>
			<path class="st1" d="M19.4,33.6c-3.3,0-6-2.7-6-6v-8.1c0-3.3,2.7-6,6-6h8.1c3.3,0,6,2.7,6,6v8.1c0,3.3-2.7,6-6,6
				C27.5,33.6,19.4,33.6,19.4,33.6z M19.4,15c-2.5,0-4.5,2-4.5,4.5v8.1c0,2.5,2,4.5,4.5,4.5h8.1c2.5,0,4.5-2,4.5-4.5v-8.1
				c0-2.5-2-4.5-4.5-4.5H19.4z"/>
		</g>
		<g>
			<g>
				
					<linearGradient id="SVGID_3_" gradientUnits="userSpaceOnUse" x1="-1845.3854" y1="315.5776" x2="-1813.6493" y2="339.7886" gradientTransform="matrix(1 0 0 -1 1857.5524 347.7308)">
					<stop  offset="0" style="stop-color:#FFD500"/>
					<stop  offset="0.226" style="stop-color:#F15A24"/>
					<stop  offset="0.4624" style="stop-color:#ED1E79"/>
					<stop  offset="0.6956" style="stop-color:#662D91"/>
					<stop  offset="1" style="stop-color:#1B1464"/>
				</linearGradient>
				<path class="st2" d="M23.4,28.6c-2.7,0-5-2.2-5-5s2.2-5,5-5c2.7,0,5,2.2,5,5S26.1,28.6,23.4,28.6z M23.4,20.1
					c-1.9,0-3.5,1.6-3.5,3.5s1.6,3.5,3.5,3.5s3.5-1.6,3.5-3.5S25.3,20.1,23.4,20.1z"/>
			</g>
		</g>
	</g>
</g>
<linearGradient id="SVGID_4_" gradientUnits="userSpaceOnUse" x1="0" y1="24.5" x2="47" y2="24.5" gradientTransform="matrix(1 0 0 -1 0 48)">
	<stop  offset="0" style="stop-color:#FFD500"/>
	<stop  offset="0.226" style="stop-color:#F15A24"/>
	<stop  offset="0.4624" style="stop-color:#ED1E79"/>
	<stop  offset="0.6956" style="stop-color:#662D91"/>
	<stop  offset="1" style="stop-color:#1B1464"/>
</linearGradient>
<path class="st3" d="M46.5,23.5c0,12.7-10.3,23-23,23s-23-10.3-23-23s10.3-23,23-23S46.5,10.8,46.5,23.5z"/>
</svg>
