<?xml version="1.0" encoding="utf-8"?>
<!-- Generator: Adobe Illustrator 24.1.3, SVG Export Plug-In . SVG Version: 6.00 Build 0)  -->
<svg version="1.1" id="Layer_10" xmlns="http://www.w3.org/2000/svg" xmlns:xlink="http://www.w3.org/1999/xlink" x="0px" y="0px"
	 viewBox="0 0 47 47" style="enable-background:new 0 0 47 47;" xml:space="preserve">
<style type="text/css">
	.st0{fill-rule:evenodd;clip-rule:evenodd;fill:#0B66A2;}
	.st1{fill:none;stroke:#0B66A2;stroke-miterlimit:10;}
</style>
<g>
	<g>
		<rect x="13.9" y="19.2" class="st0" width="4" height="13.5"/>
		<path class="st0" d="M33.5,23.6v9.1h-4v-1.5v-5.8c0-1.4-1.1-2.5-2.5-2.5l0,0c-1.4,0-2.5,1.1-2.5,2.5v0.9v4.9v1.5h-4V19.2h4v2
			c1.1-1.9,3.3-2.8,5.4-2.3C32,19.5,33.5,21.4,33.5,23.6L33.5,23.6z"/>
		<path class="st0" d="M15.9,17.1c1.3,0,2.4-1.1,2.4-2.4c0-1.3-1.1-2.4-2.4-2.4c-1.3,0-2.4,1.1-2.4,2.4
			C13.5,16.1,14.6,17.1,15.9,17.1L15.9,17.1z"/>
	</g>
</g>
<path class="st1" d="M46.5,23.5c0,12.7-10.3,23-23,23c-12.7,0-23-10.3-23-23c0-12.7,10.3-23,23-23C36.2,0.5,46.5,10.8,46.5,23.5z"/>
</svg>
