<?xml version="1.0" encoding="utf-8"?>
<!-- Generator: Adobe Illustrator 24.1.3, SVG Export Plug-In . SVG Version: 6.00 Build 0)  -->
<svg version="1.1" id="Layer_10" xmlns="http://www.w3.org/2000/svg" xmlns:xlink="http://www.w3.org/1999/xlink" x="0px" y="0px"
	 viewBox="0 0 47 47" style="enable-background:new 0 0 47 47;" xml:space="preserve">
<style type="text/css">
	.st0{fill:#22ABE3;}
	.st1{fill:none;stroke:#22ABE3;stroke-miterlimit:10;}
</style>
<g>
	<path class="st0" d="M16,23.1c0,0,0-4.7,0-4.8c0-0.7,0.6-1.2,1.2-1.2c0.2,0,12.3,0,12.5,0c0.7,0,1.2,0.6,1.2,1.2c0,0.1,0,4.8,0,4.8
		c0.1-0.1,2.3-1.6,2.4-1.7l-1.6-1.3v-1.8c0-1.1-0.9-2-2-2h-2.6L24,13.7c-0.3-0.3-0.8-0.3-1.1,0l-3.1,2.6h-2.6c-1.1,0-2,0.9-2,2v1.8
		l-1.6,1.3C13.7,21.5,16,23.1,16,23.1z"/>
	<path class="st0" d="M24,28.7c-0.3,0.2-0.7,0.2-0.9,0c-0.2-0.1-9.4-6.5-9.5-6.6v10.2c0,0.7,0.5,1.2,1.2,1.2h17.6
		c0.7,0,1.2-0.5,1.2-1.2V22.1C33,22.5,24.5,28.3,24,28.7z"/>
	<path class="st0" d="M26.2,24.2H27c-0.2,0.5-0.6,0.9-1.1,1.2c-0.6,0.3-1.3,0.5-2.1,0.5c-0.8,0-1.5-0.1-2.1-0.4
		c-0.6-0.3-1-0.7-1.3-1.2c-0.3-0.5-0.4-1.1-0.4-1.7c0-0.7,0.2-1.3,0.5-1.9c0.3-0.6,0.8-1,1.3-1.3c0.6-0.3,1.2-0.4,1.9-0.4
		c0.6,0,1.2,0.1,1.6,0.4c0.5,0.2,0.8,0.6,1.1,1c0.3,0.4,0.4,0.9,0.4,1.4c0,0.6-0.2,1.2-0.6,1.7c-0.5,0.6-1.1,0.9-1.8,0.9
		c-0.2,0-0.4,0-0.5-0.1c-0.1-0.1-0.2-0.2-0.2-0.3c-0.3,0.3-0.6,0.4-1,0.4c-0.4,0-0.7-0.1-1-0.4c-0.3-0.3-0.4-0.6-0.4-1.1
		c0-0.6,0.2-1.1,0.5-1.6c0.4-0.6,0.9-0.9,1.5-0.9c0.4,0,0.8,0.2,1,0.5l0.1-0.4h1L24.8,23c0,0.2,0,0.3,0,0.3c0,0.1,0,0.1,0,0.1
		c0,0,0.1,0,0.1,0c0.1,0,0.3-0.1,0.5-0.2c0.2-0.2,0.4-0.4,0.6-0.7c0.2-0.3,0.2-0.6,0.2-1c0-0.6-0.2-1.1-0.7-1.5
		c-0.4-0.4-1-0.6-1.8-0.6c-0.7,0-1.2,0.1-1.7,0.4c-0.5,0.3-0.8,0.6-1,1.1c-0.2,0.5-0.3,1-0.3,1.5c0,0.5,0.1,1,0.4,1.4
		c0.3,0.4,0.6,0.7,1.1,0.9c0.5,0.2,1,0.3,1.6,0.3c0.6,0,1.1-0.1,1.5-0.2C25.7,24.8,26,24.5,26.2,24.2z M22.3,22.7
		c0,0.3,0.1,0.5,0.2,0.7c0.1,0.1,0.3,0.2,0.5,0.2c0.1,0,0.3,0,0.4-0.1c0.1,0,0.2-0.1,0.3-0.2c0.1-0.1,0.2-0.4,0.3-0.6
		c0.1-0.3,0.1-0.6,0.1-0.8c0-0.3-0.1-0.5-0.2-0.6C23.8,21,23.6,21,23.4,21c-0.2,0-0.4,0.1-0.6,0.2c-0.2,0.2-0.3,0.4-0.4,0.7
		C22.3,22.2,22.3,22.5,22.3,22.7z"/>
</g>
<path class="st1" d="M46.5,23.5c0,12.7-10.3,23-23,23c-12.7,0-23-10.3-23-23c0-12.7,10.3-23,23-23C36.2,0.5,46.5,10.8,46.5,23.5z"/>
</svg>
