<?xml version="1.0" encoding="utf-8"?>
<!-- Generator: Adobe Illustrator 24.1.3, SVG Export Plug-In . SVG Version: 6.00 Build 0)  -->
<svg version="1.1" id="Layer_12" xmlns="http://www.w3.org/2000/svg" xmlns:xlink="http://www.w3.org/1999/xlink" x="0px" y="0px"
	 viewBox="0 0 37 37" style="enable-background:new 0 0 37 37;" xml:space="preserve">
<style type="text/css">
	.st0{fill:none;stroke:#1475A2;stroke-width:2;stroke-miterlimit:10;}
</style>
<g>
	<line class="st0" x1="25.7" y1="11.5" x2="23.6" y2="13.6"/>
	<path class="st0" d="M15.1,22.3v-0.8c0-0.2,0.1-0.4,0.3-0.6c0.2-0.2,0.4-0.3,0.7-0.4c0.4-0.2,1-0.4,1.7-0.6
		c0.4-0.1,0.7-0.2,1.1-0.2c0.3,0,0.7,0.1,1.1,0.2c0.5,0.2,0.9,0.3,1.3,0.5c0.8,0.4,1.3,0.8,1.2,1.3v0.7"/>
	<line class="st0" x1="28.9" y1="18.9" x2="25.9" y2="18.9"/>
	<line class="st0" x1="27.9" y1="22.9" x2="25.2" y2="21.7"/>
	<line class="st0" x1="27.9" y1="14.8" x2="25.2" y2="16"/>
	<line class="st0" x1="18.5" y1="8.5" x2="18.5" y2="11.4"/>
	<line class="st0" x1="11.3" y1="11.5" x2="13.4" y2="13.6"/>
	<line class="st0" x1="8.1" y1="18.9" x2="11.1" y2="18.9"/>
	<line class="st0" x1="9.1" y1="22.9" x2="11.8" y2="21.7"/>
	<line class="st0" x1="9.1" y1="14.8" x2="11.8" y2="16"/>
	<path class="st0" d="M20.1,15c-0.4-0.4-0.8-0.6-1.3-0.6c-0.5,0-1,0.2-1.3,0.6c-0.4,0.4-0.5,0.8-0.5,1.3c0,0.5,0.2,1,0.5,1.3
		c0.4,0.4,0.8,0.6,1.3,0.6c0.5,0,1-0.2,1.3-0.6c0.4-0.4,0.6-0.8,0.6-1.3C20.6,15.8,20.4,15.3,20.1,15z"/>
	<line class="st0" x1="14.6" y1="9.4" x2="15.8" y2="12"/>
	<line class="st0" x1="18.5" y1="28.5" x2="18.5" y2="25.6"/>
	<line class="st0" x1="11.4" y1="25.7" x2="13.4" y2="23.7"/>
	<line class="st0" x1="14.6" y1="28" x2="15.8" y2="25.3"/>
	<line class="st0" x1="25.6" y1="25.7" x2="23.6" y2="23.7"/>
	<line class="st0" x1="22.4" y1="28" x2="21.2" y2="25.3"/>
	<line class="st0" x1="22.4" y1="9.4" x2="21.2" y2="12"/>
</g>
<path class="st0" d="M36,18.5C36,28.2,28.2,36,18.5,36C8.8,36,1,28.2,1,18.5C1,8.8,8.8,1,18.5,1C28.2,1,36,8.8,36,18.5z"/>
</svg>
