<?xml version="1.0" encoding="utf-8"?>
<!-- Generator: Adobe Illustrator 24.1.3, SVG Export Plug-In . SVG Version: 6.00 Build 0)  -->
<svg version="1.1" id="Layer_12" xmlns="http://www.w3.org/2000/svg" xmlns:xlink="http://www.w3.org/1999/xlink" x="0px" y="0px"
	 viewBox="0 0 37 37" style="enable-background:new 0 0 37 37;" xml:space="preserve">
<style type="text/css">
	
		.st0{fill-rule:evenodd;clip-rule:evenodd;fill:none;stroke:#1475A2;stroke-width:2;stroke-linecap:round;stroke-linejoin:round;stroke-miterlimit:3;}
	.st1{fill:none;stroke:#1475A2;stroke-width:2;stroke-miterlimit:10;}
</style>
<g>
	<path class="st0" d="M21.1,12.6c0,0,0.1,0,0.1,0h4.3L21,8.5L21.1,12.6C21,12.6,21.1,12.6,21.1,12.6z"/>
	<path class="st0" d="M23.1,20.8c0,1.2-0.5,2.3-1.4,3.1c-0.9,0.9-2,1.4-3.3,1.4c-1.3,0-2.4-0.5-3.3-1.4c-0.9-0.9-1.4-2-1.4-3.3
		c0-1.3,0.5-2.4,1.4-3.3c0.9-0.9,2-1.4,3.3-1.4c1.3,0,2.4,0.5,3.3,1.4c0.9,0.9,1.3,1.9,1.4,3.1V20.8z"/>
	<path class="st0" d="M21,8.5h-7.9c-0.5,0-0.8,0.2-1.2,0.5c-0.3,0.3-0.5,0.7-0.5,1.2v16.7c0,0.5,0.2,0.8,0.5,1.2
		c0.3,0.3,0.7,0.5,1.2,0.5h10.8c0.5,0,0.8-0.2,1.2-0.5c0.3-0.3,0.5-0.7,0.5-1.2V12.7"/>
	<polyline class="st0" points="20.3,22.1 18.5,20.3 18.5,18.7 	"/>
</g>
<path class="st1" d="M36,18.5C36,28.2,28.2,36,18.5,36C8.8,36,1,28.2,1,18.5C1,8.8,8.8,1,18.5,1C28.2,1,36,8.8,36,18.5z"/>
</svg>
