<?xml version="1.0" encoding="utf-8"?>
<!-- Generator: Adobe Illustrator 24.1.3, SVG Export Plug-In . SVG Version: 6.00 Build 0)  -->
<svg version="1.1" id="Layer_5" xmlns="http://www.w3.org/2000/svg" xmlns:xlink="http://www.w3.org/1999/xlink" x="0px" y="0px"
	 viewBox="0 0 224 224.1" style="enable-background:new 0 0 224 224.1;" xml:space="preserve">
<style type="text/css">
	.st0{fill-rule:evenodd;clip-rule:evenodd;fill:#FFFBEB;}
	.st1{fill:none;stroke:#B9FDEB;stroke-width:3;stroke-miterlimit:10;}
	.st2{fill:none;stroke:#39250F;stroke-width:4.5;stroke-miterlimit:8;}
	.st3{fill-rule:evenodd;clip-rule:evenodd;fill:#D0905C;}
	.st4{fill-rule:evenodd;clip-rule:evenodd;fill:#1475A2;}
</style>
<ellipse class="st0" cx="112" cy="112" rx="112" ry="112"/>
<g>
	<path class="st1" d="M51.9,148.4c7.7-18.6,15.4-37.1,28-43.8c12.6-6.7,38.4,8.3,47.5,3.7c9.1-4.7,1.6-24.3,7.3-31.6
		c5.7-7.3,16.2-9.7,26.8-12.2"/>
	<path class="st2" d="M53.2,151.8c7.7-18.6,15.4-37.2,28-43.9c12.6-6.7,38.4,8.3,47.5,3.7c9.1-4.7,1.6-24.4,7.3-31.7
		c5.7-7.3,16.2-9.8,26.8-12.2"/>
	<path class="st1" d="M55.3,155.1c7.7-18.6,15.4-37.2,28-43.9c12.6-6.7,38.4,8.3,47.5,3.7c9.1-4.7,1.6-24.4,7.3-31.7
		c5.7-7.3,16.2-9.8,26.8-12.2"/>
	<polygon class="st3" points="37,164.2 44.6,150.8 52.1,164.2 37,164.2 	"/>
	<polygon class="st4" points="171.9,73.3 179.4,59.8 187,73.3 171.9,73.3 	"/>
</g>
</svg>
