<?xml version="1.0" encoding="utf-8"?>
<!-- Generator: Adobe Illustrator 24.1.3, SVG Export Plug-In . SVG Version: 6.00 Build 0)  -->
<svg version="1.1" id="Layer_5" xmlns="http://www.w3.org/2000/svg" xmlns:xlink="http://www.w3.org/1999/xlink" x="0px" y="0px"
	 viewBox="0 0 1166.8 182.5" style="enable-background:new 0 0 1166.8 182.5;" xml:space="preserve">
<style type="text/css">
	.st0{fill:#1475A2;}
</style>
<g>
	<path class="st0" d="M73.8,141.6C73.8,141.6,73.8,141.6,73.8,141.6c0,0-9.8-10.9-9.8-10.9h2.6c3,0,5.5-2.5,5.5-5.5
		c0-1.3-0.4-2.5-1.2-3.5c0,0,0,0,0,0c0,0-8.3-9.2-8.3-9.2h1.3c2.4,0,4.4-2,4.4-4.4c0-1-0.4-2-1-2.8c0,0,0,0,0,0c0,0-6.4-7.1-6.4-7.1
		h0.5c1.9,0,3.5-1.6,3.5-3.5c0-0.8-0.3-1.6-0.8-2.2c0,0,0,0,0,0c0,0-7.8-8.6-7.8-8.6c-0.7-0.8-1.6-1.7-2.9-1.7
		c-1.3,0-2.2,0.9-2.9,1.7l-7.8,8.6c0,0,0,0,0,0C42.3,93.2,42,94,42,94.8c0,1.9,1.6,3.5,3.5,3.5h0.6l-6.4,7.1c0,0,0,0,0,0
		c-0.6,0.8-1,1.8-1,2.8c0,2.4,2,4.4,4.4,4.4h1.3l-8.3,9.2c0,0,0,0,0,0c-0.8,1-1.2,2.2-1.2,3.5c0,3,2.5,5.5,5.5,5.5H43l-9.8,10.9
		c0,0,0,0,0,0c-0.9,1.1-1.4,2.5-1.4,4c0,3.5,2.9,6.4,6.4,6.4h10.9v7.5c0,0.3,0.2,0.5,0.5,0.5h8c0.3,0,0.5-0.2,0.5-0.5V152h10.9
		c3.5,0,6.4-2.9,6.4-6.4C75.2,144.2,74.7,142.8,73.8,141.6z M43,94.8c0-0.6,0.2-1.2,0.6-1.6l7.8-8.6c0.9-1,1.5-1.4,2.2-1.4
		c0.7,0,1.4,0.4,2.2,1.4c0,0,7.8,8.6,7.8,8.6c0.4,0.5,0.6,1,0.6,1.6c0,1.4-1.2,2.6-2.6,2.6h-8c0,0-8,0-8,0
		C44.1,97.4,43,96.2,43,94.8z M39.6,108.2c0-0.8,0.3-1.6,0.8-2.2l6.9-7.7h6.2c0,0,6.2,0,6.2,0l6.9,7.7c0.5,0.6,0.8,1.4,0.8,2.2
		c0,1.9-1.6,3.5-3.5,3.5H53.5H43.2C41.2,111.7,39.6,110.1,39.6,108.2z M35.8,125.3c0-1.1,0.4-2,1-2.9l8.8-9.8h7.9h7.8l8.8,9.8
		c0.7,0.8,1,1.8,1,2.9c0,2.5-2.1,4.6-4.6,4.6H53.5H40.4C37.9,129.8,35.8,127.8,35.8,125.3z M57,159h-7v-7h3.5H57V159z M68.9,151.1
		H57.5h-4h-4H38.2c-3,0-5.4-2.4-5.4-5.4c0-1.3,0.4-2.4,1.2-3.4l10.3-11.5h9.2h9.2l10.3,11.5c0.8,1,1.2,2.2,1.2,3.4
		C74.3,148.6,71.9,151.1,68.9,151.1z"/>
	<g>
		<path class="st0" d="M565.7,160.2H36c-0.3,0-0.5-0.2-0.5-0.5c0-0.3,0.2-0.5,0.5-0.5h529.7c0.3,0,0.5,0.2,0.5,0.5
			C566.2,160,566,160.2,565.7,160.2z"/>
	</g>
	<g>
		<path class="st0" d="M94.8,169.8H20.2c-0.3,0-0.5-0.2-0.5-0.5c0-0.3,0.2-0.5,0.5-0.5h74.6c0.3,0,0.5,0.2,0.5,0.5
			C95.2,169.6,95,169.8,94.8,169.8z"/>
	</g>
	<g>
		<path class="st0" d="M166.6,169.8h-47.2c-0.3,0-0.5-0.2-0.5-0.5c0-0.3,0.2-0.5,0.5-0.5h47.2c0.3,0,0.5,0.2,0.5,0.5
			C167.1,169.6,166.9,169.8,166.6,169.8z"/>
	</g>
	<g>
		<path class="st0" d="M90.4,182.5H78.8c-0.3,0-0.5-0.2-0.5-0.5c0-0.3,0.2-0.5,0.5-0.5h11.7c0.3,0,0.5,0.2,0.5,0.5
			C90.9,182.3,90.7,182.5,90.4,182.5z"/>
	</g>
	<g>
		<path class="st0" d="M375.4,182.5H174c-0.3,0-0.5-0.2-0.5-0.5c0-0.3,0.2-0.5,0.5-0.5h201.4c0.3,0,0.5,0.2,0.5,0.5
			C375.9,182.3,375.7,182.5,375.4,182.5z"/>
	</g>
	<g>
		<path class="st0" d="M269.6,169.8H211c-0.3,0-0.5-0.2-0.5-0.5c0-0.3,0.2-0.5,0.5-0.5h58.6c0.3,0,0.5,0.2,0.5,0.5
			C270.1,169.6,269.9,169.8,269.6,169.8z"/>
	</g>
	<g>
		<path class="st0" d="M487.4,169.8H443c-0.3,0-0.5-0.2-0.5-0.5c0-0.3,0.2-0.5,0.5-0.5h44.4c0.3,0,0.5,0.2,0.5,0.5
			C487.9,169.6,487.7,169.8,487.4,169.8z"/>
	</g>
	<g>
		<path class="st0" d="M488.8,182.5h-16.1c-0.3,0-0.5-0.2-0.5-0.5c0-0.3,0.2-0.5,0.5-0.5h16.1c0.3,0,0.5,0.2,0.5,0.5
			C489.3,182.3,489.1,182.5,488.8,182.5z"/>
	</g>
	<path class="st0" d="M88,20.4c-7.2,0-14,32.7-14,58c0,10.1,1.1,18.5,3.1,24.4c2.3,6.8,5.8,10.4,10.5,10.6v46.3
		c0,0.3,0.2,0.5,0.5,0.5c0.3,0,0.5-0.2,0.5-0.5v-46.3c4.6-0.2,8.2-3.8,10.5-10.6c2-5.9,3.1-14.4,3.1-24.4
		C102,53.1,95.2,20.4,88,20.4z M98.1,102.6c-2.2,6.4-5.4,9.8-9.6,10V88.1l6.7-7.5c0.2-0.2,0.2-0.5,0-0.6c-0.2-0.2-0.5-0.2-0.6,0
		l-6,6.8V71.1l7.2-8c0.2-0.2,0.2-0.5,0-0.6c-0.2-0.2-0.5-0.2-0.6,0l-6.5,7.3V48.3c0-0.3-0.2-0.5-0.5-0.5c-0.3,0-0.5,0.2-0.5,0.5
		v14.3l-4-4.5c-0.2-0.2-0.5-0.2-0.6,0c-0.2,0.2-0.2,0.5,0,0.6l4.7,5.2v15.1l-6-6.7c-0.2-0.2-0.5-0.2-0.6,0c-0.2,0.2-0.2,0.5,0,0.6
		l6.6,7.5v14.1l-4-4.5c-0.2-0.2-0.5-0.2-0.6,0c-0.2,0.2-0.2,0.5,0,0.6l4.7,5.2v16.5c-4.2-0.2-7.4-3.6-9.6-10c-2-5.8-3-14.2-3-24.1
		c0-12.4,1.6-26.8,4.3-38.5c2.7-11.5,6-18.6,8.7-18.6c2.7,0,6.1,7.1,8.7,18.6c2.7,11.7,4.3,26.1,4.3,38.5
		C101.1,88.4,100,96.8,98.1,102.6z"/>
	<path class="st0" d="M27,93.3c-1.1-4.8-3.4-12.9-6.5-12.9c-3.1,0-5.4,8.1-6.5,12.9c-1.8,7.8-2.9,17.3-2.9,25.5
		c0,6.7,0.7,12.2,2,16.1c1.5,4.4,3.8,6.8,6.7,7.1v17.6c0,0.3,0.2,0.5,0.5,0.5c0.3,0,0.5-0.2,0.5-0.5V142c3.1-0.1,5.5-2.5,7-7.1
		c1.3-3.9,2-9.5,2-16.1C29.9,110.6,28.8,101,27,93.3z M27,134.6c-1.4,4.1-3.5,6.3-6.2,6.5V131l3.9-4.3c0.2-0.2,0.2-0.5,0-0.6
		c-0.2-0.2-0.5-0.2-0.6,0l-3.2,3.6V121l4.1-4.6c0.2-0.2,0.2-0.5,0-0.6c-0.2-0.2-0.5-0.2-0.6,0l-3.4,3.9v-11.9c0-0.3-0.2-0.5-0.5-0.5
		c-0.3,0-0.5,0.2-0.5,0.5v7.8l-2-2.2c-0.2-0.2-0.5-0.2-0.6,0c-0.2,0.2-0.2,0.5,0,0.6l2.7,3v8.2l-3.1-3.5c-0.2-0.2-0.5-0.2-0.6,0
		c-0.2,0.2-0.2,0.5,0,0.6l3.8,4.3v7.7l-2-2.2c-0.2-0.2-0.5-0.2-0.6,0c-0.2,0.2-0.2,0.5,0,0.6l2.7,3v5.5c-2.5-0.3-4.5-2.5-5.9-6.4
		c-1.3-3.8-2-9.3-2-15.9c0-18.1,5-37.5,8.5-37.5c3.5,0,8.5,19.4,8.5,37.5C28.9,125.4,28.3,130.8,27,134.6z"/>
	<path class="st0" d="M350.3,145.5h-1.7v-3.3c0-1.4-3.3-1.7-5.3-1.7c-2,0-5.3,0.4-5.3,1.7v3.3h-1.7c-0.3,0-0.5,0.2-0.5,0.5v13.8
		c0,0.3,0.2,0.5,0.5,0.5c0.3,0,0.5-0.2,0.5-0.5v-13.3h1.3v9.6c0,1.4,3.3,1.7,5.3,1.7c2,0,5.3-0.4,5.3-1.7v-9.6h1.3v13.3
		c0,0.3,0.2,0.5,0.5,0.5c0.3,0,0.5-0.2,0.5-0.5v-13.8C350.7,145.7,350.5,145.5,350.3,145.5z M338.9,143.2c1.1,0.5,3,0.7,4.3,0.7
		c1.3,0,3.2-0.2,4.3-0.7v0.8c-0.2,0.3-1.6,0.8-4.3,0.8c-2.8,0-4.2-0.6-4.3-0.8V143.2z M343.3,141.3c2.7,0,4.1,0.6,4.3,0.8
		c-0.2,0.3-1.6,0.8-4.3,0.8c-2.7,0-4.1-0.6-4.3-0.8C339.2,141.9,340.6,141.3,343.3,141.3z M343.3,156.8c-2.8,0-4.2-0.6-4.3-0.9
		v-10.8c1.1,0.5,3,0.7,4.3,0.7c1.3,0,3.2-0.2,4.3-0.7V156C347.5,156.2,346.1,156.8,343.3,156.8z"/>
	<path class="st0" d="M195.7,149.9c0.7-1,1-2.2,1-3.4c0-3.4-2.7-6.1-6.1-6.1c-0.4,0-0.8,0-1.2,0.1c0-0.1,0-0.1,0-0.2
		c0-3.4-2.7-6.1-6.1-6.1c-2.6,0-4.9,1.6-5.7,4c-1.1-1-2.5-1.5-4-1.5c-3.4,0-6.1,2.7-6.1,6.1c0,1.1,0.3,2.1,0.8,3
		c-2.4,1.4-3.9,3.9-3.9,6.7c0,4.2,3.4,7.7,7.7,7.7h19.2c3.4,0,6.1-2.7,6.1-6.1C197.4,152.6,196.8,151.1,195.7,149.9z M191.3,159.3
		h-19.2c-3.7,0-6.8-3-6.8-6.8c0-2.5,1.4-4.8,3.5-6c0.1,0,0.1-0.1,0.1-0.1c0.1,0,0.1,0,0.2-0.1c0.2-0.1,0.3-0.4,0.1-0.6
		c-0.6-0.9-0.9-1.9-0.9-2.9c0-2.9,2.3-5.2,5.2-5.2c1.4,0,2.8,0.6,3.8,1.6c0.2,0.2,0.4,0.2,0.6,0.1c0.2,0,0.3-0.2,0.4-0.3
		c0.6-2.3,2.7-3.8,5-3.8c2.9,0,5.2,2.3,5.2,5.2c0,0.2,0,0.3,0,0.5c0,0,0,0.1,0,0.1c0,0.1,0,0.2,0,0.3c0.1,0.2,0.3,0.4,0.6,0.3
		c0.5-0.2,1-0.2,1.6-0.2c2.9,0,5.2,2.3,5.2,5.2c0,1.1-0.3,2.1-1,3c0,0,0,0,0,0.1c0,0,0,0-0.1,0c-0.2,0.2-0.2,0.5,0,0.6
		c1.1,1,1.7,2.4,1.7,3.8C196.5,157,194.2,159.3,191.3,159.3z"/>
	<path class="st0" d="M324.7,151.8c0.5-0.8,0.8-1.8,0.8-2.7c0-2.8-2.2-5-5-5c-0.3,0-0.6,0-0.9,0.1c0,0,0,0,0-0.1c0-2.8-2.2-5-5-5
		c-2.1,0-3.9,1.3-4.7,3.2c-0.9-0.8-2-1.2-3.2-1.2c-2.8,0-5,2.2-5,5c0,0.8,0.2,1.7,0.6,2.4c-1.9,1.1-3.1,3.2-3.1,5.4
		c0,3.5,2.8,6.3,6.3,6.3h15.5c2.8,0,5-2.2,5-5C326.1,154,325.6,152.7,324.7,151.8z M321.1,159.3h-15.5c-3,0-5.4-2.4-5.4-5.4
		c0-2,1.1-3.8,2.8-4.7c0,0,0.1-0.1,0.1-0.1c0,0,0.1,0,0.1-0.1c0.2-0.1,0.3-0.4,0.1-0.6c-0.5-0.7-0.7-1.5-0.7-2.3
		c0-2.3,1.8-4.1,4.1-4.1c1.1,0,2.2,0.5,3,1.3c0.2,0.2,0.4,0.2,0.6,0.1c0.2,0,0.3-0.2,0.4-0.3c0.5-1.8,2.1-3,4-3
		c2.3,0,4.1,1.8,4.1,4.1c0,0.1,0,0.3,0,0.4c0,0,0,0.1,0,0.1c0,0.1,0,0.2,0,0.3c0.1,0.2,0.3,0.4,0.6,0.3c0.4-0.1,0.8-0.2,1.2-0.2
		c2.3,0,4.1,1.8,4.1,4.1c0,0.9-0.3,1.7-0.8,2.4c0,0,0,0,0,0.1c0,0,0,0,0,0c-0.2,0.2-0.2,0.5,0,0.6c0.8,0.8,1.3,1.9,1.3,3
		C325.1,157.5,323.3,159.3,321.1,159.3z"/>
	<path class="st0" d="M519.9,150.9c0.6-0.9,0.9-2,0.9-3.1c0-3.1-2.5-5.5-5.5-5.5c-0.4,0-0.7,0-1.1,0.1c0,0,0-0.1,0-0.1
		c0-3.1-2.5-5.5-5.5-5.5c-2.3,0-4.4,1.4-5.2,3.6c-1-0.9-2.3-1.3-3.6-1.3c-3.1,0-5.5,2.5-5.5,5.5c0,0.9,0.2,1.9,0.7,2.7
		c-2.2,1.2-3.5,3.5-3.5,6c0,3.8,3.1,7,7,7h17.3c3.1,0,5.5-2.5,5.5-5.5C521.3,153.3,520.8,151.9,519.9,150.9z M515.8,159.3h-17.3
		c-3.3,0-6.1-2.7-6.1-6.1c0-2.2,1.2-4.3,3.2-5.3c0.1,0,0.1-0.1,0.1-0.1c0.1,0,0.1,0,0.2-0.1c0.2-0.1,0.3-0.4,0.1-0.6
		c-0.5-0.8-0.8-1.7-0.8-2.6c0-2.5,2.1-4.6,4.6-4.6c1.3,0,2.5,0.5,3.4,1.5c0.2,0.2,0.4,0.2,0.6,0.1c0.2,0,0.3-0.2,0.4-0.3
		c0.5-2,2.4-3.4,4.5-3.4c2.5,0,4.6,2.1,4.6,4.6c0,0.1,0,0.3,0,0.4c0,0,0,0.1,0,0.1c0,0.1,0,0.2,0,0.3c0.1,0.2,0.3,0.4,0.6,0.3
		c0.5-0.1,0.9-0.2,1.4-0.2c2.5,0,4.6,2.1,4.6,4.6c0,1-0.3,1.9-0.9,2.7c0,0,0,0,0,0.1c0,0,0,0,0,0c-0.2,0.2-0.2,0.5,0,0.6
		c0.9,0.9,1.5,2.1,1.5,3.4C520.4,157.2,518.4,159.3,515.8,159.3z"/>
	<path class="st0" d="M417.3,25.1c-1.2,0-1.7,0.8-2.1,1.4c-0.4,0.6-0.7,1-1.5,1c0,0-0.1,0-0.1,0c0,0-0.1,0-0.1,0
		c-0.8,0-1.1-0.5-1.5-1c-0.3-0.4-0.6-0.9-1.2-1.2c-0.1-0.1-0.2-0.2-0.4-0.2c-0.1,0-0.2,0-0.3,0c-0.1,0-0.2,0-0.3,0
		c-0.1,0-0.3,0.1-0.4,0.2c-0.6,0.3-0.9,0.8-1.2,1.2c-0.4,0.6-0.7,1-1.5,1c0,0-0.1,0-0.1,0c0,0-0.1,0-0.1,0c-0.8,0-1.1-0.5-1.5-1
		c-0.4-0.6-0.9-1.4-2.1-1.4c0,0-0.1,0-0.1,0c0,0-0.1,0-0.1,0c-1.2,0-1.7,0.8-2.1,1.4c-0.4,0.6-0.7,1-1.5,1c0,0-0.1,0-0.1,0
		c0,0-0.1,0-0.1,0c-0.8,0-1.1-0.5-1.5-1c-0.4-0.6-0.9-1.4-2.1-1.4c0,0-0.1,0-0.1,0c0,0-0.1,0-0.1,0c-1.2,0-1.7,0.8-2.1,1.4
		c-0.4,0.6-0.7,1-1.5,1c-0.3,0-0.5,0.2-0.5,0.5c0,0.3,0.2,0.5,0.5,0.5c1.3,0,1.9-0.8,2.3-1.4c0.4-0.6,0.7-1,1.3-1c0,0,0.1,0,0.1,0
		c0,0,0.1,0,0.1,0c0.7,0,0.9,0.3,1.3,1c0.4,0.6,1,1.4,2.3,1.4c0,0,0.1,0,0.1,0c0,0,0.1,0,0.1,0c1.3,0,1.9-0.8,2.3-1.4
		c0.4-0.6,0.7-1,1.3-1c0,0,0.1,0,0.1,0c0,0,0.1,0,0.1,0c0.7,0,0.9,0.3,1.3,1c0.4,0.6,1,1.4,2.3,1.4c0,0,0.1,0,0.1,0c0,0,0.1,0,0.1,0
		c1.3,0,1.9-0.8,2.3-1.4c0.3-0.5,0.6-0.9,1.1-0.9c0.5,0.1,0.7,0.4,1.1,0.9c0.4,0.6,1,1.4,2.3,1.4c0,0,0.1,0,0.1,0c0,0,0.1,0,0.1,0
		c1.3,0,1.9-0.8,2.3-1.4c0.4-0.6,0.7-1,1.3-1c0.3,0,0.5-0.2,0.5-0.5C417.8,25.3,417.6,25.1,417.3,25.1z"/>
	<path class="st0" d="M46.5,54.1c-1.2,0-1.7,0.8-2.1,1.4c-0.4,0.6-0.7,1-1.5,1c0,0-0.1,0-0.1,0c0,0-0.1,0-0.1,0
		c-0.8,0-1.1-0.5-1.5-1c-0.3-0.4-0.6-0.9-1.2-1.2c-0.1-0.1-0.2-0.2-0.4-0.2c-0.1,0-0.2,0-0.3,0c-0.1,0-0.2,0-0.3,0
		c-0.1,0-0.3,0.1-0.4,0.2c-0.6,0.3-0.9,0.8-1.2,1.2c-0.4,0.6-0.7,1-1.5,1c0,0-0.1,0-0.1,0c0,0-0.1,0-0.1,0c-0.8,0-1.1-0.5-1.5-1
		c-0.4-0.6-0.9-1.4-2.1-1.4c0,0-0.1,0-0.1,0c0,0-0.1,0-0.1,0c-1.2,0-1.7,0.8-2.1,1.4c-0.4,0.6-0.7,1-1.5,1c0,0-0.1,0-0.1,0
		c0,0-0.1,0-0.1,0c-0.8,0-1.1-0.5-1.5-1c-0.4-0.6-0.9-1.4-2.1-1.4c0,0-0.1,0-0.1,0c0,0-0.1,0-0.1,0c-1.2,0-1.7,0.8-2.1,1.4
		c-0.4,0.6-0.7,1-1.5,1c-0.3,0-0.5,0.2-0.5,0.5c0,0.3,0.2,0.5,0.5,0.5c1.3,0,1.9-0.8,2.3-1.4c0.4-0.6,0.7-1,1.3-1c0,0,0.1,0,0.1,0
		c0,0,0.1,0,0.1,0c0.7,0,0.9,0.3,1.3,1c0.4,0.6,1,1.4,2.3,1.4c0,0,0.1,0,0.1,0c0,0,0.1,0,0.1,0c1.3,0,1.9-0.8,2.3-1.4
		c0.4-0.6,0.7-1,1.3-1c0,0,0.1,0,0.1,0c0,0,0.1,0,0.1,0c0.7,0,0.9,0.3,1.3,1c0.4,0.6,1,1.4,2.3,1.4c0,0,0.1,0,0.1,0c0,0,0.1,0,0.1,0
		c1.3,0,1.9-0.8,2.3-1.4c0.4-0.5,0.6-0.9,1.1-0.9c0.5,0.1,0.7,0.4,1.1,0.9c0.4,0.6,1,1.4,2.3,1.4c0,0,0.1,0,0.1,0c0,0,0.1,0,0.1,0
		c1.3,0,1.9-0.8,2.3-1.4c0.4-0.6,0.7-1,1.3-1c0.3,0,0.5-0.2,0.5-0.5C46.9,54.3,46.7,54.1,46.5,54.1z"/>
	<path class="st0" d="M473.8,12.4c-0.8,0-1.5,0.2-2.1,0.7c0,0,0,0,0,0c-0.4-2.8-2.9-5-5.8-5c-1.2,0-2.3,0.3-3.2,1
		c-1.2-2.9-4-4.8-7.2-4.8c-1.1,0-2.1,0.2-3.1,0.7c-1.8-3-5-4.9-8.5-4.9c-5.5,0-9.9,4.4-9.9,9.9c0,5.5,4.4,9.9,9.9,9.9
		c0,0,0.1,0,0.1,0c0,0,0.1,0,0.1,0h29.7c2,0,3.7-1.6,3.7-3.7C477.5,14.1,475.8,12.4,473.8,12.4z M473.8,18.9h-29.7c0,0-0.1,0-0.1,0
		c0,0-0.1,0-0.1,0c-4.9,0-9-4-9-9c0-4.9,4-9,9-9c3.3,0,6.3,1.8,7.9,4.7c0.1,0.2,0.4,0.3,0.6,0.2c0.1,0,0.2,0,0.3,0
		c0.9-0.4,1.9-0.6,2.9-0.6c2.9,0,5.5,1.8,6.4,4.5c0.1,0.2,0.2,0.3,0.4,0.3c0,0,0,0,0,0c0.2,0.1,0.4,0.1,0.6,0c0.9-0.6,1.9-1,2.9-1
		c2.4,0,4.5,1.8,4.9,4.2c0,0.2,0.1,0.5,0.1,0.7c0,0.3,0.2,0.5,0.5,0.5c0.2,0,0.3-0.1,0.4-0.3c0.1,0,0.2,0,0.3-0.1
		c0.5-0.4,1.1-0.7,1.8-0.7c1.5,0,2.7,1.2,2.7,2.7C476.5,17.6,475.3,18.9,473.8,18.9z"/>
	<path class="st0" d="M284.7,12.9h-1.3v-1.3c0-0.3-0.2-0.5-0.5-0.5c-0.3,0-0.5,0.2-0.5,0.5v1.3h-1.3c-0.3,0-0.5,0.2-0.5,0.5
		c0,0.3,0.2,0.5,0.5,0.5h1.3v1.3c0,0.3,0.2,0.5,0.5,0.5c0.3,0,0.5-0.2,0.5-0.5v-1.3h1.3c0.3,0,0.5-0.2,0.5-0.5
		C285.2,13.1,285,12.9,284.7,12.9z"/>
	<path class="st0" d="M489.2,44h-1.3v-1.3c0-0.3-0.2-0.5-0.5-0.5c-0.3,0-0.5,0.2-0.5,0.5V44h-1.3c-0.3,0-0.5,0.2-0.5,0.5
		c0,0.3,0.2,0.5,0.5,0.5h1.3v1.3c0,0.3,0.2,0.5,0.5,0.5c0.3,0,0.5-0.2,0.5-0.5V45h1.3c0.3,0,0.5-0.2,0.5-0.5
		C489.6,44.2,489.4,44,489.2,44z"/>
	<g>
		<g>
			<path class="st0" d="M98.5,8.1c-0.3,0-0.5-0.2-0.5-0.5V4.1c0-0.3,0.2-0.5,0.5-0.5c0.3,0,0.5,0.2,0.5,0.5v3.6
				C98.9,7.9,98.7,8.1,98.5,8.1z"/>
		</g>
		<g>
			<path class="st0" d="M100.3,6.3h-3.6c-0.3,0-0.5-0.2-0.5-0.5c0-0.3,0.2-0.5,0.5-0.5h3.6c0.3,0,0.5,0.2,0.5,0.5
				C100.7,6.1,100.5,6.3,100.3,6.3z"/>
		</g>
	</g>
	<g>
		<path class="st0" d="M238.2,38.5c-0.1,0-0.2,0-0.3-0.1l-2.5-2.5c-0.1-0.1-0.1-0.2-0.1-0.3c0-0.1,0-0.2,0.1-0.3l2.5-2.5
			c0.1-0.1,0.2-0.1,0.3-0.1c0.1,0,0.2,0,0.3,0.1l2.5,2.5c0.2,0.2,0.2,0.5,0,0.6l-2.5,2.5C238.5,38.5,238.3,38.5,238.2,38.5z
			 M236.3,35.5l1.9,1.9l1.9-1.9l-1.9-1.9L236.3,35.5z"/>
	</g>
	<path class="st0" d="M568.6,77.6l-2.5-2.5c-0.2-0.2-0.5-0.2-0.6,0l-2.5,2.5c-0.2,0.2-0.2,0.5,0,0.6l2.5,2.5
		c0.1,0.1,0.2,0.1,0.3,0.1c0.1,0,0.2,0,0.3-0.1l2.5-2.5C568.8,78.1,568.8,77.8,568.6,77.6z M565.7,79.8l-1.9-1.9l1.9-1.9l1.9,1.9
		L565.7,79.8z"/>
	<g>
		<path class="st0" d="M3,75.7c-0.1,0-0.2,0-0.3-0.1l-2.5-2.5C0,73,0,72.9,0,72.7c0-0.1,0-0.2,0.1-0.3l2.5-2.5
			c0.2-0.2,0.5-0.2,0.6,0l2.5,2.5c0.2,0.2,0.2,0.5,0,0.6l-2.5,2.5C3.2,75.7,3.1,75.7,3,75.7z M1.1,72.7L3,74.6l1.9-1.9L3,70.8
			L1.1,72.7z"/>
	</g>
	<path class="st0" d="M306,115.6c-3.7,0-6.7,3-6.7,6.7c0,1.9,0.8,3.6,2.1,4.8l-6,7.9v-20.4c8.1-0.2,14.7-6.9,14.7-15.2
		c0-8.4-6.8-15.2-15.2-15.2c-7.5,0-13.7,5.4-14.9,12.6c-5.4,0.1-9.8,4.6-9.8,10c0,5.5,4.5,10,10,10c1.5,0,3-0.3,4.3-1l10,15.5v27.7
		c0,0.3,0.2,0.5,0.5,0.5c0.3,0,0.5-0.2,0.5-0.5v-22.7l6.7-8.9c1.1,0.8,2.4,1.3,3.9,1.3c3.7,0,6.7-3,6.7-6.7
		C312.7,118.6,309.7,115.6,306,115.6z M295,85.3c7.9,0,14.2,6.4,14.2,14.2c0,7.7-6.1,14-13.8,14.2V94.2c0-0.3-0.2-0.5-0.5-0.5
		c-0.3,0-0.5,0.2-0.5,0.5v19.6c-7.6-0.2-13.8-6.5-13.8-14.2C280.7,91.7,287.1,85.3,295,85.3z M280.3,116.1c-5,0-9.1-4.1-9.1-9.1
		c0-4.9,3.9-8.9,8.8-9.1c-0.1,0.6-0.1,1.1-0.1,1.7c0,5.6,3,10.5,7.6,13.1c-0.7,0.9-1.6,1.6-2.5,2.2l-6-9.4c-0.1-0.2-0.4-0.3-0.6-0.1
		c-0.2,0.1-0.3,0.4-0.1,0.6l6,9.4C282.9,115.8,281.6,116.1,280.3,116.1z M285.4,115.6c1.1-0.6,2-1.5,2.8-2.5c1.9,1,4.1,1.5,6.3,1.6
		v15.2L285.4,115.6z M306,128.1c-1.3,0-2.4-0.4-3.4-1.1l4.6-6c0.2-0.2,0.1-0.5-0.1-0.6c-0.2-0.2-0.5-0.1-0.6,0.1l-4.5,6
		c-1.1-1-1.7-2.5-1.7-4.1c0-3.2,2.6-5.8,5.8-5.8c3.2,0,5.8,2.6,5.8,5.8C311.8,125.5,309.2,128.1,306,128.1z"/>
	<path class="st0" d="M581.6,146.5l-13.5-61.6c0,0,0,0,0,0c0,0,0,0,0,0c0,0,0,0,0,0c0,0,0,0,0,0c0,0,0,0,0,0c0,0,0,0,0,0
		c0,0,0,0,0,0c0,0,0,0,0,0c0,0,0,0-0.1,0c0,0,0,0,0,0c0,0,0,0-0.1,0c0,0-0.1,0-0.1,0c0,0,0,0,0,0c0,0,0,0,0,0c0,0,0,0-0.1,0
		c0,0-0.1,0-0.1,0c0,0,0,0,0,0c0,0,0,0-0.1,0c0,0,0,0,0,0c0,0,0,0,0,0c0,0,0,0,0,0c0,0,0,0,0,0c0,0,0,0,0,0c0,0,0,0,0,0c0,0,0,0,0,0
		c0,0,0,0,0,0l-13.5,61.6c0,0.1,0,0.3,0.1,0.4c0.1,0.1,0.2,0.2,0.4,0.2h10.8v12.6c0,0.3,0.2,0.5,0.5,0.5h4.7c0.3,0,0.5-0.2,0.5-0.5
		V147h10.8c0.1,0,0.3-0.1,0.4-0.2S581.6,146.6,581.6,146.5z M569.5,159.2h-3.7V147h1.9h1.9V159.2z M569.9,146.1h-2.3h-2.3h-10.6
		l13-59l13,59H569.9z"/>
	<path class="st0" d="M545.5,139.1l-14.2-64.3c0,0,0,0,0,0c0,0,0,0,0,0c0,0,0,0,0,0c0,0,0,0,0,0c0,0,0,0,0,0c0,0,0,0,0,0
		c0,0,0,0,0,0c0,0,0,0,0,0c0,0,0,0-0.1,0c0,0,0,0,0,0c0,0,0,0-0.1,0c0,0-0.1,0-0.1,0c0,0,0,0,0,0c0,0,0,0,0,0c0,0,0,0-0.1,0
		c0,0-0.1,0-0.1,0c0,0,0,0,0,0c0,0,0,0-0.1,0c0,0,0,0,0,0c0,0,0,0,0,0c0,0,0,0,0,0c0,0,0,0,0,0c0,0,0,0,0,0c0,0,0,0,0,0c0,0,0,0,0,0
		c0,0,0,0,0,0l-14.2,64.3c0,0.1,0,0.3,0.1,0.4c0.1,0.1,0.2,0.2,0.4,0.2h11.4v20c0,0.3,0.2,0.5,0.5,0.5h4.7c0.3,0,0.5-0.2,0.5-0.5
		v-20H545c0.1,0,0.3-0.1,0.4-0.2C545.5,139.4,545.5,139.2,545.5,139.1z M532.7,159.2H529v-19.6h1.9h1.9V159.2z M533.2,138.7h-2.3
		h-2.3h-11.3L530.9,77l13.6,61.8H533.2z"/>
	<g>
		<path class="st0" d="M295,108.7c-0.1,0-0.2,0-0.3-0.1c-0.2-0.2-0.2-0.5,0-0.6l5.2-5.8c0.2-0.2,0.5-0.2,0.6,0
			c0.2,0.2,0.2,0.5,0,0.6l-5.2,5.8C295.2,108.6,295.1,108.7,295,108.7z"/>
	</g>
	<g>
		<path class="st0" d="M294.8,104.1c-0.1,0-0.3-0.1-0.3-0.2l-4.9-5.5c-0.2-0.2-0.2-0.5,0-0.6c0.2-0.2,0.5-0.2,0.6,0l4.9,5.5
			c0.2,0.2,0.2,0.5,0,0.6C295,104.1,294.9,104.1,294.8,104.1z"/>
	</g>
	<g>
		<path class="st0" d="M303.6,125.6c-0.2,0-0.4-0.2-0.5-0.4l-0.5-4.4c0-0.3,0.2-0.5,0.4-0.5c0.3,0,0.5,0.2,0.5,0.4l0.5,4.4
			C304,125.3,303.9,125.5,303.6,125.6C303.6,125.6,303.6,125.6,303.6,125.6z"/>
	</g>
	<g>
		<path class="st0" d="M307.9,124.4C307.9,124.4,307.8,124.4,307.9,124.4l-3.1-0.5c-0.3,0-0.4-0.3-0.4-0.5c0-0.2,0.3-0.4,0.5-0.4
			l3.1,0.5c0.2,0,0.4,0.3,0.4,0.5C308.3,124.2,308.1,124.4,307.9,124.4z"/>
	</g>
	<g>
		<path class="st0" d="M282.9,113.2C282.9,113.2,282.9,113.1,282.9,113.2l-5.5-1c-0.2,0-0.4-0.3-0.4-0.5c0-0.2,0.3-0.4,0.5-0.4
			l5.4,1c0.2,0,0.4,0.3,0.4,0.5C283.3,113,283.1,113.2,282.9,113.2z"/>
	</g>
	<g>
		<path class="st0" d="M281.4,110.8c0,0-0.1,0-0.1,0c-0.2-0.1-0.4-0.3-0.3-0.6l0.9-3.3c0.1-0.2,0.3-0.4,0.6-0.3
			c0.2,0.1,0.4,0.3,0.3,0.6l-0.9,3.3C281.8,110.6,281.6,110.8,281.4,110.8z"/>
	</g>
	<path class="st0" d="M443.6,104.1c-4.2,0-7.6,3.4-7.6,7.6c0,1.7,0.6,3.3,1.6,4.6l-10.4,10.4v-16l11-11c1.4,1.4,3.3,2.2,5.3,2.2
		c4.2,0,7.6-3.4,7.6-7.6c0-4.2-3.4-7.6-7.6-7.6c-4.2,0-7.6,3.4-7.6,7.6c0,1.8,0.6,3.4,1.6,4.7l-10.4,10.4V81.7
		c7.3-0.2,13.2-6.3,13.2-13.6c0-7.5-6.1-13.6-13.6-13.6c-7.5,0-13.6,6.1-13.6,13.6c0,7.4,5.9,13.4,13.2,13.6v19.1l-10.3-10.3
		c1.4-1.4,2.3-3.3,2.3-5.4c0-4.2-3.4-7.6-7.6-7.6c-4.2,0-7.6,3.4-7.6,7.6c0,4.2,3.4,7.6,7.6,7.6c1.7,0,3.3-0.6,4.6-1.6l11,11v16.7
		l-10.2-10.2c1.7-1.4,2.8-3.5,2.8-5.9c0-4.2-3.4-7.6-7.6-7.6c-4.2,0-7.6,3.4-7.6,7.6c0,4.2,3.4,7.6,7.6,7.6c1.5,0,2.8-0.4,4-1.2
		l11,11v39.7c0,0.3,0.2,0.5,0.5,0.5c0.3,0,0.5-0.2,0.5-0.5V128l11-11c1.4,1.4,3.3,2.3,5.4,2.3c4.2,0,7.6-3.4,7.6-7.6
		C451.1,107.5,447.7,104.1,443.6,104.1z M436.9,94.3c0-3.7,3-6.6,6.6-6.6c3.7,0,6.6,3,6.6,6.6c0,3.7-3,6.6-6.6,6.6
		c-1.8,0-3.5-0.7-4.7-1.9l3.5-3.5c0.2-0.2,0.2-0.5,0-0.6c-0.2-0.2-0.5-0.2-0.6,0l-3.4,3.4C437.4,97.2,436.9,95.8,436.9,94.3z
		 M410.7,91.7c-3.7,0-6.6-3-6.6-6.6c0-3.7,3-6.6,6.6-6.6c3.7,0,6.6,3,6.6,6.6c0,1.9-0.8,3.5-2,4.7l-4.3-4.3c-0.2-0.2-0.5-0.2-0.6,0
		c-0.2,0.2-0.2,0.5,0,0.6l4.3,4.3C413.5,91.2,412.1,91.7,410.7,91.7z M411.3,109.3c-3.7,0-6.6-3-6.6-6.6c0-3.7,3-6.6,6.6-6.6
		c3.7,0,6.6,3,6.6,6.6c0,2.1-1,4-2.5,5.2l-4-4c-0.2-0.2-0.5-0.2-0.6,0c-0.2,0.2-0.2,0.5,0,0.6l3.9,3.9
		C413.7,109,412.5,109.3,411.3,109.3z M414,68c0-7,5.7-12.7,12.7-12.7c7,0,12.7,5.7,12.7,12.7c0,6.9-5.5,12.5-12.3,12.7v-9.5
		c0-0.3-0.2-0.5-0.5-0.5c-0.3,0-0.5,0.2-0.5,0.5v9.5C419.5,80.5,414,74.9,414,68z M443.6,118.3c-1.8,0-3.5-0.8-4.7-2l3-3
		c0.2-0.2,0.2-0.5,0-0.6c-0.2-0.2-0.5-0.2-0.6,0l-3,3c-0.8-1.1-1.3-2.5-1.3-4c0-3.7,3-6.6,6.6-6.6c3.7,0,6.6,3,6.6,6.6
		S447.2,118.3,443.6,118.3z"/>
	<path class="st0" d="M203.2,75.8L215.1,64c1.5,1.2,3.4,2,5.5,2c4.8,0,8.7-3.9,8.7-8.7c0-4.8-3.9-8.7-8.7-8.7
		c-4.8,0-8.7,3.9-8.7,8.7c0,2.4,0.9,4.5,2.5,6.1l-11.2,11.2V55l12.3-12.3c1.5,1.4,3.6,2.2,5.8,2.2c4.8,0,8.7-3.9,8.7-8.7
		c0-4.8-3.9-8.7-8.7-8.7c-4.8,0-8.7,3.9-8.7,8.7c0,2.2,0.8,4.2,2.2,5.8l-11.7,11.7V31.4c8.4-0.2,15.2-7.2,15.2-15.7
		c0-8.7-7-15.7-15.7-15.7c-8.7,0-15.7,7-15.7,15.7c0,8.5,6.8,15.4,15.2,15.7v32.3l-12.4-12.4c1.3-1.5,2-3.4,2-5.6
		c0-4.8-3.9-8.7-8.7-8.7c-4.8,0-8.7,3.9-8.7,8.7s3.9,8.7,8.7,8.7c2.3,0,4.5-0.9,6-2.4l13,13v18.8l-12.5-12.5
		c1.3-1.5,2.1-3.5,2.1-5.7c0-4.8-3.9-8.7-8.7-8.7c-4.8,0-8.7,3.9-8.7,8.7c0,4.8,3.9,8.7,8.7,8.7c2.3,0,4.4-0.9,5.9-2.3L202.3,85
		v18.1L190,90.8c1.2-1.5,2-3.4,2-5.5c0-4.8-3.9-8.7-8.7-8.7c-4.8,0-8.7,3.9-8.7,8.7c0,4.8,3.9,8.7,8.7,8.7c2.4,0,4.5-0.9,6.1-2.5
		l13,13v55.2c0,0.3,0.2,0.5,0.5,0.5c0.3,0,0.5-0.2,0.5-0.5V97.7l12-12c1.5,1.2,3.3,1.9,5.4,1.9c4.8,0,8.7-3.9,8.7-8.7
		c0-4.8-3.9-8.7-8.7-8.7c-4.8,0-8.7,3.9-8.7,8.7c0,2.4,1,4.6,2.6,6.2l-11.3,11.3V75.8z M212.8,57.3c0-4.3,3.5-7.8,7.8-7.8
		c4.3,0,7.8,3.5,7.8,7.8c0,4.3-3.5,7.8-7.8,7.8c-1.8,0-3.5-0.6-4.9-1.7l5.4-5.4c0.2-0.2,0.2-0.5,0-0.6c-0.2-0.2-0.5-0.2-0.6,0
		l-5.5,5.5C213.7,61.3,212.8,59.4,212.8,57.3z M213.6,36.3c0-4.3,3.5-7.8,7.8-7.8c4.3,0,7.8,3.5,7.8,7.8c0,4.3-3.5,7.8-7.8,7.8
		c-2,0-3.8-0.8-5.2-2l5.5-5.5c0.2-0.2,0.2-0.5,0-0.6c-0.2-0.2-0.5-0.2-0.6,0l-5.5,5.5C214.3,40,213.6,38.2,213.6,36.3z M183.3,53.5
		c-4.3,0-7.8-3.5-7.8-7.8c0-4.3,3.5-7.8,7.8-7.8c4.3,0,7.8,3.5,7.8,7.8c0,1.9-0.7,3.6-1.8,4.9l-3.9-3.9c-0.2-0.2-0.5-0.2-0.6,0
		c-0.2,0.2-0.2,0.5,0,0.6l3.9,3.9C187.3,52.7,185.4,53.5,183.3,53.5z M183.3,73.3c-4.3,0-7.8-3.5-7.8-7.8c0-4.3,3.5-7.8,7.8-7.8
		c4.3,0,7.8,3.5,7.8,7.8c0,1.9-0.7,3.7-1.9,5l-3.2-3.2c-0.2-0.2-0.5-0.2-0.6,0c-0.2,0.2-0.2,0.5,0,0.6l3.3,3.3
		C187.2,72.6,185.3,73.3,183.3,73.3z M183.3,93.1c-4.3,0-7.8-3.5-7.8-7.8c0-4.3,3.5-7.8,7.8-7.8c4.3,0,7.8,3.5,7.8,7.8
		c0,1.8-0.6,3.5-1.7,4.9l-3.4-3.4c-0.2-0.2-0.5-0.2-0.6,0c-0.2,0.2-0.2,0.5,0,0.6l3.4,3.4C187.3,92.2,185.4,93.1,183.3,93.1z
		 M212.8,78.9c0-4.3,3.5-7.8,7.8-7.8c4.3,0,7.8,3.5,7.8,7.8c0,4.3-3.5,7.8-7.8,7.8c-1.8,0-3.4-0.6-4.7-1.6l5.3-5.3
		c0.2-0.2,0.2-0.5,0-0.6c-0.2-0.2-0.5-0.2-0.6,0l-5.3,5.3C213.7,83,212.8,81,212.8,78.9z M188,15.7c0-8.1,6.6-14.8,14.8-14.8
		c8.2,0,14.8,6.6,14.8,14.8c0,8-6.4,14.5-14.3,14.8V19.4c0-0.3-0.2-0.5-0.5-0.5c-0.3,0-0.5,0.2-0.5,0.5v11.1
		C194.4,30.2,188,23.7,188,15.7z"/>
	<path class="st0" d="M286.3,146.6c-0.1,0-0.2,0-0.3,0c0.5-1,0.7-2.1,0.7-3c0-3.7-3-6.6-6.6-6.6c-1.2,0-2.3,0.3-3.3,0.9
		c-0.4-1.7-1.9-3-3.7-3c-0.6,0-1.1,0.1-1.6,0.4c0-0.4,0.1-0.8,0.1-1.2c0-5-4.1-9.2-9.2-9.2c-3,0-5.7,1.4-7.4,3.8
		c-0.4-2.9-2.9-5.1-5.8-5.1c-1.7,0-3.2,0.7-4.3,1.9c-0.4-1.6-1.9-2.8-3.7-2.8c-1.8,0-3.3,1.3-3.7,3c-1.1-1-2.5-1.6-4.1-1.6
		c-2,0-3.9,1.2-5,2.9c-1.1-0.8-2.5-1.3-3.9-1.3c-3.7,0-6.7,3-6.7,6.7c0,1.4,0.3,2.6,0.9,3.6c-0.9-0.3-1.9-0.5-2.9-0.5
		c-5,0-9.2,4.1-9.2,9.2c0,3.1,1.5,5.9,3.9,7.6c-1.8,0.4-3.2,2-3.2,4c0,2.2,1.8,4,4.1,4h75c3.7,0,6.8-3.1,6.8-6.9
		C293,149.6,290,146.6,286.3,146.6z M286.2,159.3h-75c-1.8,0-3.2-1.4-3.2-3.1c0-1.7,1.4-3.2,3.2-3.2c0.3,0,0.6,0,0.9,0.1
		c0.2,0.1,0.5-0.1,0.6-0.3c0.1-0.2-0.1-0.5-0.3-0.6c0,0,0,0-0.1,0c-3-1.3-5-4.3-5-7.7c0-4.5,3.7-8.2,8.2-8.2c1.6,0,3.1,0.4,4.4,1.3
		c0,0,0.1,0,0.1,0c0,0,0,0,0,0c0,0,0.1,0,0.1,0c0.1,0,0.1,0,0.1,0c0,0,0.1,0,0.1,0c0,0,0,0,0,0c0,0,0,0,0.1,0c0,0,0,0,0,0
		c0,0,0,0,0,0c0,0,0,0,0,0c0,0,0,0,0,0c0,0,0,0,0,0c0,0,0,0,0,0c0,0,0,0,0,0c0,0,0,0,0,0c0,0,0,0,0,0c0,0,0,0,0,0c0,0,0,0,0,0
		c0,0,0,0,0,0c0,0,0,0,0,0c0,0,0,0,0,0c0,0,0,0,0,0c0,0,0,0,0,0c0,0,0,0,0,0c0,0,0,0,0,0c0,0,0,0,0,0c0,0,0,0,0,0c0,0,0,0,0,0
		c-1.3-1-2.1-2.6-2.1-4.6c0-3.2,2.6-5.8,5.8-5.8c1.4,0,2.7,0.5,3.8,1.4c0,0,0,0,0,0c0,0,0,0,0,0c0,0,0,0,0,0c0,0,0,0,0.1,0
		c0,0,0,0,0,0c0,0,0,0,0.1,0c0,0,0,0,0,0c0.1,0,0.2,0,0.2-0.1c0,0,0,0,0,0c0,0,0,0,0.1-0.1c0,0,0,0,0,0c0,0,0-0.1,0.1-0.1
		c0.9-1.7,2.7-2.9,4.5-2.9c1.6,0,3.1,0.8,4,2c0.2,0.2,0.4,0.2,0.6,0.1c0.1-0.1,0.2-0.2,0.2-0.3c0-0.1,0.1-0.1,0.1-0.2
		c0-1.6,1.3-2.9,2.9-2.9c1.6,0,2.9,1.3,2.9,2.9c0,0.2,0.1,0.3,0.2,0.4c0,0,0.1,0.1,0.1,0.1c0.2,0.1,0.5,0.1,0.6-0.1
		c0.9-1.4,2.5-2.3,4.2-2.3c2.7,0,5,2.2,5,5c0,0.2,0,0.3,0,0.5c0,0.1,0,0.1,0,0.2c0,0.2,0.1,0.3,0.3,0.4c0.2,0.1,0.5,0,0.6-0.2
		c1.4-2.8,4.2-4.6,7.4-4.6c4.5,0,8.2,3.7,8.2,8.2c0,0.6-0.1,1.2-0.2,1.8c0,0,0,0.1,0,0.1c-0.1,0.2-0.1,0.4,0.1,0.5
		c0.2,0.2,0.5,0.2,0.6,0c0.5-0.5,1.2-0.8,2-0.8c1.6,0,2.9,1.3,2.9,2.9c0,0,0,0.1,0,0.1c0,0,0,0,0,0c0,0,0,0,0,0.1c0,0,0,0,0,0
		c0,0,0,0,0,0.1c0,0,0,0,0,0c0,0,0,0,0,0c0.2,0.2,0.4,0.2,0.6,0c1-0.8,2.2-1.1,3.4-1.1c3.2,0,5.7,2.6,5.7,5.7c0,1-0.4,2.4-1,3.3
		c0,0,0,0,0,0c0,0,0,0,0,0c0,0,0,0,0,0c0,0,0,0,0,0c0,0,0,0,0,0c0,0,0,0,0,0c0,0,0,0,0,0c0,0,0,0,0,0c0,0,0,0,0,0.1c0,0,0,0,0,0
		c0,0,0,0,0,0c0,0,0,0,0,0c0,0,0,0,0,0c0,0,0,0,0,0c0,0,0,0,0,0c0,0,0,0,0,0c0,0,0,0,0,0c0,0,0,0,0,0c0,0,0.1,0,0.1,0c0,0,0,0,0,0
		c0,0,0.1,0,0.1,0c0,0,0,0,0,0c0,0,0,0,0.1,0c0.3-0.1,0.7-0.1,1-0.1c3.2,0,5.8,2.6,5.8,5.8C292.1,156.6,289.4,159.3,286.2,159.3z"/>
	<path class="st0" d="M15.3,144.3c-5.6,0-10.1,4.5-10.1,10.1c0,1.9,0.5,3.7,1.5,5.3c0.1,0.1,0.2,0.2,0.4,0.2l16.4,0.1
		c0.2,0,0.3-0.1,0.4-0.2c1-1.6,1.6-3.5,1.6-5.5C25.4,148.8,20.9,144.3,15.3,144.3z M23.2,159.2L7.3,159c-0.8-1.4-1.3-3-1.3-4.6
		c0-5.1,4.1-9.2,9.2-9.2s9.2,4.1,9.2,9.2C24.5,156.1,24,157.7,23.2,159.2z"/>
	<path class="st0" d="M31.5,29.9c-2.8,0-5.3,1.5-6.7,3.8c-0.8-0.3-1.6-0.5-2.4-0.5c-2.5,0-4.7,1.5-5.7,3.7c-0.7-0.5-1.6-0.7-2.5-0.7
		c-2.2,0-4.2,1.6-4.6,3.8c-0.5-0.3-1-0.5-1.6-0.5c-1.6,0-3,1.3-3,3c0,1.6,1.3,3,3,3h23.2c0,0,0.1,0,0.1,0c0,0,0.1,0,0.1,0
		c4.3,0,7.8-3.5,7.8-7.8C39.3,33.4,35.8,29.9,31.5,29.9z M31.5,44.6c0,0-0.1,0-0.1,0c0,0-0.1,0-0.1,0H8.1c-1.1,0-2-0.9-2-2
		s0.9-2,2-2c0.5,0,1,0.2,1.3,0.5c0.1,0.1,0.2,0.1,0.2,0.1c0.1,0.1,0.2,0.2,0.4,0.2c0.3,0,0.5-0.2,0.5-0.5c0-0.2,0-0.4,0-0.6
		c0.3-1.8,1.9-3.2,3.7-3.2c0.8,0,1.6,0.3,2.2,0.7c0.2,0.1,0.4,0.1,0.5,0c0.2,0,0.4-0.1,0.4-0.3c0.7-2.1,2.7-3.5,4.9-3.5
		c0.8,0,1.5,0.2,2.2,0.5c0.1,0,0.2,0,0.2,0c0.2,0.1,0.5,0,0.6-0.2c1.2-2.3,3.5-3.7,6.1-3.7c3.8,0,6.9,3.1,6.9,6.9
		C38.4,41.5,35.3,44.6,31.5,44.6z"/>
	<g>
		<path class="st0" d="M141.6,16.9h-15.8c-0.3,0-0.5-0.2-0.5-0.5c0-0.3,0.2-0.5,0.5-0.5h15.8c0.3,0,0.5,0.2,0.5,0.5
			C142,16.7,141.8,16.9,141.6,16.9z"/>
	</g>
	<g>
		<path class="st0" d="M148.5,23.1h-14.8c-0.3,0-0.5-0.2-0.5-0.5c0-0.3,0.2-0.5,0.5-0.5h14.8c0.3,0,0.5,0.2,0.5,0.5
			C149,22.9,148.8,23.1,148.5,23.1z"/>
	</g>
	<g>
		<path class="st0" d="M484.3,69.8h-5.8c-0.3,0-0.5-0.2-0.5-0.5s0.2-0.5,0.5-0.5h5.8c0.3,0,0.5,0.2,0.5,0.5S484.5,69.8,484.3,69.8z"
			/>
	</g>
	<g>
		<path class="st0" d="M373.2,6.3h-5.8c-0.3,0-0.5-0.2-0.5-0.5c0-0.3,0.2-0.5,0.5-0.5h5.8c0.3,0,0.5,0.2,0.5,0.5
			C373.7,6.1,373.5,6.3,373.2,6.3z"/>
	</g>
	<g>
		<path class="st0" d="M425.9,46.2h-3.8c-0.3,0-0.5-0.2-0.5-0.5c0-0.3,0.2-0.5,0.5-0.5h3.8c0.3,0,0.5,0.2,0.5,0.5
			C426.4,46,426.2,46.2,425.9,46.2z"/>
	</g>
	<g>
		<path class="st0" d="M261.4,71.1h-3.8c-0.3,0-0.5-0.2-0.5-0.5c0-0.3,0.2-0.5,0.5-0.5h3.8c0.3,0,0.5,0.2,0.5,0.5
			C261.9,70.9,261.7,71.1,261.4,71.1z"/>
	</g>
	<g>
		<path class="st0" d="M545.7,83.9h-3.8c-0.3,0-0.5-0.2-0.5-0.5s0.2-0.5,0.5-0.5h3.8c0.3,0,0.5,0.2,0.5,0.5S545.9,83.9,545.7,83.9z"
			/>
	</g>
	<g>
		<path class="st0" d="M146.3,104.7h-3.8c-0.3,0-0.5-0.2-0.5-0.5c0-0.3,0.2-0.5,0.5-0.5h3.8c0.3,0,0.5,0.2,0.5,0.5
			C146.8,104.5,146.6,104.7,146.3,104.7z"/>
	</g>
	<g>
		<path class="st0" d="M504.1,23.1h-5.9c-0.3,0-0.5-0.2-0.5-0.5c0-0.3,0.2-0.5,0.5-0.5h5.9c0.3,0,0.5,0.2,0.5,0.5
			C504.6,22.9,504.4,23.1,504.1,23.1z"/>
	</g>
	<g>
		<path class="st0" d="M244.5,6.3h-6.3c-0.3,0-0.5-0.2-0.5-0.5c0-0.3,0.2-0.5,0.5-0.5h6.3c0.3,0,0.5,0.2,0.5,0.5
			C245,6.1,244.8,6.3,244.5,6.3z"/>
	</g>
	<g>
		<path class="st0" d="M313.4,61.6h-6.3c-0.3,0-0.5-0.2-0.5-0.5c0-0.3,0.2-0.5,0.5-0.5h6.3c0.3,0,0.5,0.2,0.5,0.5
			C313.9,61.4,313.7,61.6,313.4,61.6z"/>
	</g>
	<g>
		<path class="st0" d="M67,12.5h-6.9c-0.3,0-0.5-0.2-0.5-0.5c0-0.3,0.2-0.5,0.5-0.5H67c0.3,0,0.5,0.2,0.5,0.5
			C67.4,12.2,67.2,12.5,67,12.5z"/>
	</g>
	<g>
		<path class="st0" d="M545.2,24.1h-6.9c-0.3,0-0.5-0.2-0.5-0.5c0-0.3,0.2-0.5,0.5-0.5h6.9c0.3,0,0.5,0.2,0.5,0.5
			C545.6,23.9,545.4,24.1,545.2,24.1z"/>
	</g>
	<g>
		<path class="st0" d="M135.8,53.7h-5.2c-0.3,0-0.5-0.2-0.5-0.5s0.2-0.5,0.5-0.5h5.2c0.3,0,0.5,0.2,0.5,0.5S136,53.7,135.8,53.7z"/>
	</g>
	<g>
		<path class="st0" d="M127.5,94.6c-1.3,0-2.4-1.1-2.4-2.4c0-1.3,1.1-2.4,2.4-2.4c1.4,0,2.4,1.1,2.4,2.4
			C129.9,93.5,128.8,94.6,127.5,94.6z M127.5,90.6c-0.8,0-1.5,0.7-1.5,1.5c0,0.8,0.7,1.5,1.5,1.5c0.8,0,1.5-0.7,1.5-1.5
			C129,91.3,128.3,90.6,127.5,90.6z"/>
	</g>
	<g>
		<path class="st0" d="M358.5,63.6c-1.3,0-2.4-1.1-2.4-2.4c0-1.3,1.1-2.4,2.4-2.4c1.3,0,2.4,1.1,2.4,2.4
			C361,62.5,359.9,63.6,358.5,63.6z M358.5,59.6c-0.8,0-1.5,0.7-1.5,1.5c0,0.8,0.7,1.5,1.5,1.5c0.8,0,1.5-0.7,1.5-1.5
			C360.1,60.3,359.4,59.6,358.5,59.6z"/>
	</g>
	<g>
		<path class="st0" d="M516.7,12c-1.3,0-2.4-1.1-2.4-2.4c0-1.3,1.1-2.4,2.4-2.4c1.3,0,2.4,1.1,2.4,2.4C519.1,10.9,518,12,516.7,12z
			 M516.7,8c-0.8,0-1.5,0.7-1.5,1.5c0,0.8,0.7,1.5,1.5,1.5c0.8,0,1.5-0.7,1.5-1.5C518.2,8.7,517.5,8,516.7,8z"/>
	</g>
	<g>
		<path class="st0" d="M375.4,36.5h-34c4.4-1.8,7.5-6.2,7.5-11.2c0-6.7-5.4-12.1-12.1-12.1c-4.4,0-8.4,2.3-10.5,6.1
			c-1.2-0.6-2.5-0.8-3.9-0.8c-3.9,0-7.4,2.4-8.8,6c-1.2-0.8-2.6-1.3-4-1.3c-3.5,0-6.5,2.6-7,6c0,0.1,0,0.2,0,0.2
			c-0.8-0.6-1.7-0.9-2.7-0.9c-2.4,0-4.4,2-4.4,4.4c0,1.4,0.7,2.7,1.7,3.5h-32.2c-0.3,0-0.5,0.2-0.5,0.5c0,0.3,0.2,0.5,0.5,0.5h34.9
			c0.3,0,0.5-0.2,0.5-0.5c0-0.3-0.2-0.5-0.5-0.5c-1.9,0-3.5-1.6-3.5-3.5c0-1.9,1.6-3.5,3.5-3.5c0.9,0,1.7,0.3,2.3,0.9
			c0.1,0.1,0.3,0.1,0.4,0.1c0.1,0.2,0.2,0.3,0.4,0.3c0.3,0,0.5-0.2,0.5-0.5c0-0.3,0-0.6,0.1-0.9c0.4-3,3.1-5.3,6.1-5.3
			c1.3,0,2.6,0.4,3.7,1.2c0.2,0.1,0.4,0.1,0.6,0c0,0,0,0,0.1,0c0.2,0,0.4-0.1,0.4-0.3c1.2-3.4,4.5-5.7,8.1-5.7
			c1.3,0,2.5,0.3,3.6,0.8c0.1,0,0.2,0.1,0.3,0c0,0,0,0,0,0c0.2,0.1,0.5,0,0.6-0.2c2-3.7,5.7-5.9,9.9-5.9c6.2,0,11.2,5,11.2,11.2
			c0,6.2-5,11.2-11.2,11.2h-10.6c-0.3,0-0.5,0.2-0.5,0.5c0,0.3,0.2,0.5,0.5,0.5h49.2c0.3,0,0.5-0.2,0.5-0.5
			C375.8,36.7,375.6,36.5,375.4,36.5z"/>
		<path class="st0" d="M319.3,36.5h-3.6c-0.3,0-0.5,0.2-0.5,0.5c0,0.3,0.2,0.5,0.5,0.5h3.6c0.3,0,0.5-0.2,0.5-0.5
			C319.7,36.7,319.5,36.5,319.3,36.5z"/>
		<path class="st0" d="M308.2,43.5h-30.6c-0.3,0-0.5,0.2-0.5,0.5c0,0.3,0.2,0.5,0.5,0.5h30.6c0.3,0,0.5-0.2,0.5-0.5
			C308.6,43.7,308.4,43.5,308.2,43.5z"/>
		<path class="st0" d="M350.5,43.5h-13c-0.3,0-0.5,0.2-0.5,0.5c0,0.3,0.2,0.5,0.5,0.5h13c0.3,0,0.5-0.2,0.5-0.5
			C350.9,43.7,350.7,43.5,350.5,43.5z"/>
	</g>
	<g>
		<path class="st0" d="M530.3,59.4h-21c-0.3,0-0.5-0.2-0.5-0.5c0-0.3,0.2-0.5,0.5-0.5h21c0.3,0,0.5,0.2,0.5,0.5
			C530.8,59.2,530.5,59.4,530.3,59.4z"/>
	</g>
	<path class="st0" d="M567.2,51H556c2.3-1.3,3.8-3.7,3.8-6.4c0-4.1-3.3-7.3-7.3-7.3c-2.6,0-5,1.4-6.3,3.6c-0.7-0.3-1.5-0.5-2.2-0.5
		c-2.3,0-4.4,1.4-5.3,3.5c-0.7-0.4-1.5-0.6-2.3-0.6c-2.1,0-3.9,1.5-4.3,3.6c-0.4-0.3-0.9-0.4-1.5-0.4c-1.5,0-2.8,1.3-2.8,2.8
		c0,0.7,0.3,1.4,0.7,1.9h-7.1c-0.3,0-0.5,0.2-0.5,0.5c0,0.3,0.2,0.5,0.5,0.5h9.2c0.3,0,0.5-0.2,0.5-0.5c0-0.3-0.2-0.5-0.5-0.5
		c-1,0-1.9-0.8-1.9-1.9c0-1,0.8-1.9,1.9-1.9c0.5,0,0.9,0.2,1.2,0.5c0.1,0.1,0.2,0.1,0.2,0.1c0.1,0.1,0.2,0.2,0.4,0.2
		c0.3,0,0.5-0.2,0.5-0.5c0-0.2,0-0.3,0-0.5c0.2-1.7,1.7-3,3.4-3c0.8,0,1.5,0.2,2.1,0.7c0.2,0.1,0.4,0.1,0.5,0c0.2,0,0.3-0.1,0.4-0.3
		c0.7-1.9,2.5-3.2,4.6-3.2c0.7,0,1.4,0.2,2.1,0.5c0.1,0,0.2,0,0.2,0c0.2,0.1,0.5,0,0.6-0.2c1.1-2.1,3.3-3.4,5.7-3.4
		c3.5,0,6.4,2.9,6.4,6.4c0,3.5-2.9,6.4-6.4,6.4H540c-0.3,0-0.5,0.2-0.5,0.5c0,0.3,0.2,0.5,0.5,0.5h12.5h0.9h13.7
		c0.3,0,0.5-0.2,0.5-0.5C567.6,51.2,567.4,51,567.2,51z"/>
	<path class="st0" d="M149.6,130c-0.8,0-1.4,0.6-1.4,1.4c0,0.8,0.6,1.4,1.4,1.4c0.8,0,1.4-0.6,1.4-1.4
		C151.1,130.6,150.4,130,149.6,130z M149.6,132c-0.3,0-0.5-0.2-0.5-0.5c0-0.3,0.2-0.5,0.5-0.5c0.3,0,0.5,0.2,0.5,0.5
		C150.2,131.7,149.9,132,149.6,132z"/>
	<path class="st0" d="M149.6,142.2c0.8,0,1.4-0.6,1.4-1.4c0-0.8-0.6-1.4-1.4-1.4c-0.8,0-1.4,0.6-1.4,1.4
		C148.2,141.5,148.8,142.2,149.6,142.2z M149.6,140.2c0.3,0,0.5,0.2,0.5,0.5c0,0.3-0.2,0.5-0.5,0.5c-0.3,0-0.5-0.2-0.5-0.5
		C149.1,140.5,149.3,140.2,149.6,140.2z"/>
	<path class="st0" d="M101.1,130c-0.8,0-1.4,0.6-1.4,1.4c0,0.8,0.6,1.4,1.4,1.4c0.8,0,1.4-0.6,1.4-1.4
		C102.5,130.6,101.9,130,101.1,130z M101.1,132c-0.3,0-0.5-0.2-0.5-0.5c0-0.3,0.2-0.5,0.5-0.5c0.3,0,0.5,0.2,0.5,0.5
		C101.6,131.7,101.4,132,101.1,132z"/>
	<path class="st0" d="M101.1,142.2c0.8,0,1.4-0.6,1.4-1.4c0-0.8-0.6-1.4-1.4-1.4c-0.8,0-1.4,0.6-1.4,1.4
		C99.7,141.5,100.3,142.2,101.1,142.2z M101.1,140.2c0.3,0,0.5,0.2,0.5,0.5c0,0.3-0.2,0.5-0.5,0.5c-0.3,0-0.5-0.2-0.5-0.5
		C100.6,140.5,100.8,140.2,101.1,140.2z"/>
	<path class="st0" d="M157.1,134.9c0.3,0,0.5-0.2,0.5-0.5v-6.1c0-0.3-0.2-0.5-0.5-0.5h-5.9v-2.1c0-0.3-0.2-0.5-0.5-0.5h-2.2
		c-0.3,0-0.5,0.2-0.5,0.5v2.1h-45.4v-2.1c0-0.3-0.2-0.5-0.5-0.5H100c-0.3,0-0.5,0.2-0.5,0.5v2.1h-5c-0.3,0-0.5,0.2-0.5,0.5v6.1
		c0,0.3,0.2,0.5,0.5,0.5h5v2.3h-5c-0.3,0-0.5,0.2-0.5,0.5v6.1c0,0.3,0.2,0.5,0.5,0.5h5v3.1h-3.4c-0.3,0-0.5,0.2-0.5,0.5v3.2
		c0,0.3,0.2,0.5,0.5,0.5h3.4v8.3c0,0.3,0.2,0.5,0.5,0.5h2.2c0.3,0,0.5-0.2,0.5-0.5v-8.3h45.4v8.3c0,0.3,0.2,0.5,0.5,0.5h2.2
		c0.3,0,0.5-0.2,0.5-0.5v-8.3h4.3c0.3,0,0.5-0.2,0.5-0.5v-3.2c0-0.3-0.2-0.5-0.5-0.5h-4.3v-3.1h5.9c0.3,0,0.5-0.2,0.5-0.5v-6.1
		c0-0.3-0.2-0.5-0.5-0.5h-5.9v-2.3H157.1z M149,126.2h1.3v1.7H149V126.2z M100.4,126.2h1.3v1.7h-1.3V126.2z M101.8,159.3h-1.3v-7.9
		h1.3V159.3z M150.3,159.3H149v-7.9h1.3V159.3z M155,148.2v2.3h-4.3h-2.2h-46.3H100h-3.4v-2.3h3.4h2.2h46.3h2.2H155z M100.4,147.3
		v-3.1h1.3v3.1H100.4z M102.7,147.3v-3.1h45.4v3.1H102.7z M149,147.3v-3.1h1.3v3.1H149z M156.6,138.2v5.2H95v-5.2H156.6z
		 M100.4,137.2v-2.3h1.3v2.3H100.4z M102.7,137.2v-2.3h45.4v2.3H102.7z M149,137.2v-2.3h1.3v2.3H149z M95,134v-5.2h61.7v5.2H95z"/>
	<g>
		<rect x="407.5" y="126.2" class="st0" width="1.3" height="1.7"/>
		<path class="st0" d="M408.2,130c-0.8,0-1.4,0.6-1.4,1.4c0,0.8,0.6,1.4,1.4,1.4c0.8,0,1.4-0.6,1.4-1.4
			C409.6,130.6,409,130,408.2,130z M408.2,132c-0.3,0-0.5-0.2-0.5-0.5c0-0.3,0.2-0.5,0.5-0.5c0.3,0,0.5,0.2,0.5,0.5
			C408.7,131.7,408.5,132,408.2,132z"/>
		<path class="st0" d="M408.2,142.2c0.8,0,1.4-0.6,1.4-1.4c0-0.8-0.6-1.4-1.4-1.4c-0.8,0-1.4,0.6-1.4,1.4
			C406.7,141.5,407.4,142.2,408.2,142.2z M408.2,140.2c0.3,0,0.5,0.2,0.5,0.5c0,0.3-0.2,0.5-0.5,0.5c-0.3,0-0.5-0.2-0.5-0.5
			C407.7,140.5,407.9,140.2,408.2,140.2z"/>
		<path class="st0" d="M359.7,130c-0.8,0-1.4,0.6-1.4,1.4c0,0.8,0.6,1.4,1.4,1.4c0.8,0,1.4-0.6,1.4-1.4
			C361.1,130.6,360.4,130,359.7,130z M359.7,132c-0.3,0-0.5-0.2-0.5-0.5c0-0.3,0.2-0.5,0.5-0.5c0.3,0,0.5,0.2,0.5,0.5
			C360.2,131.7,359.9,132,359.7,132z"/>
		<path class="st0" d="M359.7,142.2c0.8,0,1.4-0.6,1.4-1.4c0-0.8-0.6-1.4-1.4-1.4c-0.8,0-1.4,0.6-1.4,1.4
			C358.2,141.5,358.9,142.2,359.7,142.2z M359.7,140.2c0.3,0,0.5,0.2,0.5,0.5c0,0.3-0.2,0.5-0.5,0.5c-0.3,0-0.5-0.2-0.5-0.5
			C359.1,140.5,359.4,140.2,359.7,140.2z"/>
		<path class="st0" d="M415.7,134.9c0.3,0,0.5-0.2,0.5-0.5v-6.1c0-0.3-0.2-0.5-0.5-0.5h-5.9v-2.1c0-0.3-0.2-0.5-0.5-0.5h-2.2
			c-0.3,0-0.5,0.2-0.5,0.5v2.1h-45.4v-2.1c0-0.3-0.2-0.5-0.5-0.5h-2.2c-0.3,0-0.5,0.2-0.5,0.5v2.1h-5c-0.3,0-0.5,0.2-0.5,0.5v6.1
			c0,0.3,0.2,0.5,0.5,0.5h5v2.3h-5c-0.3,0-0.5,0.2-0.5,0.5v6.1c0,0.3,0.2,0.5,0.5,0.5h5v3.1h-3.4c-0.3,0-0.5,0.2-0.5,0.5v3.2
			c0,0.3,0.2,0.5,0.5,0.5h3.4v8.3c0,0.3,0.2,0.5,0.5,0.5h2.2c0.3,0,0.5-0.2,0.5-0.5v-8.3h45.4v8.3c0,0.3,0.2,0.5,0.5,0.5h2.2
			c0.3,0,0.5-0.2,0.5-0.5v-8.3h4.3c0.3,0,0.5-0.2,0.5-0.5v-3.2c0-0.3-0.2-0.5-0.5-0.5h-4.3v-3.1h5.9c0.3,0,0.5-0.2,0.5-0.5v-6.1
			c0-0.3-0.2-0.5-0.5-0.5h-5.9v-2.3H415.7z M407.5,126.2h1.3v1.7h-1.3V126.2z M359,126.2h1.3v1.7H359V126.2z M360.3,159.3H359v-7.9
			h1.3V159.3z M408.8,159.3h-1.3v-7.9h1.3V159.3z M413.6,148.2v2.3h-4.3h-2.2h-46.3h-2.2h-3.4v-2.3h3.4h2.2h46.3h2.2H413.6z
			 M359,147.3v-3.1h1.3v3.1H359z M361.2,147.3v-3.1h45.4v3.1H361.2z M407.5,147.3v-3.1h1.3v3.1H407.5z M415.2,138.2v5.2h-61.7v-5.2
			H415.2z M359,137.2v-2.3h1.3v2.3H359z M361.2,137.2v-2.3h45.4v2.3H361.2z M407.5,137.2v-2.3h1.3v2.3H407.5z M353.5,134v-5.2h61.7
			v5.2H353.5z"/>
	</g>
	<g id="XMLID_10_">
		<g>
			<path class="st0" d="M464.9,98.6c0,0-6.3,7-6.3,7c-0.3,0.4-0.4,0.8-0.4,1.3c0,1.1,0.9,2,2,2h6.5c0,0,6.5,0,6.5,0c1.1,0,2-0.9,2-2
				c0-0.5-0.2-0.9-0.5-1.3l-6.3-7c-0.7-0.8-1.2-1.1-1.7-1.1C466,97.5,465.5,97.8,464.9,98.6C464.9,98.6,464.9,98.6,464.9,98.6z
				 M477.9,117.8c0-0.6-0.2-1.2-0.6-1.8l-5.6-6.3h-5c0,0-5,0-5,0l-5.6,6.3c-0.4,0.5-0.6,1.1-0.6,1.8c0,1.5,1.3,2.8,2.8,2.8h8.5h8.5
				C476.6,120.6,477.9,119.4,477.9,117.8z M452.4,128.9l6.6-7.3h-0.8c-2,0-3.7-1.7-3.7-3.7c0-0.8,0.3-1.7,0.8-2.3c0,0,0,0,0,0
				c0,0,5.1-5.7,5.1-5.7h-0.3c-1.6,0-3-1.3-3-3c0-0.7,0.2-1.3,0.7-1.9c0,0,0,0,0,0c0,0,6.4-7,6.4-7c0.6-0.7,1.4-1.4,2.4-1.4
				c1.1,0,1.8,0.7,2.4,1.4c0,0,6.4,7,6.4,7c0,0,0,0,0,0c0.4,0.5,0.7,1.2,0.7,1.9c0,1.6-1.3,3-3,3h-0.3l5.1,5.7c0,0,0,0,0,0
				c0.5,0.7,0.8,1.5,0.8,2.3c0,2-1.7,3.7-3.7,3.7h-0.9l6.6,7.3c0,0,0,0,0,0c0.3,0.4,0.6,0.9,0.8,1.3l-0.9,0.3
				c-0.1-0.4-0.3-0.7-0.6-1.1l-7.2-7.9h-6.4h-6.4l-7.2,7.9c-0.3,0.3-0.5,0.7-0.6,1.1l-0.9-0.3C451.8,129.8,452,129.3,452.4,128.9
				C452.4,128.9,452.4,128.9,452.4,128.9C452.4,128.9,452.4,128.9,452.4,128.9z"/>
			<path class="st0" d="M463.8,159.3h5.6v-5.6h-2.8h-2.8V159.3z M449.7,148.4c0,2.4,2,4.4,4.4,4.4h9.3h3.2h3.3h9.3
				c2.4,0,4.4-2,4.4-4.4c0-1-0.3-2-1-2.7l-8.4-9.3h-7.5h-7.5l-8.4,9.3C450,146.5,449.7,147.4,449.7,148.4z M475.3,136.4l7.9,8.7
				c0,0,0,0,0,0c0.8,0.9,1.2,2.1,1.2,3.3c0,2.9-2.4,5.3-5.3,5.3h-8.8v6c0,0.3-0.2,0.5-0.5,0.5h-6.5c-0.3,0-0.5-0.2-0.5-0.5v-6h-8.8
				c-2.9,0-5.3-2.4-5.3-5.3c0-1.2,0.4-2.4,1.2-3.3c0,0,0,0,0,0c0,0,7.9-8.7,7.9-8.7h-1.9c-2.5,0-4.6-2-4.6-4.6c0-0.5,0.1-1,0.3-1.5
				l0.9,0.3c-0.1,0.4-0.2,0.8-0.2,1.2c0,2,1.6,3.7,3.7,3.7h10.7h10.7c2,0,3.7-1.6,3.7-3.7c0-0.4-0.1-0.8-0.2-1.2l0.9-0.3
				c0.2,0.5,0.3,1,0.3,1.5c0,2.5-2,4.6-4.6,4.6H475.3z"/>
		</g>
	</g>
</g>
<g>
	<path class="st0" d="M659,141.6C659,141.6,659,141.6,659,141.6c0,0-9.8-10.9-9.8-10.9h2.6c3,0,5.5-2.5,5.5-5.5
		c0-1.3-0.4-2.5-1.2-3.5c0,0,0,0,0,0c0,0-8.3-9.2-8.3-9.2h1.3c2.4,0,4.4-2,4.4-4.4c0-1-0.4-2-1-2.8c0,0,0,0,0,0c0,0-6.4-7.1-6.4-7.1
		h0.5c1.9,0,3.5-1.6,3.5-3.5c0-0.8-0.3-1.6-0.8-2.2c0,0,0,0,0,0c0,0-7.8-8.6-7.8-8.6c-0.7-0.8-1.6-1.7-2.9-1.7
		c-1.3,0-2.2,0.9-2.9,1.7l-7.8,8.6c0,0,0,0,0,0c-0.5,0.6-0.8,1.4-0.8,2.2c0,1.9,1.6,3.5,3.5,3.5h0.6l-6.4,7.1c0,0,0,0,0,0
		c-0.6,0.8-1,1.8-1,2.8c0,2.4,2,4.4,4.4,4.4h1.3l-8.3,9.2c0,0,0,0,0,0c-0.8,1-1.2,2.2-1.2,3.5c0,3,2.5,5.5,5.5,5.5h2.6l-9.8,10.9
		c0,0,0,0,0,0c-0.9,1.1-1.4,2.5-1.4,4c0,3.5,2.9,6.4,6.4,6.4h10.9v7.5c0,0.3,0.2,0.5,0.5,0.5h8c0.3,0,0.5-0.2,0.5-0.5V152h10.9
		c3.5,0,6.4-2.9,6.4-6.4C660.4,144.2,659.9,142.8,659,141.6z M628.2,94.8c0-0.6,0.2-1.2,0.6-1.6l7.8-8.6c0.9-1,1.5-1.4,2.2-1.4
		c0.7,0,1.4,0.4,2.2,1.4c0,0,7.8,8.6,7.8,8.6c0.4,0.5,0.6,1,0.6,1.6c0,1.4-1.2,2.6-2.6,2.6h-8c0,0-8,0-8,0
		C629.4,97.4,628.2,96.2,628.2,94.8z M624.9,108.2c0-0.8,0.3-1.6,0.8-2.2l6.9-7.7h6.2c0,0,6.2,0,6.2,0l6.9,7.7
		c0.5,0.6,0.8,1.4,0.8,2.2c0,1.9-1.6,3.5-3.5,3.5h-10.4h-10.4C626.5,111.7,624.9,110.1,624.9,108.2z M621.1,125.3c0-1.1,0.4-2,1-2.9
		l8.8-9.8h7.9h7.8l8.8,9.8c0.7,0.8,1,1.8,1,2.9c0,2.5-2.1,4.6-4.6,4.6h-13.1h-13.1C623.1,129.8,621.1,127.8,621.1,125.3z M642.3,159
		h-7v-7h3.5h3.5V159z M654.1,151.1h-11.4h-4h-4h-11.4c-3,0-5.4-2.4-5.4-5.4c0-1.3,0.4-2.4,1.2-3.4l10.3-11.5h9.2h9.2l10.3,11.5
		c0.8,1,1.2,2.2,1.2,3.4C659.5,148.6,657.1,151.1,654.1,151.1z"/>
	<g>
		<path class="st0" d="M1151,160.2H621.3c-0.3,0-0.5-0.2-0.5-0.5c0-0.3,0.2-0.5,0.5-0.5H1151c0.3,0,0.5,0.2,0.5,0.5
			C1151.4,160,1151.2,160.2,1151,160.2z"/>
	</g>
	<g>
		<path class="st0" d="M680,169.8h-74.6c-0.3,0-0.5-0.2-0.5-0.5c0-0.3,0.2-0.5,0.5-0.5H680c0.3,0,0.5,0.2,0.5,0.5
			C680.5,169.6,680.3,169.8,680,169.8z"/>
	</g>
	<g>
		<path class="st0" d="M751.9,169.8h-47.2c-0.3,0-0.5-0.2-0.5-0.5c0-0.3,0.2-0.5,0.5-0.5h47.2c0.3,0,0.5,0.2,0.5,0.5
			C752.3,169.6,752.1,169.8,751.9,169.8z"/>
	</g>
	<g>
		<path class="st0" d="M675.7,182.5H664c-0.3,0-0.5-0.2-0.5-0.5c0-0.3,0.2-0.5,0.5-0.5h11.7c0.3,0,0.5,0.2,0.5,0.5
			C676.1,182.3,675.9,182.5,675.7,182.5z"/>
	</g>
	<g>
		<path class="st0" d="M960.7,182.5H759.2c-0.3,0-0.5-0.2-0.5-0.5c0-0.3,0.2-0.5,0.5-0.5h201.4c0.3,0,0.5,0.2,0.5,0.5
			C961.1,182.3,960.9,182.5,960.7,182.5z"/>
	</g>
	<g>
		<path class="st0" d="M854.9,169.8h-58.6c-0.3,0-0.5-0.2-0.5-0.5c0-0.3,0.2-0.5,0.5-0.5h58.6c0.3,0,0.5,0.2,0.5,0.5
			C855.3,169.6,855.1,169.8,854.9,169.8z"/>
	</g>
	<g>
		<path class="st0" d="M1072.6,169.8h-44.4c-0.3,0-0.5-0.2-0.5-0.5c0-0.3,0.2-0.5,0.5-0.5h44.4c0.3,0,0.5,0.2,0.5,0.5
			C1073.1,169.6,1072.9,169.8,1072.6,169.8z"/>
	</g>
	<g>
		<path class="st0" d="M1074.1,182.5H1058c-0.3,0-0.5-0.2-0.5-0.5c0-0.3,0.2-0.5,0.5-0.5h16.1c0.3,0,0.5,0.2,0.5,0.5
			C1074.5,182.3,1074.3,182.5,1074.1,182.5z"/>
	</g>
	<path class="st0" d="M673.2,20.4c-7.2,0-14,32.7-14,58c0,10.1,1.1,18.5,3.1,24.4c2.3,6.8,5.8,10.4,10.5,10.6v46.3
		c0,0.3,0.2,0.5,0.5,0.5c0.3,0,0.5-0.2,0.5-0.5v-46.3c4.6-0.2,8.2-3.8,10.5-10.6c2-5.9,3.1-14.4,3.1-24.4
		C687.2,53.1,680.4,20.4,673.2,20.4z M683.3,102.6c-2.2,6.4-5.4,9.8-9.6,10V88.1l6.7-7.5c0.2-0.2,0.2-0.5,0-0.6
		c-0.2-0.2-0.5-0.2-0.6,0l-6,6.8V71.1l7.2-8c0.2-0.2,0.2-0.5,0-0.6c-0.2-0.2-0.5-0.2-0.6,0l-6.5,7.3V48.3c0-0.3-0.2-0.5-0.5-0.5
		c-0.3,0-0.5,0.2-0.5,0.5v14.3l-4-4.5c-0.2-0.2-0.5-0.2-0.6,0c-0.2,0.2-0.2,0.5,0,0.6l4.7,5.2v15.1l-6-6.7c-0.2-0.2-0.5-0.2-0.6,0
		c-0.2,0.2-0.2,0.5,0,0.6l6.6,7.5v14.1l-4-4.5c-0.2-0.2-0.5-0.2-0.6,0c-0.2,0.2-0.2,0.5,0,0.6l4.7,5.2v16.5c-4.2-0.2-7.4-3.6-9.6-10
		c-2-5.8-3-14.2-3-24.1c0-12.4,1.6-26.8,4.3-38.5c2.7-11.5,6-18.6,8.7-18.6c2.7,0,6.1,7.1,8.7,18.6c2.7,11.7,4.3,26.1,4.3,38.5
		C686.3,88.4,685.3,96.8,683.3,102.6z"/>
	<path class="st0" d="M612.2,93.3c-1.1-4.8-3.4-12.9-6.5-12.9c-3.1,0-5.4,8.1-6.5,12.9c-1.8,7.8-2.9,17.3-2.9,25.5
		c0,6.7,0.7,12.2,2,16.1c1.5,4.4,3.8,6.8,6.7,7.1v17.6c0,0.3,0.2,0.5,0.5,0.5c0.3,0,0.5-0.2,0.5-0.5V142c3.1-0.1,5.5-2.5,7-7.1
		c1.3-3.9,2-9.5,2-16.1C615.1,110.6,614,101,612.2,93.3z M612.2,134.6c-1.4,4.1-3.5,6.3-6.2,6.5V131l3.9-4.3c0.2-0.2,0.2-0.5,0-0.6
		c-0.2-0.2-0.5-0.2-0.6,0l-3.2,3.6V121l4.1-4.6c0.2-0.2,0.2-0.5,0-0.6c-0.2-0.2-0.5-0.2-0.6,0l-3.4,3.9v-11.9c0-0.3-0.2-0.5-0.5-0.5
		c-0.3,0-0.5,0.2-0.5,0.5v7.8l-2-2.2c-0.2-0.2-0.5-0.2-0.6,0c-0.2,0.2-0.2,0.5,0,0.6l2.7,3v8.2l-3.1-3.5c-0.2-0.2-0.5-0.2-0.6,0
		c-0.2,0.2-0.2,0.5,0,0.6l3.8,4.3v7.7l-2-2.2c-0.2-0.2-0.5-0.2-0.6,0c-0.2,0.2-0.2,0.5,0,0.6l2.7,3v5.5c-2.5-0.3-4.5-2.5-5.9-6.4
		c-1.3-3.8-2-9.3-2-15.9c0-18.1,5-37.5,8.5-37.5c3.5,0,8.5,19.4,8.5,37.5C614.2,125.4,613.5,130.8,612.2,134.6z"/>
	<path class="st0" d="M935.5,145.5h-1.7v-3.3c0-1.4-3.3-1.7-5.3-1.7c-2,0-5.3,0.4-5.3,1.7v3.3h-1.7c-0.3,0-0.5,0.2-0.5,0.5v13.8
		c0,0.3,0.2,0.5,0.5,0.5c0.3,0,0.5-0.2,0.5-0.5v-13.3h1.3v9.6c0,1.4,3.3,1.7,5.3,1.7c2,0,5.3-0.4,5.3-1.7v-9.6h1.3v13.3
		c0,0.3,0.2,0.5,0.5,0.5c0.3,0,0.5-0.2,0.5-0.5v-13.8C936,145.7,935.8,145.5,935.5,145.5z M924.2,143.2c1.1,0.5,3,0.7,4.3,0.7
		c1.3,0,3.2-0.2,4.3-0.7v0.8c-0.2,0.3-1.6,0.8-4.3,0.8c-2.8,0-4.2-0.6-4.3-0.8V143.2z M928.5,141.3c2.7,0,4.1,0.6,4.3,0.8
		c-0.2,0.3-1.6,0.8-4.3,0.8c-2.7,0-4.1-0.6-4.3-0.8C924.4,141.9,925.8,141.3,928.5,141.3z M928.5,156.8c-2.8,0-4.2-0.6-4.3-0.9
		v-10.8c1.1,0.5,3,0.7,4.3,0.7c1.3,0,3.2-0.2,4.3-0.7V156C932.7,156.2,931.3,156.8,928.5,156.8z"/>
	<path class="st0" d="M781,149.9c0.7-1,1-2.2,1-3.4c0-3.4-2.7-6.1-6.1-6.1c-0.4,0-0.8,0-1.2,0.1c0-0.1,0-0.1,0-0.2
		c0-3.4-2.7-6.1-6.1-6.1c-2.6,0-4.9,1.6-5.7,4c-1.1-1-2.5-1.5-4-1.5c-3.4,0-6.1,2.7-6.1,6.1c0,1.1,0.3,2.1,0.8,3
		c-2.4,1.4-3.9,3.9-3.9,6.7c0,4.2,3.4,7.7,7.7,7.7h19.2c3.4,0,6.1-2.7,6.1-6.1C782.6,152.6,782,151.1,781,149.9z M776.5,159.3h-19.2
		c-3.7,0-6.8-3-6.8-6.8c0-2.5,1.4-4.8,3.5-6c0.1,0,0.1-0.1,0.1-0.1c0.1,0,0.1,0,0.2-0.1c0.2-0.1,0.3-0.4,0.1-0.6
		c-0.6-0.9-0.9-1.9-0.9-2.9c0-2.9,2.3-5.2,5.2-5.2c1.4,0,2.8,0.6,3.8,1.6c0.2,0.2,0.4,0.2,0.6,0.1c0.2,0,0.3-0.2,0.4-0.3
		c0.6-2.3,2.7-3.8,5-3.8c2.9,0,5.2,2.3,5.2,5.2c0,0.2,0,0.3,0,0.5c0,0,0,0.1,0,0.1c0,0.1,0,0.2,0,0.3c0.1,0.2,0.3,0.4,0.6,0.3
		c0.5-0.2,1-0.2,1.6-0.2c2.9,0,5.2,2.3,5.2,5.2c0,1.1-0.3,2.1-1,3c0,0,0,0,0,0.1c0,0,0,0-0.1,0c-0.2,0.2-0.2,0.5,0,0.6
		c1.1,1,1.7,2.4,1.7,3.8C781.7,157,779.4,159.3,776.5,159.3z"/>
	<path class="st0" d="M910,151.8c0.5-0.8,0.8-1.8,0.8-2.7c0-2.8-2.2-5-5-5c-0.3,0-0.6,0-0.9,0.1c0,0,0,0,0-0.1c0-2.8-2.2-5-5-5
		c-2.1,0-3.9,1.3-4.7,3.2c-0.9-0.8-2-1.2-3.2-1.2c-2.8,0-5,2.2-5,5c0,0.8,0.2,1.7,0.6,2.4c-1.9,1.1-3.1,3.2-3.1,5.4
		c0,3.5,2.8,6.3,6.3,6.3h15.5c2.8,0,5-2.2,5-5C911.3,154,910.8,152.7,910,151.8z M906.3,159.3h-15.5c-3,0-5.4-2.4-5.4-5.4
		c0-2,1.1-3.8,2.8-4.7c0,0,0.1-0.1,0.1-0.1c0,0,0.1,0,0.1-0.1c0.2-0.1,0.3-0.4,0.1-0.6c-0.5-0.7-0.7-1.5-0.7-2.3
		c0-2.3,1.8-4.1,4.1-4.1c1.1,0,2.2,0.5,3,1.3c0.2,0.2,0.4,0.2,0.6,0.1c0.2,0,0.3-0.2,0.4-0.3c0.5-1.8,2.1-3,4-3
		c2.3,0,4.1,1.8,4.1,4.1c0,0.1,0,0.3,0,0.4c0,0,0,0.1,0,0.1c0,0.1,0,0.2,0,0.3c0.1,0.2,0.3,0.4,0.6,0.3c0.4-0.1,0.8-0.2,1.2-0.2
		c2.3,0,4.1,1.8,4.1,4.1c0,0.9-0.3,1.7-0.8,2.4c0,0,0,0,0,0.1c0,0,0,0,0,0c-0.2,0.2-0.2,0.5,0,0.6c0.8,0.8,1.3,1.9,1.3,3
		C910.4,157.5,908.5,159.3,906.3,159.3z"/>
	<path class="st0" d="M1105.1,150.9c0.6-0.9,0.9-2,0.9-3.1c0-3.1-2.5-5.5-5.5-5.5c-0.4,0-0.7,0-1.1,0.1c0,0,0-0.1,0-0.1
		c0-3.1-2.5-5.5-5.5-5.5c-2.3,0-4.4,1.4-5.2,3.6c-1-0.9-2.3-1.3-3.6-1.3c-3.1,0-5.5,2.5-5.5,5.5c0,0.9,0.2,1.9,0.7,2.7
		c-2.2,1.2-3.5,3.5-3.5,6c0,3.8,3.1,7,7,7h17.3c3.1,0,5.5-2.5,5.5-5.5C1106.6,153.3,1106,151.9,1105.1,150.9z M1101,159.3h-17.3
		c-3.3,0-6.1-2.7-6.1-6.1c0-2.2,1.2-4.3,3.2-5.3c0.1,0,0.1-0.1,0.1-0.1c0.1,0,0.1,0,0.2-0.1c0.2-0.1,0.3-0.4,0.1-0.6
		c-0.5-0.8-0.8-1.7-0.8-2.6c0-2.5,2.1-4.6,4.6-4.6c1.3,0,2.5,0.5,3.4,1.5c0.2,0.2,0.4,0.2,0.6,0.1c0.2,0,0.3-0.2,0.4-0.3
		c0.5-2,2.4-3.4,4.5-3.4c2.5,0,4.6,2.1,4.6,4.6c0,0.1,0,0.3,0,0.4c0,0,0,0.1,0,0.1c0,0.1,0,0.2,0,0.3c0.1,0.2,0.3,0.4,0.6,0.3
		c0.5-0.1,0.9-0.2,1.4-0.2c2.5,0,4.6,2.1,4.6,4.6c0,1-0.3,1.9-0.9,2.7c0,0,0,0,0,0.1c0,0,0,0,0,0c-0.2,0.2-0.2,0.5,0,0.6
		c0.9,0.9,1.5,2.1,1.5,3.4C1105.7,157.2,1103.6,159.3,1101,159.3z"/>
	<path class="st0" d="M1002.6,25.1c-1.2,0-1.7,0.8-2.1,1.4c-0.4,0.6-0.7,1-1.5,1c0,0-0.1,0-0.1,0c0,0-0.1,0-0.1,0
		c-0.8,0-1.1-0.5-1.5-1c-0.3-0.4-0.6-0.9-1.2-1.2c-0.1-0.1-0.2-0.2-0.4-0.2c-0.1,0-0.2,0-0.3,0c-0.1,0-0.2,0-0.3,0
		c-0.1,0-0.3,0.1-0.4,0.2c-0.6,0.3-0.9,0.8-1.2,1.2c-0.4,0.6-0.7,1-1.5,1c0,0-0.1,0-0.1,0c0,0-0.1,0-0.1,0c-0.8,0-1.1-0.5-1.5-1
		c-0.4-0.6-0.9-1.4-2.1-1.4c0,0-0.1,0-0.1,0c0,0-0.1,0-0.1,0c-1.2,0-1.7,0.8-2.1,1.4c-0.4,0.6-0.7,1-1.5,1c0,0-0.1,0-0.1,0
		c0,0-0.1,0-0.1,0c-0.8,0-1.1-0.5-1.5-1c-0.4-0.6-0.9-1.4-2.1-1.4c0,0-0.1,0-0.1,0c0,0-0.1,0-0.1,0c-1.2,0-1.7,0.8-2.1,1.4
		c-0.4,0.6-0.7,1-1.5,1c-0.3,0-0.5,0.2-0.5,0.5c0,0.3,0.2,0.5,0.5,0.5c1.3,0,1.9-0.8,2.3-1.4c0.4-0.6,0.7-1,1.3-1c0,0,0.1,0,0.1,0
		c0,0,0.1,0,0.1,0c0.7,0,0.9,0.3,1.3,1c0.4,0.6,1,1.4,2.3,1.4c0,0,0.1,0,0.1,0c0,0,0.1,0,0.1,0c1.3,0,1.9-0.8,2.3-1.4
		c0.4-0.6,0.7-1,1.3-1c0,0,0.1,0,0.1,0c0,0,0.1,0,0.1,0c0.7,0,0.9,0.3,1.3,1c0.4,0.6,1,1.4,2.3,1.4c0,0,0.1,0,0.1,0c0,0,0.1,0,0.1,0
		c1.3,0,1.9-0.8,2.3-1.4c0.3-0.5,0.6-0.9,1.1-0.9c0.5,0.1,0.7,0.4,1.1,0.9c0.4,0.6,1,1.4,2.3,1.4c0,0,0.1,0,0.1,0c0,0,0.1,0,0.1,0
		c1.3,0,1.9-0.8,2.3-1.4c0.4-0.6,0.7-1,1.3-1c0.3,0,0.5-0.2,0.5-0.5C1003,25.3,1002.8,25.1,1002.6,25.1z"/>
	<path class="st0" d="M631.7,54.1c-1.2,0-1.7,0.8-2.1,1.4c-0.4,0.6-0.7,1-1.5,1c0,0-0.1,0-0.1,0c0,0-0.1,0-0.1,0
		c-0.8,0-1.1-0.5-1.5-1c-0.3-0.4-0.6-0.9-1.2-1.2c-0.1-0.1-0.2-0.2-0.4-0.2c-0.1,0-0.2,0-0.3,0c-0.1,0-0.2,0-0.3,0
		c-0.1,0-0.3,0.1-0.4,0.2c-0.6,0.3-0.9,0.8-1.2,1.2c-0.4,0.6-0.7,1-1.5,1c0,0-0.1,0-0.1,0c0,0-0.1,0-0.1,0c-0.8,0-1.1-0.5-1.5-1
		c-0.4-0.6-0.9-1.4-2.1-1.4c0,0-0.1,0-0.1,0c0,0-0.1,0-0.1,0c-1.2,0-1.7,0.8-2.1,1.4c-0.4,0.6-0.7,1-1.5,1c0,0-0.1,0-0.1,0
		c0,0-0.1,0-0.1,0c-0.8,0-1.1-0.5-1.5-1c-0.4-0.6-0.9-1.4-2.1-1.4c0,0-0.1,0-0.1,0c0,0-0.1,0-0.1,0c-1.2,0-1.7,0.8-2.1,1.4
		c-0.4,0.6-0.7,1-1.5,1c-0.3,0-0.5,0.2-0.5,0.5c0,0.3,0.2,0.5,0.5,0.5c1.3,0,1.9-0.8,2.3-1.4c0.4-0.6,0.7-1,1.3-1c0,0,0.1,0,0.1,0
		c0,0,0.1,0,0.1,0c0.7,0,0.9,0.3,1.3,1c0.4,0.6,1,1.4,2.3,1.4c0,0,0.1,0,0.1,0c0,0,0.1,0,0.1,0c1.3,0,1.9-0.8,2.3-1.4
		c0.4-0.6,0.7-1,1.3-1c0,0,0.1,0,0.1,0c0,0,0.1,0,0.1,0c0.7,0,0.9,0.3,1.3,1c0.4,0.6,1,1.4,2.3,1.4c0,0,0.1,0,0.1,0c0,0,0.1,0,0.1,0
		c1.3,0,1.9-0.8,2.3-1.4c0.3-0.5,0.6-0.9,1.1-0.9c0.5,0.1,0.7,0.4,1.1,0.9c0.4,0.6,1,1.4,2.3,1.4c0,0,0.1,0,0.1,0c0,0,0.1,0,0.1,0
		c1.3,0,1.9-0.8,2.3-1.4c0.4-0.6,0.7-1,1.3-1c0.3,0,0.5-0.2,0.5-0.5C632.2,54.3,632,54.1,631.7,54.1z"/>
	<path class="st0" d="M1059,12.4c-0.8,0-1.5,0.2-2.1,0.7c0,0,0,0,0,0c-0.4-2.8-2.9-5-5.8-5c-1.2,0-2.3,0.3-3.2,1
		c-1.2-2.9-4-4.8-7.2-4.8c-1.1,0-2.1,0.2-3.1,0.7c-1.8-3-5-4.9-8.5-4.9c-5.5,0-9.9,4.4-9.9,9.9c0,5.5,4.4,9.9,9.9,9.9
		c0,0,0.1,0,0.1,0c0,0,0.1,0,0.1,0h29.7c2,0,3.7-1.6,3.7-3.7C1062.7,14.1,1061.1,12.4,1059,12.4z M1059,18.9h-29.7c0,0-0.1,0-0.1,0
		c0,0-0.1,0-0.1,0c-4.9,0-9-4-9-9c0-4.9,4-9,9-9c3.3,0,6.3,1.8,7.9,4.7c0.1,0.2,0.4,0.3,0.6,0.2c0.1,0,0.2,0,0.3,0
		c0.9-0.4,1.9-0.6,2.9-0.6c2.9,0,5.5,1.8,6.4,4.5c0.1,0.2,0.2,0.3,0.4,0.3c0,0,0,0,0,0c0.2,0.1,0.4,0.1,0.6,0c0.9-0.6,1.9-1,2.9-1
		c2.4,0,4.5,1.8,4.9,4.2c0,0.2,0.1,0.5,0.1,0.7c0,0.3,0.2,0.5,0.5,0.5c0.2,0,0.3-0.1,0.4-0.3c0.1,0,0.2,0,0.3-0.1
		c0.5-0.4,1.1-0.7,1.8-0.7c1.5,0,2.7,1.2,2.7,2.7C1061.8,17.6,1060.5,18.9,1059,18.9z"/>
	<path class="st0" d="M869.9,12.9h-1.3v-1.3c0-0.3-0.2-0.5-0.5-0.5c-0.3,0-0.5,0.2-0.5,0.5v1.3h-1.3c-0.3,0-0.5,0.2-0.5,0.5
		c0,0.3,0.2,0.5,0.5,0.5h1.3v1.3c0,0.3,0.2,0.5,0.5,0.5c0.3,0,0.5-0.2,0.5-0.5v-1.3h1.3c0.3,0,0.5-0.2,0.5-0.5
		C870.4,13.1,870.2,12.9,869.9,12.9z"/>
	<path class="st0" d="M1074.4,44h-1.3v-1.3c0-0.3-0.2-0.5-0.5-0.5c-0.3,0-0.5,0.2-0.5,0.5V44h-1.3c-0.3,0-0.5,0.2-0.5,0.5
		c0,0.3,0.2,0.5,0.5,0.5h1.3v1.3c0,0.3,0.2,0.5,0.5,0.5c0.3,0,0.5-0.2,0.5-0.5V45h1.3c0.3,0,0.5-0.2,0.5-0.5
		C1074.9,44.2,1074.7,44,1074.4,44z"/>
	<g>
		<g>
			<path class="st0" d="M683.7,8.1c-0.3,0-0.5-0.2-0.5-0.5V4.1c0-0.3,0.2-0.5,0.5-0.5c0.3,0,0.5,0.2,0.5,0.5v3.6
				C684.2,7.9,684,8.1,683.7,8.1z"/>
		</g>
		<g>
			<path class="st0" d="M685.5,6.3h-3.6c-0.3,0-0.5-0.2-0.5-0.5c0-0.3,0.2-0.5,0.5-0.5h3.6c0.3,0,0.5,0.2,0.5,0.5
				C685.9,6.1,685.7,6.3,685.5,6.3z"/>
		</g>
	</g>
	<g>
		<path class="st0" d="M823.5,38.5c-0.1,0-0.2,0-0.3-0.1l-2.5-2.5c-0.1-0.1-0.1-0.2-0.1-0.3c0-0.1,0-0.2,0.1-0.3l2.5-2.5
			c0.1-0.1,0.2-0.1,0.3-0.1s0.2,0,0.3,0.1l2.5,2.5c0.2,0.2,0.2,0.5,0,0.6l-2.5,2.5C823.7,38.5,823.6,38.5,823.5,38.5z M821.6,35.5
			l1.9,1.9l1.9-1.9l-1.9-1.9L821.6,35.5z"/>
	</g>
	<path class="st0" d="M1153.8,77.6l-2.5-2.5c-0.2-0.2-0.5-0.2-0.6,0l-2.5,2.5c-0.2,0.2-0.2,0.5,0,0.6l2.5,2.5
		c0.1,0.1,0.2,0.1,0.3,0.1c0.1,0,0.2,0,0.3-0.1l2.5-2.5C1154,78.1,1154,77.8,1153.8,77.6z M1151,79.8l-1.9-1.9l1.9-1.9l1.9,1.9
		L1151,79.8z"/>
	<g>
		<path class="st0" d="M588.2,75.7c-0.1,0-0.2,0-0.3-0.1l-2.5-2.5c-0.1-0.1-0.1-0.2-0.1-0.3c0-0.1,0-0.2,0.1-0.3l2.5-2.5
			c0.2-0.2,0.5-0.2,0.6,0l2.5,2.5c0.2,0.2,0.2,0.5,0,0.6l-2.5,2.5C588.5,75.7,588.4,75.7,588.2,75.7z M586.3,72.7l1.9,1.9l1.9-1.9
			l-1.9-1.9L586.3,72.7z"/>
	</g>
	<path class="st0" d="M891.3,115.6c-3.7,0-6.7,3-6.7,6.7c0,1.9,0.8,3.6,2.1,4.8l-6,7.9v-20.4c8.1-0.2,14.7-6.9,14.7-15.2
		c0-8.4-6.8-15.2-15.2-15.2c-7.5,0-13.7,5.4-14.9,12.6c-5.4,0.1-9.8,4.6-9.8,10c0,5.5,4.5,10,10,10c1.5,0,3-0.3,4.3-1l10,15.5v27.7
		c0,0.3,0.2,0.5,0.5,0.5c0.3,0,0.5-0.2,0.5-0.5v-22.7l6.7-8.9c1.1,0.8,2.5,1.3,3.9,1.3c3.7,0,6.7-3,6.7-6.7
		C898,118.6,895,115.6,891.3,115.6z M880.2,85.3c7.9,0,14.2,6.4,14.2,14.2c0,7.7-6.1,14-13.8,14.2V94.2c0-0.3-0.2-0.5-0.5-0.5
		c-0.3,0-0.5,0.2-0.5,0.5v19.6c-7.6-0.2-13.8-6.5-13.8-14.2C865.9,91.7,872.3,85.3,880.2,85.3z M865.5,116.1c-5,0-9.1-4.1-9.1-9.1
		c0-4.9,3.9-8.9,8.8-9.1c-0.1,0.6-0.1,1.1-0.1,1.7c0,5.6,3,10.5,7.6,13.1c-0.7,0.9-1.6,1.6-2.5,2.2l-6-9.4c-0.1-0.2-0.4-0.3-0.6-0.1
		c-0.2,0.1-0.3,0.4-0.1,0.6l6,9.4C868.1,115.8,866.8,116.1,865.5,116.1z M870.6,115.6c1.1-0.6,2-1.5,2.8-2.5c1.9,1,4.1,1.5,6.3,1.6
		v15.2L870.6,115.6z M891.3,128.1c-1.3,0-2.4-0.4-3.4-1.1l4.6-6c0.2-0.2,0.1-0.5-0.1-0.6c-0.2-0.2-0.5-0.1-0.6,0.1l-4.5,6
		c-1.1-1-1.7-2.5-1.7-4.1c0-3.2,2.6-5.8,5.8-5.8c3.2,0,5.8,2.6,5.8,5.8C897.1,125.5,894.5,128.1,891.3,128.1z"/>
	<path class="st0" d="M1166.8,146.5l-13.5-61.6c0,0,0,0,0,0c0,0,0,0,0,0c0,0,0,0,0,0c0,0,0,0,0,0c0,0,0,0,0,0c0,0,0,0,0,0
		c0,0,0,0,0,0c0,0,0,0,0,0c0,0,0,0-0.1,0c0,0,0,0,0,0c0,0,0,0-0.1,0c0,0-0.1,0-0.1,0c0,0,0,0,0,0c0,0,0,0,0,0c0,0,0,0-0.1,0
		c0,0-0.1,0-0.1,0c0,0,0,0,0,0c0,0,0,0-0.1,0c0,0,0,0,0,0c0,0,0,0,0,0c0,0,0,0,0,0c0,0,0,0,0,0c0,0,0,0,0,0c0,0,0,0,0,0c0,0,0,0,0,0
		c0,0,0,0,0,0l-13.5,61.6c0,0.1,0,0.3,0.1,0.4s0.2,0.2,0.4,0.2h10.8v12.6c0,0.3,0.2,0.5,0.5,0.5h4.7c0.3,0,0.5-0.2,0.5-0.5V147h10.8
		c0.1,0,0.3-0.1,0.4-0.2S1166.9,146.6,1166.8,146.5z M1154.7,159.2h-3.7V147h1.9h1.9V159.2z M1155.2,146.1h-2.3h-2.3h-10.6l13-59
		l13,59H1155.2z"/>
	<path class="st0" d="M1130.7,139.1l-14.2-64.3c0,0,0,0,0,0c0,0,0,0,0,0c0,0,0,0,0,0c0,0,0,0,0,0c0,0,0,0,0,0c0,0,0,0,0,0
		c0,0,0,0,0,0c0,0,0,0,0,0c0,0,0,0-0.1,0c0,0,0,0,0,0c0,0,0,0-0.1,0c0,0-0.1,0-0.1,0c0,0,0,0,0,0c0,0,0,0,0,0c0,0,0,0-0.1,0
		c0,0-0.1,0-0.1,0c0,0,0,0,0,0c0,0,0,0-0.1,0c0,0,0,0,0,0c0,0,0,0,0,0c0,0,0,0,0,0c0,0,0,0,0,0c0,0,0,0,0,0c0,0,0,0,0,0c0,0,0,0,0,0
		c0,0,0,0,0,0l-14.2,64.3c0,0.1,0,0.3,0.1,0.4c0.1,0.1,0.2,0.2,0.4,0.2h11.4v20c0,0.3,0.2,0.5,0.5,0.5h4.7c0.3,0,0.5-0.2,0.5-0.5
		v-20h11.4c0.1,0,0.3-0.1,0.4-0.2C1130.7,139.4,1130.7,139.2,1130.7,139.1z M1118,159.2h-3.7v-19.6h1.9h1.9V159.2z M1118.4,138.7
		h-2.3h-2.3h-11.3l13.6-61.8l13.6,61.8H1118.4z"/>
	<g>
		<path class="st0" d="M880.2,108.7c-0.1,0-0.2,0-0.3-0.1c-0.2-0.2-0.2-0.5,0-0.6l5.2-5.8c0.2-0.2,0.5-0.2,0.6,0
			c0.2,0.2,0.2,0.5,0,0.6l-5.2,5.8C880.4,108.6,880.3,108.7,880.2,108.7z"/>
	</g>
	<g>
		<path class="st0" d="M880,104.1c-0.1,0-0.3-0.1-0.3-0.2l-4.9-5.5c-0.2-0.2-0.2-0.5,0-0.6c0.2-0.2,0.5-0.2,0.6,0l4.9,5.5
			c0.2,0.2,0.2,0.5,0,0.6C880.2,104.1,880.1,104.1,880,104.1z"/>
	</g>
	<g>
		<path class="st0" d="M888.8,125.6c-0.2,0-0.4-0.2-0.5-0.4l-0.5-4.4c0-0.3,0.2-0.5,0.4-0.5c0.3,0,0.5,0.2,0.5,0.4l0.5,4.4
			C889.3,125.3,889.1,125.5,888.8,125.6C888.8,125.6,888.8,125.6,888.8,125.6z"/>
	</g>
	<g>
		<path class="st0" d="M893.1,124.4C893.1,124.4,893.1,124.4,893.1,124.4l-3.1-0.5c-0.3,0-0.4-0.3-0.4-0.5c0-0.2,0.3-0.4,0.5-0.4
			l3.1,0.5c0.2,0,0.4,0.3,0.4,0.5C893.5,124.2,893.3,124.4,893.1,124.4z"/>
	</g>
	<g>
		<path class="st0" d="M868.2,113.2C868.1,113.2,868.1,113.1,868.2,113.2l-5.5-1c-0.2,0-0.4-0.3-0.4-0.5c0-0.2,0.3-0.4,0.5-0.4
			l5.4,1c0.2,0,0.4,0.3,0.4,0.5C868.6,113,868.4,113.2,868.2,113.2z"/>
	</g>
	<g>
		<path class="st0" d="M866.6,110.8c0,0-0.1,0-0.1,0c-0.2-0.1-0.4-0.3-0.3-0.6l0.9-3.3c0.1-0.2,0.3-0.4,0.6-0.3
			c0.2,0.1,0.4,0.3,0.3,0.6l-0.9,3.3C867,110.6,866.8,110.8,866.6,110.8z"/>
	</g>
	<path class="st0" d="M1028.8,104.1c-4.2,0-7.6,3.4-7.6,7.6c0,1.7,0.6,3.3,1.6,4.6l-10.4,10.4v-16l11-11c1.4,1.4,3.3,2.2,5.3,2.2
		c4.2,0,7.6-3.4,7.6-7.6c0-4.2-3.4-7.6-7.6-7.6c-4.2,0-7.6,3.4-7.6,7.6c0,1.8,0.6,3.4,1.6,4.7l-10.4,10.4V81.7
		c7.3-0.2,13.2-6.3,13.2-13.6c0-7.5-6.1-13.6-13.6-13.6c-7.5,0-13.6,6.1-13.6,13.6c0,7.4,5.9,13.4,13.2,13.6v19.1l-10.3-10.3
		c1.4-1.4,2.3-3.3,2.3-5.4c0-4.2-3.4-7.6-7.6-7.6c-4.2,0-7.6,3.4-7.6,7.6c0,4.2,3.4,7.6,7.6,7.6c1.7,0,3.3-0.6,4.6-1.6l11,11v16.7
		l-10.2-10.2c1.7-1.4,2.8-3.5,2.8-5.9c0-4.2-3.4-7.6-7.6-7.6c-4.2,0-7.6,3.4-7.6,7.6c0,4.2,3.4,7.6,7.6,7.6c1.5,0,2.8-0.4,4-1.2
		l11,11v39.7c0,0.3,0.2,0.5,0.5,0.5c0.3,0,0.5-0.2,0.5-0.5V128l11-11c1.4,1.4,3.3,2.3,5.4,2.3c4.2,0,7.6-3.4,7.6-7.6
		C1036.3,107.5,1033,104.1,1028.8,104.1z M1022.1,94.3c0-3.7,3-6.6,6.6-6.6s6.6,3,6.6,6.6c0,3.7-3,6.6-6.6,6.6
		c-1.8,0-3.5-0.7-4.7-1.9l3.5-3.5c0.2-0.2,0.2-0.5,0-0.6c-0.2-0.2-0.5-0.2-0.6,0l-3.4,3.4C1022.6,97.2,1022.1,95.8,1022.1,94.3z
		 M995.9,91.7c-3.7,0-6.6-3-6.6-6.6c0-3.7,3-6.6,6.6-6.6c3.7,0,6.6,3,6.6,6.6c0,1.9-0.8,3.5-2,4.7l-4.3-4.3c-0.2-0.2-0.5-0.2-0.6,0
		c-0.2,0.2-0.2,0.5,0,0.6l4.3,4.3C998.7,91.2,997.4,91.7,995.9,91.7z M996.5,109.3c-3.7,0-6.6-3-6.6-6.6c0-3.7,3-6.6,6.6-6.6
		c3.7,0,6.6,3,6.6,6.6c0,2.1-1,4-2.5,5.2l-4-4c-0.2-0.2-0.5-0.2-0.6,0c-0.2,0.2-0.2,0.5,0,0.6l3.9,3.9
		C998.9,109,997.8,109.3,996.5,109.3z M999.2,68c0-7,5.7-12.7,12.7-12.7c7,0,12.7,5.7,12.7,12.7c0,6.9-5.5,12.5-12.3,12.7v-9.5
		c0-0.3-0.2-0.5-0.5-0.5c-0.3,0-0.5,0.2-0.5,0.5v9.5C1004.7,80.5,999.2,74.9,999.2,68z M1028.8,118.3c-1.8,0-3.5-0.8-4.7-2l3-3
		c0.2-0.2,0.2-0.5,0-0.6c-0.2-0.2-0.5-0.2-0.6,0l-3,3c-0.8-1.1-1.3-2.5-1.3-4c0-3.7,3-6.6,6.6-6.6s6.6,3,6.6,6.6
		S1032.4,118.3,1028.8,118.3z"/>
	<path class="st0" d="M788.5,75.8L800.3,64c1.5,1.2,3.4,2,5.5,2c4.8,0,8.7-3.9,8.7-8.7c0-4.8-3.9-8.7-8.7-8.7
		c-4.8,0-8.7,3.9-8.7,8.7c0,2.4,0.9,4.5,2.5,6.1l-11.2,11.2V55l12.3-12.3c1.5,1.4,3.6,2.2,5.8,2.2c4.8,0,8.7-3.9,8.7-8.7
		c0-4.8-3.9-8.7-8.7-8.7c-4.8,0-8.7,3.9-8.7,8.7c0,2.2,0.8,4.2,2.2,5.8l-11.7,11.7V31.4c8.4-0.2,15.2-7.2,15.2-15.7
		C803.7,7,796.7,0,788,0c-8.7,0-15.7,7-15.7,15.7c0,8.5,6.8,15.4,15.2,15.7v32.3l-12.4-12.4c1.3-1.5,2-3.4,2-5.6
		c0-4.8-3.9-8.7-8.7-8.7c-4.8,0-8.7,3.9-8.7,8.7s3.9,8.7,8.7,8.7c2.3,0,4.5-0.9,6-2.4l13,13v18.8l-12.5-12.5
		c1.3-1.5,2.1-3.5,2.1-5.7c0-4.8-3.9-8.7-8.7-8.7c-4.8,0-8.7,3.9-8.7,8.7c0,4.8,3.9,8.7,8.7,8.7c2.3,0,4.4-0.9,5.9-2.3L787.5,85
		v18.1l-12.3-12.3c1.2-1.5,2-3.4,2-5.5c0-4.8-3.9-8.7-8.7-8.7c-4.8,0-8.7,3.9-8.7,8.7c0,4.8,3.9,8.7,8.7,8.7c2.4,0,4.5-0.9,6.1-2.5
		l13,13v55.2c0,0.3,0.2,0.5,0.5,0.5c0.3,0,0.5-0.2,0.5-0.5V97.7l12-12c1.5,1.2,3.3,1.9,5.4,1.9c4.8,0,8.7-3.9,8.7-8.7
		c0-4.8-3.9-8.7-8.7-8.7c-4.8,0-8.7,3.9-8.7,8.7c0,2.4,1,4.6,2.6,6.2l-11.3,11.3V75.8z M798.1,57.3c0-4.3,3.5-7.8,7.8-7.8
		c4.3,0,7.8,3.5,7.8,7.8c0,4.3-3.5,7.8-7.8,7.8c-1.8,0-3.5-0.6-4.9-1.7l5.4-5.4c0.2-0.2,0.2-0.5,0-0.6c-0.2-0.2-0.5-0.2-0.6,0
		l-5.5,5.5C798.9,61.3,798.1,59.4,798.1,57.3z M798.8,36.3c0-4.3,3.5-7.8,7.8-7.8c4.3,0,7.8,3.5,7.8,7.8c0,4.3-3.5,7.8-7.8,7.8
		c-2,0-3.8-0.8-5.2-2l5.5-5.5c0.2-0.2,0.2-0.5,0-0.6c-0.2-0.2-0.5-0.2-0.6,0l-5.5,5.5C799.6,40,798.8,38.2,798.8,36.3z M768.5,53.5
		c-4.3,0-7.8-3.5-7.8-7.8c0-4.3,3.5-7.8,7.8-7.8c4.3,0,7.8,3.5,7.8,7.8c0,1.9-0.7,3.6-1.8,4.9l-3.9-3.9c-0.2-0.2-0.5-0.2-0.6,0
		c-0.2,0.2-0.2,0.5,0,0.6l3.9,3.9C772.5,52.7,770.6,53.5,768.5,53.5z M768.5,73.3c-4.3,0-7.8-3.5-7.8-7.8c0-4.3,3.5-7.8,7.8-7.8
		c4.3,0,7.8,3.5,7.8,7.8c0,1.9-0.7,3.7-1.9,5l-3.2-3.2c-0.2-0.2-0.5-0.2-0.6,0c-0.2,0.2-0.2,0.5,0,0.6l3.3,3.3
		C772.4,72.6,770.6,73.3,768.5,73.3z M768.5,93.1c-4.3,0-7.8-3.5-7.8-7.8c0-4.3,3.5-7.8,7.8-7.8c4.3,0,7.8,3.5,7.8,7.8
		c0,1.8-0.6,3.5-1.7,4.9l-3.4-3.4c-0.2-0.2-0.5-0.2-0.6,0c-0.2,0.2-0.2,0.5,0,0.6l3.4,3.4C772.5,92.2,770.6,93.1,768.5,93.1z
		 M798.1,78.9c0-4.3,3.5-7.8,7.8-7.8c4.3,0,7.8,3.5,7.8,7.8c0,4.3-3.5,7.8-7.8,7.8c-1.8,0-3.4-0.6-4.7-1.6l5.3-5.3
		c0.2-0.2,0.2-0.5,0-0.6c-0.2-0.2-0.5-0.2-0.6,0l-5.3,5.3C799,83,798.1,81,798.1,78.9z M773.2,15.7c0-8.1,6.6-14.8,14.8-14.8
		c8.2,0,14.8,6.6,14.8,14.8c0,8-6.4,14.5-14.3,14.8V19.4c0-0.3-0.2-0.5-0.5-0.5c-0.3,0-0.5,0.2-0.5,0.5v11.1
		C779.6,30.2,773.2,23.7,773.2,15.7z"/>
	<path class="st0" d="M871.5,146.6c-0.1,0-0.2,0-0.3,0c0.5-1,0.7-2.1,0.7-3c0-3.7-3-6.6-6.6-6.6c-1.2,0-2.3,0.3-3.3,0.9
		c-0.4-1.7-1.9-3-3.7-3c-0.6,0-1.1,0.1-1.6,0.4c0-0.4,0.1-0.8,0.1-1.2c0-5-4.1-9.2-9.2-9.2c-3,0-5.7,1.4-7.4,3.8
		c-0.4-2.9-2.9-5.1-5.8-5.1c-1.7,0-3.2,0.7-4.3,1.9c-0.4-1.6-1.9-2.8-3.7-2.8c-1.8,0-3.3,1.3-3.7,3c-1.1-1-2.5-1.6-4.1-1.6
		c-2,0-3.9,1.2-5,2.9c-1.1-0.8-2.5-1.3-3.9-1.3c-3.7,0-6.7,3-6.7,6.7c0,1.4,0.3,2.6,0.9,3.6c-0.9-0.3-1.9-0.5-2.9-0.5
		c-5,0-9.2,4.1-9.2,9.2c0,3.1,1.5,5.9,3.9,7.6c-1.8,0.4-3.2,2-3.2,4c0,2.2,1.8,4,4.1,4h75c3.7,0,6.8-3.1,6.8-6.9
		C878.2,149.6,875.2,146.6,871.5,146.6z M871.5,159.3h-75c-1.8,0-3.2-1.4-3.2-3.1c0-1.7,1.4-3.2,3.2-3.2c0.3,0,0.6,0,0.9,0.1
		c0.2,0.1,0.5-0.1,0.6-0.3c0.1-0.2-0.1-0.5-0.3-0.6c0,0,0,0-0.1,0c-3-1.3-5-4.3-5-7.7c0-4.5,3.7-8.2,8.2-8.2c1.6,0,3.1,0.4,4.4,1.3
		c0,0,0.1,0,0.1,0c0,0,0,0,0,0c0,0,0.1,0,0.1,0c0,0,0.1,0,0.1,0c0,0,0.1,0,0.1,0c0,0,0,0,0,0c0,0,0,0,0.1,0c0,0,0,0,0,0c0,0,0,0,0,0
		c0,0,0,0,0,0c0,0,0,0,0,0c0,0,0,0,0,0c0,0,0,0,0,0c0,0,0,0,0,0c0,0,0,0,0,0c0,0,0,0,0,0c0,0,0,0,0,0c0,0,0,0,0,0c0,0,0,0,0,0
		c0,0,0,0,0,0c0,0,0,0,0,0c0,0,0,0,0,0c0,0,0,0,0,0c0,0,0,0,0,0c0,0,0,0,0,0c0,0,0,0,0,0c0,0,0,0,0,0c0,0,0,0,0,0
		c-1.3-1-2.1-2.6-2.1-4.6c0-3.2,2.6-5.8,5.8-5.8c1.4,0,2.7,0.5,3.8,1.4c0,0,0,0,0,0c0,0,0,0,0,0c0,0,0,0,0,0c0,0,0,0,0.1,0
		c0,0,0,0,0,0c0,0,0,0,0.1,0c0,0,0,0,0,0c0.1,0,0.2,0,0.2-0.1c0,0,0,0,0,0c0,0,0,0,0.1-0.1c0,0,0,0,0,0c0,0,0-0.1,0.1-0.1
		c0.9-1.7,2.7-2.9,4.5-2.9c1.6,0,3.1,0.8,4,2c0.2,0.2,0.4,0.2,0.6,0.1c0.1-0.1,0.2-0.2,0.2-0.3c0-0.1,0.1-0.1,0.1-0.2
		c0-1.6,1.3-2.9,2.9-2.9c1.6,0,2.9,1.3,2.9,2.9c0,0.2,0.1,0.3,0.2,0.4c0,0,0.1,0.1,0.1,0.1c0.2,0.1,0.5,0.1,0.6-0.1
		c0.9-1.4,2.5-2.3,4.2-2.3c2.7,0,5,2.2,5,5c0,0.2,0,0.3,0,0.5c0,0.1,0,0.1,0,0.2c0,0.2,0.1,0.3,0.3,0.4c0.2,0.1,0.5,0,0.6-0.2
		c1.4-2.8,4.2-4.6,7.4-4.6c4.5,0,8.2,3.7,8.2,8.2c0,0.6-0.1,1.2-0.2,1.8c0,0,0,0.1,0,0.1c-0.1,0.2-0.1,0.4,0.1,0.5
		c0.2,0.2,0.5,0.2,0.6,0c0.5-0.5,1.2-0.8,2-0.8c1.6,0,2.9,1.3,2.9,2.9c0,0,0,0.1,0,0.1c0,0,0,0,0,0c0,0,0,0,0,0.1c0,0,0,0,0,0
		c0,0,0,0,0,0.1c0,0,0,0,0,0c0,0,0,0,0,0c0.2,0.2,0.4,0.2,0.6,0c1-0.8,2.2-1.1,3.4-1.1c3.2,0,5.7,2.6,5.7,5.7c0,1-0.4,2.4-1,3.3
		c0,0,0,0,0,0c0,0,0,0,0,0c0,0,0,0,0,0c0,0,0,0,0,0c0,0,0,0,0,0c0,0,0,0,0,0c0,0,0,0,0,0c0,0,0,0,0,0c0,0,0,0,0,0.1c0,0,0,0,0,0
		c0,0,0,0,0,0c0,0,0,0,0,0c0,0,0,0,0,0c0,0,0,0,0,0c0,0,0,0,0,0c0,0,0,0,0,0c0,0,0,0,0,0c0,0,0,0,0,0c0,0,0.1,0,0.1,0c0,0,0,0,0,0
		c0,0,0.1,0,0.1,0c0,0,0,0,0,0c0,0,0,0,0.1,0c0.3-0.1,0.7-0.1,1-0.1c3.2,0,5.8,2.6,5.8,5.8C877.3,156.6,874.6,159.3,871.5,159.3z"/>
	<path class="st0" d="M600.5,144.3c-5.6,0-10.1,4.5-10.1,10.1c0,1.9,0.5,3.7,1.5,5.3c0.1,0.1,0.2,0.2,0.4,0.2l16.4,0.1
		c0.2,0,0.3-0.1,0.4-0.2c1-1.6,1.6-3.5,1.6-5.5C610.6,148.8,606.1,144.3,600.5,144.3z M608.4,159.2l-15.9-0.1
		c-0.8-1.4-1.3-3-1.3-4.6c0-5.1,4.1-9.2,9.2-9.2c5.1,0,9.2,4.1,9.2,9.2C609.7,156.1,609.3,157.7,608.4,159.2z"/>
	<path class="st0" d="M616.7,29.9c-2.8,0-5.3,1.5-6.7,3.8c-0.8-0.3-1.6-0.5-2.4-0.5c-2.5,0-4.7,1.5-5.7,3.7
		c-0.7-0.5-1.6-0.7-2.5-0.7c-2.2,0-4.2,1.6-4.6,3.8c-0.5-0.3-1-0.5-1.6-0.5c-1.6,0-3,1.3-3,3c0,1.6,1.3,3,3,3h23.2c0,0,0.1,0,0.1,0
		c0,0,0.1,0,0.1,0c4.3,0,7.8-3.5,7.8-7.8C624.5,33.4,621,29.9,616.7,29.9z M616.7,44.6c0,0-0.1,0-0.1,0c0,0-0.1,0-0.1,0h-23.2
		c-1.1,0-2-0.9-2-2s0.9-2,2-2c0.5,0,1,0.2,1.3,0.5c0.1,0.1,0.2,0.1,0.2,0.1c0.1,0.1,0.2,0.2,0.4,0.2c0.3,0,0.5-0.2,0.5-0.5
		c0-0.2,0-0.4,0-0.6c0.3-1.8,1.9-3.2,3.7-3.2c0.8,0,1.6,0.3,2.2,0.7c0.2,0.1,0.4,0.1,0.5,0c0.2,0,0.4-0.1,0.4-0.3
		c0.7-2.1,2.7-3.5,4.9-3.5c0.8,0,1.5,0.2,2.2,0.5c0.1,0,0.2,0,0.2,0c0.2,0.1,0.5,0,0.6-0.2c1.2-2.3,3.5-3.7,6.1-3.7
		c3.8,0,6.9,3.1,6.9,6.9C623.6,41.5,620.5,44.6,616.7,44.6z"/>
	<g>
		<path class="st0" d="M726.8,16.9H711c-0.3,0-0.5-0.2-0.5-0.5c0-0.3,0.2-0.5,0.5-0.5h15.8c0.3,0,0.5,0.2,0.5,0.5
			C727.3,16.7,727,16.9,726.8,16.9z"/>
	</g>
	<g>
		<path class="st0" d="M733.8,23.1h-14.8c-0.3,0-0.5-0.2-0.5-0.5c0-0.3,0.2-0.5,0.5-0.5h14.8c0.3,0,0.5,0.2,0.5,0.5
			C734.2,22.9,734,23.1,733.8,23.1z"/>
	</g>
	<g>
		<path class="st0" d="M1069.5,69.8h-5.8c-0.3,0-0.5-0.2-0.5-0.5s0.2-0.5,0.5-0.5h5.8c0.3,0,0.5,0.2,0.5,0.5
			S1069.8,69.8,1069.5,69.8z"/>
	</g>
	<g>
		<path class="st0" d="M958.5,6.3h-5.8c-0.3,0-0.5-0.2-0.5-0.5c0-0.3,0.2-0.5,0.5-0.5h5.8c0.3,0,0.5,0.2,0.5,0.5
			C958.9,6.1,958.7,6.3,958.5,6.3z"/>
	</g>
	<g>
		<path class="st0" d="M1011.2,46.2h-3.8c-0.3,0-0.5-0.2-0.5-0.5c0-0.3,0.2-0.5,0.5-0.5h3.8c0.3,0,0.5,0.2,0.5,0.5
			C1011.6,46,1011.4,46.2,1011.2,46.2z"/>
	</g>
	<g>
		<path class="st0" d="M846.7,71.1h-3.8c-0.3,0-0.5-0.2-0.5-0.5c0-0.3,0.2-0.5,0.5-0.5h3.8c0.3,0,0.5,0.2,0.5,0.5
			C847.1,70.9,846.9,71.1,846.7,71.1z"/>
	</g>
	<g>
		<path class="st0" d="M1130.9,83.9h-3.8c-0.3,0-0.5-0.2-0.5-0.5s0.2-0.5,0.5-0.5h3.8c0.3,0,0.5,0.2,0.5,0.5
			S1131.1,83.9,1130.9,83.9z"/>
	</g>
	<g>
		<path class="st0" d="M731.6,104.7h-3.8c-0.3,0-0.5-0.2-0.5-0.5c0-0.3,0.2-0.5,0.5-0.5h3.8c0.3,0,0.5,0.2,0.5,0.5
			C732,104.5,731.8,104.7,731.6,104.7z"/>
	</g>
	<g>
		<path class="st0" d="M1089.4,23.1h-5.9c-0.3,0-0.5-0.2-0.5-0.5c0-0.3,0.2-0.5,0.5-0.5h5.9c0.3,0,0.5,0.2,0.5,0.5
			C1089.8,22.9,1089.6,23.1,1089.4,23.1z"/>
	</g>
	<g>
		<path class="st0" d="M829.7,6.3h-6.3c-0.3,0-0.5-0.2-0.5-0.5c0-0.3,0.2-0.5,0.5-0.5h6.3c0.3,0,0.5,0.2,0.5,0.5
			C830.2,6.1,830,6.3,829.7,6.3z"/>
	</g>
	<g>
		<path class="st0" d="M898.6,61.6h-6.3c-0.3,0-0.5-0.2-0.5-0.5c0-0.3,0.2-0.5,0.5-0.5h6.3c0.3,0,0.5,0.2,0.5,0.5
			C899.1,61.4,898.9,61.6,898.6,61.6z"/>
	</g>
	<g>
		<path class="st0" d="M652.2,12.5h-6.9c-0.3,0-0.5-0.2-0.5-0.5c0-0.3,0.2-0.5,0.5-0.5h6.9c0.3,0,0.5,0.2,0.5,0.5
			C652.7,12.2,652.5,12.5,652.2,12.5z"/>
	</g>
	<g>
		<path class="st0" d="M1130.4,24.1h-6.9c-0.3,0-0.5-0.2-0.5-0.5c0-0.3,0.2-0.5,0.5-0.5h6.9c0.3,0,0.5,0.2,0.5,0.5
			C1130.9,23.9,1130.7,24.1,1130.4,24.1z"/>
	</g>
	<g>
		<path class="st0" d="M721,53.7h-5.2c-0.3,0-0.5-0.2-0.5-0.5s0.2-0.5,0.5-0.5h5.2c0.3,0,0.5,0.2,0.5,0.5S721.2,53.7,721,53.7z"/>
	</g>
	<g>
		<path class="st0" d="M712.7,94.6c-1.3,0-2.4-1.1-2.4-2.4c0-1.3,1.1-2.4,2.4-2.4c1.3,0,2.4,1.1,2.4,2.4
			C715.1,93.5,714.1,94.6,712.7,94.6z M712.7,90.6c-0.8,0-1.5,0.7-1.5,1.5c0,0.8,0.7,1.5,1.5,1.5c0.8,0,1.5-0.7,1.5-1.5
			C714.2,91.3,713.5,90.6,712.7,90.6z"/>
	</g>
	<g>
		<path class="st0" d="M943.8,63.6c-1.3,0-2.4-1.1-2.4-2.4c0-1.3,1.1-2.4,2.4-2.4c1.3,0,2.4,1.1,2.4,2.4
			C946.2,62.5,945.1,63.6,943.8,63.6z M943.8,59.6c-0.8,0-1.5,0.7-1.5,1.5c0,0.8,0.7,1.5,1.5,1.5c0.8,0,1.5-0.7,1.5-1.5
			C945.3,60.3,944.6,59.6,943.8,59.6z"/>
	</g>
	<g>
		<path class="st0" d="M1101.9,12c-1.3,0-2.4-1.1-2.4-2.4c0-1.3,1.1-2.4,2.4-2.4c1.3,0,2.4,1.1,2.4,2.4
			C1104.3,10.9,1103.3,12,1101.9,12z M1101.9,8c-0.8,0-1.5,0.7-1.5,1.5c0,0.8,0.7,1.5,1.5,1.5c0.8,0,1.5-0.7,1.5-1.5
			C1103.4,8.7,1102.7,8,1101.9,8z"/>
	</g>
	<g>
		<path class="st0" d="M960.6,36.5h-34c4.4-1.8,7.5-6.2,7.5-11.2c0-6.7-5.4-12.1-12.1-12.1c-4.4,0-8.4,2.3-10.5,6.1
			c-1.2-0.6-2.5-0.8-3.9-0.8c-3.9,0-7.4,2.4-8.8,6c-1.2-0.8-2.6-1.3-4-1.3c-3.5,0-6.5,2.6-7,6c0,0.1,0,0.2,0,0.2
			c-0.8-0.6-1.7-0.9-2.7-0.9c-2.4,0-4.4,2-4.4,4.4c0,1.4,0.7,2.7,1.7,3.5H850c-0.3,0-0.5,0.2-0.5,0.5c0,0.3,0.2,0.5,0.5,0.5H885
			c0.3,0,0.5-0.2,0.5-0.5c0-0.3-0.2-0.5-0.5-0.5c-1.9,0-3.5-1.6-3.5-3.5c0-1.9,1.6-3.5,3.5-3.5c0.8,0,1.7,0.3,2.3,0.9
			c0.1,0.1,0.3,0.1,0.4,0.1c0.1,0.2,0.2,0.3,0.4,0.3c0.3,0,0.5-0.2,0.5-0.5c0-0.3,0-0.6,0.1-0.9c0.4-3,3.1-5.3,6.1-5.3
			c1.3,0,2.6,0.4,3.7,1.2c0.2,0.1,0.4,0.1,0.6,0c0,0,0,0,0.1,0c0.2,0,0.4-0.1,0.4-0.3c1.2-3.4,4.5-5.7,8.1-5.7
			c1.3,0,2.5,0.3,3.6,0.8c0.1,0,0.2,0.1,0.3,0c0,0,0,0,0,0c0.2,0.1,0.5,0,0.6-0.2c2-3.7,5.7-5.9,9.9-5.9c6.2,0,11.2,5,11.2,11.2
			c0,6.2-5,11.2-11.2,11.2h-10.6c-0.3,0-0.5,0.2-0.5,0.5c0,0.3,0.2,0.5,0.5,0.5h49.2c0.3,0,0.5-0.2,0.5-0.5
			C961,36.7,960.8,36.5,960.6,36.5z"/>
		<path class="st0" d="M904.5,36.5h-3.6c-0.3,0-0.5,0.2-0.5,0.5c0,0.3,0.2,0.5,0.5,0.5h3.6c0.3,0,0.5-0.2,0.5-0.5
			C905,36.7,904.8,36.5,904.5,36.5z"/>
		<path class="st0" d="M893.4,43.5h-30.6c-0.3,0-0.5,0.2-0.5,0.5c0,0.3,0.2,0.5,0.5,0.5h30.6c0.3,0,0.5-0.2,0.5-0.5
			C893.8,43.7,893.6,43.5,893.4,43.5z"/>
		<path class="st0" d="M935.7,43.5h-13c-0.3,0-0.5,0.2-0.5,0.5c0,0.3,0.2,0.5,0.5,0.5h13c0.3,0,0.5-0.2,0.5-0.5
			C936.2,43.7,936,43.5,935.7,43.5z"/>
	</g>
	<g>
		<path class="st0" d="M1115.5,59.4h-21c-0.3,0-0.5-0.2-0.5-0.5c0-0.3,0.2-0.5,0.5-0.5h21c0.3,0,0.5,0.2,0.5,0.5
			C1116,59.2,1115.8,59.4,1115.5,59.4z"/>
	</g>
	<path class="st0" d="M1152.4,51h-11.1c2.3-1.3,3.8-3.7,3.8-6.4c0-4.1-3.3-7.3-7.3-7.3c-2.6,0-5,1.4-6.3,3.6
		c-0.7-0.3-1.5-0.5-2.2-0.5c-2.3,0-4.4,1.4-5.3,3.5c-0.7-0.4-1.5-0.6-2.3-0.6c-2.1,0-3.9,1.5-4.3,3.6c-0.4-0.3-0.9-0.4-1.5-0.4
		c-1.5,0-2.8,1.3-2.8,2.8c0,0.7,0.3,1.4,0.7,1.9h-7.1c-0.3,0-0.5,0.2-0.5,0.5c0,0.3,0.2,0.5,0.5,0.5h9.2c0.3,0,0.5-0.2,0.5-0.5
		c0-0.3-0.2-0.5-0.5-0.5c-1,0-1.9-0.8-1.9-1.9c0-1,0.8-1.9,1.9-1.9c0.5,0,0.9,0.2,1.2,0.5c0.1,0.1,0.2,0.1,0.2,0.1
		c0.1,0.1,0.2,0.2,0.4,0.2c0.3,0,0.5-0.2,0.5-0.5c0-0.2,0-0.3,0-0.5c0.2-1.7,1.7-3,3.4-3c0.8,0,1.5,0.2,2.1,0.7
		c0.2,0.1,0.4,0.1,0.5,0c0.2,0,0.3-0.1,0.4-0.3c0.7-1.9,2.5-3.2,4.6-3.2c0.7,0,1.4,0.2,2.1,0.5c0.1,0,0.2,0,0.2,0
		c0.2,0.1,0.5,0,0.6-0.2c1.1-2.1,3.3-3.4,5.7-3.4c3.5,0,6.4,2.9,6.4,6.4c0,3.5-2.9,6.4-6.4,6.4h-12.5c-0.3,0-0.5,0.2-0.5,0.5
		c0,0.3,0.2,0.5,0.5,0.5h12.5h0.9h13.7c0.3,0,0.5-0.2,0.5-0.5C1152.9,51.2,1152.7,51,1152.4,51z"/>
	<path class="st0" d="M734.9,130c-0.8,0-1.4,0.6-1.4,1.4c0,0.8,0.6,1.4,1.4,1.4s1.4-0.6,1.4-1.4C736.3,130.6,735.7,130,734.9,130z
		 M734.9,132c-0.3,0-0.5-0.2-0.5-0.5c0-0.3,0.2-0.5,0.5-0.5c0.3,0,0.5,0.2,0.5,0.5C735.4,131.7,735.2,132,734.9,132z"/>
	<path class="st0" d="M734.9,142.2c0.8,0,1.4-0.6,1.4-1.4c0-0.8-0.6-1.4-1.4-1.4s-1.4,0.6-1.4,1.4
		C733.4,141.5,734.1,142.2,734.9,142.2z M734.9,140.2c0.3,0,0.5,0.2,0.5,0.5c0,0.3-0.2,0.5-0.5,0.5c-0.3,0-0.5-0.2-0.5-0.5
		C734.3,140.5,734.6,140.2,734.9,140.2z"/>
	<path class="st0" d="M686.3,130c-0.8,0-1.4,0.6-1.4,1.4c0,0.8,0.6,1.4,1.4,1.4c0.8,0,1.4-0.6,1.4-1.4
		C687.8,130.6,687.1,130,686.3,130z M686.3,132c-0.3,0-0.5-0.2-0.5-0.5c0-0.3,0.2-0.5,0.5-0.5s0.5,0.2,0.5,0.5
		C686.9,131.7,686.6,132,686.3,132z"/>
	<path class="st0" d="M686.3,142.2c0.8,0,1.4-0.6,1.4-1.4c0-0.8-0.6-1.4-1.4-1.4c-0.8,0-1.4,0.6-1.4,1.4
		C684.9,141.5,685.5,142.2,686.3,142.2z M686.3,140.2c0.3,0,0.5,0.2,0.5,0.5c0,0.3-0.2,0.5-0.5,0.5s-0.5-0.2-0.5-0.5
		C685.8,140.5,686.1,140.2,686.3,140.2z"/>
	<path class="st0" d="M742.3,134.9c0.3,0,0.5-0.2,0.5-0.5v-6.1c0-0.3-0.2-0.5-0.5-0.5h-5.9v-2.1c0-0.3-0.2-0.5-0.5-0.5h-2.2
		c-0.3,0-0.5,0.2-0.5,0.5v2.1h-45.4v-2.1c0-0.3-0.2-0.5-0.5-0.5h-2.2c-0.3,0-0.5,0.2-0.5,0.5v2.1h-5c-0.3,0-0.5,0.2-0.5,0.5v6.1
		c0,0.3,0.2,0.5,0.5,0.5h5v2.3h-5c-0.3,0-0.5,0.2-0.5,0.5v6.1c0,0.3,0.2,0.5,0.5,0.5h5v3.1h-3.4c-0.3,0-0.5,0.2-0.5,0.5v3.2
		c0,0.3,0.2,0.5,0.5,0.5h3.4v8.3c0,0.3,0.2,0.5,0.5,0.5h2.2c0.3,0,0.5-0.2,0.5-0.5v-8.3h45.4v8.3c0,0.3,0.2,0.5,0.5,0.5h2.2
		c0.3,0,0.5-0.2,0.5-0.5v-8.3h4.3c0.3,0,0.5-0.2,0.5-0.5v-3.2c0-0.3-0.2-0.5-0.5-0.5h-4.3v-3.1h5.9c0.3,0,0.5-0.2,0.5-0.5v-6.1
		c0-0.3-0.2-0.5-0.5-0.5h-5.9v-2.3H742.3z M734.2,126.2h1.3v1.7h-1.3V126.2z M685.7,126.2h1.3v1.7h-1.3V126.2z M687,159.3h-1.3v-7.9
		h1.3V159.3z M735.5,159.3h-1.3v-7.9h1.3V159.3z M740.3,148.2v2.3H736h-2.2h-46.3h-2.2h-3.4v-2.3h3.4h2.2h46.3h2.2H740.3z
		 M685.7,147.3v-3.1h1.3v3.1H685.7z M687.9,147.3v-3.1h45.4v3.1H687.9z M734.2,147.3v-3.1h1.3v3.1H734.2z M741.9,138.2v5.2h-61.7
		v-5.2H741.9z M685.7,137.2v-2.3h1.3v2.3H685.7z M687.9,137.2v-2.3h45.4v2.3H687.9z M734.2,137.2v-2.3h1.3v2.3H734.2z M680.2,134
		v-5.2h61.7v5.2H680.2z"/>
	<g>
		<rect x="992.8" y="126.2" class="st0" width="1.3" height="1.7"/>
		<path class="st0" d="M993.4,130c-0.8,0-1.4,0.6-1.4,1.4c0,0.8,0.6,1.4,1.4,1.4c0.8,0,1.4-0.6,1.4-1.4
			C994.9,130.6,994.2,130,993.4,130z M993.4,132c-0.3,0-0.5-0.2-0.5-0.5c0-0.3,0.2-0.5,0.5-0.5c0.3,0,0.5,0.2,0.5,0.5
			C993.9,131.7,993.7,132,993.4,132z"/>
		<path class="st0" d="M993.4,142.2c0.8,0,1.4-0.6,1.4-1.4c0-0.8-0.6-1.4-1.4-1.4c-0.8,0-1.4,0.6-1.4,1.4
			C992,141.5,992.6,142.2,993.4,142.2z M993.4,140.2c0.3,0,0.5,0.2,0.5,0.5c0,0.3-0.2,0.5-0.5,0.5c-0.3,0-0.5-0.2-0.5-0.5
			C992.9,140.5,993.1,140.2,993.4,140.2z"/>
		<path class="st0" d="M944.9,130c-0.8,0-1.4,0.6-1.4,1.4c0,0.8,0.6,1.4,1.4,1.4c0.8,0,1.4-0.6,1.4-1.4
			C946.3,130.6,945.7,130,944.9,130z M944.9,132c-0.3,0-0.5-0.2-0.5-0.5c0-0.3,0.2-0.5,0.5-0.5c0.3,0,0.5,0.2,0.5,0.5
			C945.4,131.7,945.2,132,944.9,132z"/>
		<path class="st0" d="M944.9,142.2c0.8,0,1.4-0.6,1.4-1.4c0-0.8-0.6-1.4-1.4-1.4c-0.8,0-1.4,0.6-1.4,1.4
			C943.4,141.5,944.1,142.2,944.9,142.2z M944.9,140.2c0.3,0,0.5,0.2,0.5,0.5c0,0.3-0.2,0.5-0.5,0.5c-0.3,0-0.5-0.2-0.5-0.5
			C944.4,140.5,944.6,140.2,944.9,140.2z"/>
		<path class="st0" d="M1000.9,134.9c0.3,0,0.5-0.2,0.5-0.5v-6.1c0-0.3-0.2-0.5-0.5-0.5H995v-2.1c0-0.3-0.2-0.5-0.5-0.5h-2.2
			c-0.3,0-0.5,0.2-0.5,0.5v2.1h-45.4v-2.1c0-0.3-0.2-0.5-0.5-0.5h-2.2c-0.3,0-0.5,0.2-0.5,0.5v2.1h-5c-0.3,0-0.5,0.2-0.5,0.5v6.1
			c0,0.3,0.2,0.5,0.5,0.5h5v2.3h-5c-0.3,0-0.5,0.2-0.5,0.5v6.1c0,0.3,0.2,0.5,0.5,0.5h5v3.1h-3.4c-0.3,0-0.5,0.2-0.5,0.5v3.2
			c0,0.3,0.2,0.5,0.5,0.5h3.4v8.3c0,0.3,0.2,0.5,0.5,0.5h2.2c0.3,0,0.5-0.2,0.5-0.5v-8.3h45.4v8.3c0,0.3,0.2,0.5,0.5,0.5h2.2
			c0.3,0,0.5-0.2,0.5-0.5v-8.3h4.3c0.3,0,0.5-0.2,0.5-0.5v-3.2c0-0.3-0.2-0.5-0.5-0.5H995v-3.1h5.9c0.3,0,0.5-0.2,0.5-0.5v-6.1
			c0-0.3-0.2-0.5-0.5-0.5H995v-2.3H1000.9z M992.8,126.2h1.3v1.7h-1.3V126.2z M944.2,126.2h1.3v1.7h-1.3V126.2z M945.5,159.3h-1.3
			v-7.9h1.3V159.3z M994.1,159.3h-1.3v-7.9h1.3V159.3z M998.8,148.2v2.3h-4.3h-2.2H946h-2.2h-3.4v-2.3h3.4h2.2h46.3h2.2H998.8z
			 M944.2,147.3v-3.1h1.3v3.1H944.2z M946.5,147.3v-3.1h45.4v3.1H946.5z M992.8,147.3v-3.1h1.3v3.1H992.8z M1000.4,138.2v5.2h-61.7
			v-5.2H1000.4z M944.2,137.2v-2.3h1.3v2.3H944.2z M946.5,137.2v-2.3h45.4v2.3H946.5z M992.8,137.2v-2.3h1.3v2.3H992.8z M938.8,134
			v-5.2h61.7v5.2H938.8z"/>
	</g>
	<g id="XMLID_2_">
		<g>
			<path class="st0" d="M1050.1,98.6c0,0-6.3,7-6.3,7c-0.3,0.4-0.4,0.8-0.4,1.3c0,1.1,0.9,2,2,2h6.5c0,0,6.5,0,6.5,0
				c1.1,0,2-0.9,2-2c0-0.5-0.2-0.9-0.5-1.3l-6.3-7c-0.7-0.8-1.2-1.1-1.7-1.1C1051.3,97.5,1050.8,97.8,1050.1,98.6
				C1050.1,98.6,1050.1,98.6,1050.1,98.6z M1063.1,117.8c0-0.6-0.2-1.2-0.6-1.8l-5.6-6.3h-5c0,0-5,0-5,0l-5.6,6.3
				c-0.4,0.5-0.6,1.1-0.6,1.8c0,1.5,1.3,2.8,2.8,2.8h8.5h8.5C1061.8,120.6,1063.1,119.4,1063.1,117.8z M1037.6,128.9l6.6-7.3h-0.8
				c-2,0-3.7-1.7-3.7-3.7c0-0.8,0.3-1.7,0.8-2.3c0,0,0,0,0,0c0,0,5.1-5.7,5.1-5.7h-0.3c-1.6,0-3-1.3-3-3c0-0.7,0.2-1.3,0.7-1.9
				c0,0,0,0,0,0c0,0,6.4-7,6.4-7c0.6-0.7,1.4-1.4,2.4-1.4c1.1,0,1.8,0.7,2.4,1.4c0,0,6.4,7,6.4,7c0,0,0,0,0,0
				c0.4,0.5,0.7,1.2,0.7,1.9c0,1.6-1.3,3-3,3h-0.3l5.1,5.7c0,0,0,0,0,0c0.5,0.7,0.8,1.5,0.8,2.3c0,2-1.7,3.7-3.7,3.7h-0.9l6.6,7.3
				c0,0,0,0,0,0c0.3,0.4,0.6,0.9,0.8,1.3l-0.9,0.3c-0.1-0.4-0.3-0.7-0.6-1.1l-7.2-7.9h-6.4h-6.4l-7.2,7.9c-0.3,0.3-0.5,0.7-0.6,1.1
				l-0.9-0.3C1037,129.8,1037.3,129.3,1037.6,128.9C1037.6,128.9,1037.6,128.9,1037.6,128.9C1037.6,128.9,1037.6,128.9,1037.6,128.9
				z"/>
			<path class="st0" d="M1049,159.3h5.6v-5.6h-2.8h-2.8V159.3z M1034.9,148.4c0,2.4,2,4.4,4.4,4.4h9.3h3.2h3.3h9.3
				c2.4,0,4.4-2,4.4-4.4c0-1-0.3-2-1-2.7l-8.4-9.3h-7.5h-7.5l-8.4,9.3C1035.3,146.5,1034.9,147.4,1034.9,148.4z M1060.6,136.4
				l7.9,8.7c0,0,0,0,0,0c0.8,0.9,1.2,2.1,1.2,3.3c0,2.9-2.4,5.3-5.3,5.3h-8.8v6c0,0.3-0.2,0.5-0.5,0.5h-6.5c-0.3,0-0.5-0.2-0.5-0.5
				v-6h-8.8c-2.9,0-5.3-2.4-5.3-5.3c0-1.2,0.4-2.4,1.2-3.3c0,0,0,0,0,0c0,0,7.9-8.7,7.9-8.7h-1.9c-2.5,0-4.6-2-4.6-4.6
				c0-0.5,0.1-1,0.3-1.5l0.9,0.3c-0.1,0.4-0.2,0.8-0.2,1.2c0,2,1.6,3.7,3.7,3.7h10.7h10.7c2,0,3.7-1.6,3.7-3.7
				c0-0.4-0.1-0.8-0.2-1.2l0.9-0.3c0.2,0.5,0.3,1,0.3,1.5c0,2.5-2,4.6-4.6,4.6H1060.6z"/>
		</g>
	</g>
</g>
</svg>
