<?xml version="1.0" encoding="utf-8"?>
<!-- Generator: Adobe Illustrator 24.1.3, SVG Export Plug-In . SVG Version: 6.00 Build 0)  -->
<svg version="1.1" id="Layer_5" xmlns="http://www.w3.org/2000/svg" xmlns:xlink="http://www.w3.org/1999/xlink" x="0px" y="0px"
	 viewBox="0 0 224 224.1" style="enable-background:new 0 0 224 224.1;" xml:space="preserve">
<style type="text/css">
	.st0{fill-rule:evenodd;clip-rule:evenodd;fill:#FFFBEB;}
	.st1{fill:none;stroke:#3D4856;stroke-width:3;stroke-miterlimit:10;}
	.st2{fill-rule:evenodd;clip-rule:evenodd;fill:none;stroke:#1475A2;stroke-width:3;stroke-miterlimit:10;}
</style>
<ellipse class="st0" cx="112" cy="112" rx="112" ry="112"/>
<g>
	<path class="st1" d="M72.8,172.4h19.6v-9.8H43.6c-1.8,0-3.4-0.6-4.6-1.9c-1.3-1.3-2-2.8-2-4.6V58.2c0-1.8,0.7-3.3,2-4.6
		c1.2-1.3,2.8-1.9,4.6-1.9h136.9c1.8,0,3.3,0.6,4.6,1.9c1.3,1.3,1.9,2.8,1.9,4.6V156c0,1.8-0.6,3.4-1.9,4.6
		c-1.3,1.3-2.8,1.9-4.6,1.9h-48.9v9.8h19.5"/>
	<path class="st2" d="M180.5,139.7V58.2H43.6v81.5c0,0.9,0.3,1.7,0.9,2.3c0.6,0.6,1.4,1,2.3,1h130.4c0.9,0,1.7-0.3,2.3-1
		C180.2,141.4,180.5,140.6,180.5,139.7z"/>
	<line class="st1" x1="92.4" y1="172.4" x2="131.6" y2="172.4"/>
	<line class="st1" x1="131.6" y1="162.6" x2="92.4" y2="162.6"/>
</g>
</svg>
