<?xml version="1.0" encoding="utf-8"?>
<!-- Generator: Adobe Illustrator 24.1.3, SVG Export Plug-In . SVG Version: 6.00 Build 0)  -->
<svg version="1.1" id="Layer_5" xmlns="http://www.w3.org/2000/svg" xmlns:xlink="http://www.w3.org/1999/xlink" x="0px" y="0px"
	 viewBox="0 0 224 224.1" style="enable-background:new 0 0 224 224.1;" xml:space="preserve">
<style type="text/css">
	.st0{fill-rule:evenodd;clip-rule:evenodd;fill:#FFFBEB;}
	.st1{fill:none;stroke:#1475A2;stroke-width:3;stroke-miterlimit:10;}
	.st2{fill:none;stroke:#7CE0C3;stroke-width:3;stroke-miterlimit:10;}
	.st3{fill:none;stroke:#D0905C;stroke-width:3;stroke-miterlimit:10;}
</style>
<ellipse class="st0" cx="112" cy="112" rx="112" ry="112"/>
<g>
	<g>
		<path class="st1" d="M142.3,53.7h27.2h13.6c1.1,0,2,0.4,2.8,1.1c0.8,0.8,1.1,1.7,1.1,2.8v108.9c0,1.1-0.4,2-1.1,2.8
			c-0.8,0.8-1.7,1.1-2.8,1.1h-54.4c-1.1,0-2-0.4-2.8-1.1c-0.8-0.8-1.1-1.7-1.1-2.8V57.6c0-1.1,0.4-2,1.1-2.8
			c0.8-0.8,1.7-1.1,2.8-1.1H142.3v0.2c0.2,1.3,0.7,2.3,1.7,3.2c1,0.9,2.1,1.3,3.3,1.3h17.1c1.3,0,2.4-0.4,3.3-1.3
			c1-0.9,1.6-1.9,1.7-3.2v-0.2"/>
		<line class="st1" x1="162.2" y1="161.4" x2="150.6" y2="161.4"/>
	</g>
	<path class="st2" d="M77.1,134.3v-20.5v-8.5V93.8h-4c-5.5,0-10.3-1.9-14.1-5.8C55,84,53,79.3,53,73.7v-8h4c5.5,0,10.3,2,14.2,5.9
		c3.7,3.7,5.7,8.3,5.8,13.6V53.7 M77.1,93.8v-8.5 M77.1,113.8h4c5.5,0,10.3-1.9,14.2-5.8c3.9-3.9,5.8-8.7,5.8-14.2v-8h-4
		c-5.5,0-10.2,2-14.1,5.9c-3.8,3.8-5.8,8.3-5.9,13.6"/>
	<path class="st3" d="M77.1,134.3h40.1v12h-12v24H49v-24H37v-12H77.1z M105.1,146.3H49"/>
</g>
</svg>
