<?xml version="1.0" encoding="utf-8"?>
<!-- Generator: Adobe Illustrator 24.1.3, SVG Export Plug-In . SVG Version: 6.00 Build 0)  -->
<svg version="1.1" id="Layer_5" xmlns="http://www.w3.org/2000/svg" xmlns:xlink="http://www.w3.org/1999/xlink" x="0px" y="0px"
	 viewBox="0 0 224 224.1" style="enable-background:new 0 0 224 224.1;" xml:space="preserve">
<style type="text/css">
	.st0{fill-rule:evenodd;clip-rule:evenodd;fill:#FFFBEB;}
	.st1{fill:none;stroke:#1475A2;stroke-width:3;stroke-miterlimit:10;}
	.st2{fill-rule:evenodd;clip-rule:evenodd;fill:none;stroke:#3D4856;stroke-width:3;stroke-miterlimit:10;}
</style>
<ellipse class="st0" cx="112" cy="112" rx="112" ry="112"/>
<g>
	<g>
		<path class="st1" d="M145.6,92.4c0.7,1.4,1.1,2.9,1.1,4.5v4.8c0,1-0.3,2.2-0.8,3.6c-0.3,0.7-0.6,2.3-0.8,4.7
			c0,1.2,0.3,3.4,0.8,6.5c0.4,1.8,0.7,3.7,0.7,5.7l0,2.4h12.8l-2.6,23.4H147l-0.4-4c-0.2,1.1-0.6,2-1.2,2.7c-0.9,0.9-2.2,1.4-4,1.4
			h-9.7c-1.8,0-3.1-0.5-4-1.4c-0.8-0.9-1.3-2.3-1.3-4.1l0.1-22c0.1-1.4,0.3-2.8,0.6-4c0.5-3.1,0.8-5.3,0.9-6.5
			c-0.3-2.4-0.6-4-0.9-4.7c-0.5-1.3-0.8-2.5-0.8-3.6v-4.8c0-1.6,0.3-3.1,1-4.5l1.7-3.4l3.7-8.9v-3.6c0-0.1,0-0.2,0.1-0.3
			c0.1-0.1,0.2-0.1,0.3-0.1h6.5c0.1,0,0.2,0,0.3,0.1c0.1,0.1,0.1,0.2,0.1,0.3v3.6l3.7,8.9L145.6,92.4z"/>
		<line class="st1" x1="136.6" y1="120.5" x2="126.6" y2="120.5"/>
		<polyline class="st1" points="146.6,144 144.4,124.6 146.7,124.6 		"/>
		<line class="st1" x1="128.1" y1="110" x2="145.1" y2="110"/>
		<line class="st1" x1="127.3" y1="116.5" x2="145.9" y2="116.5"/>
		<line class="st1" x1="140.2" y1="80.1" x2="132.9" y2="80.1"/>
		<line class="st1" x1="129.2" y1="89" x2="143.9" y2="89"/>
	</g>
	<g>
		<polyline class="st2" points="99.4,44.8 99.4,44.5 84.8,44.5 84.8,44.8 		"/>
		<polyline class="st2" points="98,50.2 98,50 86.1,50 86.2,50.2 		"/>
		<path class="st2" d="M98,50h12.7c1,0,1.9,0.4,2.6,1.1c0.7,0.7,1.1,1.6,1.1,2.6v56.9H69.7V53.7c0-1,0.3-1.9,1-2.6
			c0.8-0.7,1.6-1.1,2.6-1.1h12.7"/>
		<path class="st2" d="M99.4,44.5h15.8c1.2,0,2.3,0.4,3.2,1.3c0.9,0.9,1.3,2,1.3,3.2v126c0,1.2-0.4,2.3-1.3,3.1
			c-0.9,0.9-1.9,1.4-3.2,1.4H69.1c-1.3,0-2.3-0.5-3.2-1.4c-0.8-0.9-1.3-1.9-1.3-3.1V49c0-1.2,0.4-2.3,1.3-3.2c0.9-0.9,2-1.3,3.2-1.3
			h15.7"/>
		<rect x="69.7" y="115.7" class="st2" width="44.7" height="9"/>
	</g>
</g>
</svg>
